<?xml version="1.0" encoding="utf-8"?>
<!-- Generator: Adobe Illustrator 18.1.1, SVG Export Plug-In . SVG Version: 6.00 Build 0)  -->
<svg version="1.0" xmlns="http://www.w3.org/2000/svg" xmlns:xlink="http://www.w3.org/1999/xlink" x="0px" y="0px"
	 viewBox="0 0 1212.8 1215.9" enable-background="new 0 0 1212.8 1215.9" xml:space="preserve">
<g id="Layer_3">
</g>
<g id="Layer_2">
	<g>
		<circle fill="#9ADCF8" cx="606.4" cy="608.7" r="607.6"/>
		<circle fill="#9ADCF8" cx="606.4" cy="607.2" r="607.6"/>
		<g>
			<defs>
				<circle id="SVGID_103_" cx="606.4" cy="608.7" r="607.6"/>
			</defs>
			<clipPath id="SVGID_2_">
				<use xlink:href="#SVGID_103_"  overflow="visible"/>
			</clipPath>
			<polygon clip-path="url(#SVGID_2_)" fill="#78ACC2" points="377.1,400.5 616.8,640.2 751.6,515.8 853.3,617.5 1120.6,425.4 
				1564.9,869.7 810,1624.6 652.4,1323.2 124.6,795.4 			"/>
		</g>
		<path fill="none" stroke="#5E3810" stroke-width="73.7008" stroke-miterlimit="10" d="M92.2,624.2c0,0,309.9-36,520.3-34
			c186.3,1.7,508.2,34,508.2,34"/>
		<g>
			<defs>
				<circle id="SVGID_105_" cx="606.4" cy="608.7" r="607.6"/>
			</defs>
			<clipPath id="SVGID_4_">
				<use xlink:href="#SVGID_105_"  overflow="visible"/>
			</clipPath>
			<g clip-path="url(#SVGID_4_)">
				<rect x="541.2" y="774.5" fill="#B78A4F" width="152.4" height="488.2"/>
				<path fill="#B78A4F" d="M741.8,811.2h-249c-6.6,0-12-5.4-12-12V526.1c0-6.6,5.4-12,12-12h249c6.6,0,12,5.4,12,12v273.1
					C753.8,805.8,748.4,811.2,741.8,811.2z"/>
				<g>
					<path fill="#EF5C4C" d="M1115.2,418.9L842.3,395c-3.3-0.3-6.2,2.2-6.5,5.5l-32.4,370c-0.3,3.3,2.2,6.2,5.5,6.5l272.9,23.9
						c3.3,0.3,6.2-2.2,6.5-5.5l32.4-370C1120.9,422.1,1118.5,419.2,1115.2,418.9z"/>
					<g>
						
							<rect x="862" y="436.6" transform="matrix(0.9962 8.715574e-002 -8.715574e-002 0.9962 44.3585 -83.0728)" fill="#F9BEB8" width="223.1" height="59.7"/>
						
							<rect x="847.2" y="633.9" transform="matrix(0.9962 8.715574e-002 -8.715574e-002 0.9962 58.9732 -81.1487)" fill="#9ADCF8" width="223.1" height="1.7"/>
					</g>
					<g>
						
							<rect x="856.1" y="527" transform="matrix(0.9962 8.715574e-002 -8.715574e-002 0.9962 50.1226 -81.3794)" fill="#FFFFFF" width="201.9" height="12.6"/>
						<g>
							
								<rect x="854.3" y="545.7" transform="matrix(0.9962 8.715574e-002 -8.715574e-002 0.9962 51.5651 -77.1117)" fill="#FFFFFF" width="109.2" height="12.6"/>
							
								<rect x="852.2" y="569.8" transform="matrix(0.9962 8.715574e-002 -8.715574e-002 0.9962 53.7276 -78.313)" fill="#FFFFFF" width="143" height="12.6"/>
						</g>
					</g>
				</g>
				<g>
					<path fill="#EF5C4C" d="M370.6,395L97.7,418.9c-3.3,0.3-5.7,3.2-5.5,6.5l32.4,370c0.3,3.3,3.2,5.7,6.5,5.5L404,776.9
						c3.3-0.3,5.7-3.2,5.5-6.5l-32.4-370C376.8,397.2,373.9,394.7,370.6,395z"/>
					<g>
						
							<rect x="127.8" y="436.6" transform="matrix(0.9962 -8.715574e-002 8.715574e-002 0.9962 -39.7432 22.6337)" fill="#F9BEB8" width="223.1" height="59.7"/>
						
							<rect x="142.5" y="633.9" transform="matrix(0.9962 -8.715574e-002 8.715574e-002 0.9962 -54.3579 24.5578)" fill="#9ADCF8" width="223.1" height="1.7"/>
					</g>
					<g>
						
							<rect x="133.7" y="528.9" transform="matrix(0.9962 -8.715574e-002 8.715574e-002 0.9962 -45.7492 22.4899)" fill="#FFFFFF" width="201.9" height="12.6"/>
						<g>
							
								<rect x="135.9" y="555.6" transform="matrix(0.9962 -8.715574e-002 8.715574e-002 0.9962 -48.2471 18.7409)" fill="#FFFFFF" width="109.2" height="12.6"/>
							
								<rect x="137.8" y="576.8" transform="matrix(0.9962 -8.715574e-002 8.715574e-002 0.9962 -50.025 20.461)" fill="#FFFFFF" width="143" height="12.6"/>
						</g>
					</g>
				</g>
				<path fill="#B78A4F" d="M540.7,712.2h-36.9c-6.6,0-12-5.4-12-12V536.1c0-6.6,5.4-12,12-12h36.9c6.6,0,12,5.4,12,12v164.2
					C552.7,706.8,547.3,712.2,540.7,712.2z"/>
				<path fill="#B78A4F" d="M611.5,712.2h-36.9c-6.6,0-12-5.4-12-12V536.1c0-6.6,5.4-12,12-12h36.9c6.6,0,12,5.4,12,12v164.2
					C623.5,706.8,618.1,712.2,611.5,712.2z"/>
				<path fill="#B78A4F" d="M681.7,712.2h-36.9c-6.6,0-12-5.4-12-12V536.1c0-6.6,5.4-12,12-12h36.9c6.6,0,12,5.4,12,12v164.2
					C693.7,706.8,688.3,712.2,681.7,712.2z"/>
				<path fill="#B78A4F" d="M744.1,712.2h-37.2c-6.6,0-12-5.4-12-12V535.1c0-6.6,5.4-12,12-12h37.2c6.6,0,12,5.4,12,12v165.2
					C756.1,706.8,750.7,712.2,744.1,712.2z"/>
				<path fill="#D3A86A" d="M519.8,702.2h-37.2c-6.6,0-12-5.4-12-12V525c0-6.6,5.4-12,12-12h37.2c6.6,0,12,5.4,12,12v165.2
					C531.8,696.8,526.4,702.2,519.8,702.2z"/>
				<path fill="#D3A86A" d="M600.5,702.2h-46.7c-6.6,0-12-5.4-12-12v-179c0-6.6,5.4-12,12-12h46.7c6.6,0,12,5.4,12,12v179
					C612.5,696.8,607.1,702.2,600.5,702.2z"/>
				<path fill="#D3A86A" d="M671.9,702.2h-47.6c-6.6,0-12-5.4-12-12V517.9c0-6.6,5.4-12,12-12h47.6c6.6,0,12,5.4,12,12v172.3
					C683.9,696.8,678.5,702.2,671.9,702.2z"/>
				<path fill="#D3A86A" d="M733.1,702.2h-37.2c-6.6,0-12-5.4-12-12V525c0-6.6,5.4-12,12-12h37.2c6.6,0,12,5.4,12,12v165.2
					C745.1,696.8,739.7,702.2,733.1,702.2z"/>
				<path fill="#B78A4F" d="M452.6,725.9l-6.8-36.3c-1.2-6.5,3.1-12.8,9.6-14l161.4-30.1c6.5-1.2,12.8,3.1,14,9.6l6.8,36.3
					c1.2,6.5-3.1,12.8-9.6,14l-161.4,30.1C460.1,736.7,453.8,732.4,452.6,725.9z"/>
				<polygon fill="#D3A86A" points="480.8,804.9 437.8,721.2 525.9,680.2 				"/>
				<path fill="#D3A86A" d="M436.8,715.5l-6.8-36.3c-1.2-6.5,3.1-12.8,9.6-14L601,635.2c6.5-1.2,12.8,3.1,14,9.6l6.8,36.3
					c1.2,6.5-3.1,12.8-9.6,14l-161.4,30.1C444.3,726.3,438,722,436.8,715.5z"/>
			</g>
		</g>
	</g>
</g>
</svg>
