<?xml version="1.0" encoding="utf-8"?>
<!-- Generator: Adobe Illustrator 18.1.1, SVG Export Plug-In . SVG Version: 6.00 Build 0)  -->
<svg version="1.0" xmlns="http://www.w3.org/2000/svg" xmlns:xlink="http://www.w3.org/1999/xlink" x="0px" y="0px"
	 viewBox="0 0 1215.1 1215.1" enable-background="new 0 0 1215.1 1215.1" xml:space="preserve">
<g id="Layer_3">
</g>
<g id="Layer_2">
	<circle fill="#9ADCF8" cx="607.1" cy="611.2" r="607.6"/>
	<g>
		<defs>
			<circle id="SVGID_167_" cx="607.1" cy="611.2" r="607.6"/>
		</defs>
		<clipPath id="SVGID_2_">
			<use xlink:href="#SVGID_167_"  overflow="visible"/>
		</clipPath>
		<polygon clip-path="url(#SVGID_2_)" fill="#78ACC2" points="207.2,361.4 613.8,768 614.1,976.6 1322.4,1116.5 1322.4,507 
			1214.7,507 1107,362.1 862.6,195.1 564.7,203.1 749.7,388 263.5,388 		"/>
	</g>
	<g>
		<defs>
			<circle id="SVGID_169_" cx="607.1" cy="611.2" r="607.6"/>
		</defs>
		<clipPath id="SVGID_4_">
			<use xlink:href="#SVGID_169_"  overflow="visible"/>
		</clipPath>
		<rect x="16" y="976.6" clip-path="url(#SVGID_4_)" fill="#EF5C4C" width="1224" height="317.7"/>
	</g>
	<circle fill="none" cx="607.1" cy="611.2" r="607.6"/>
	<path fill="#7C7C74" d="M462.6,642.9"/>
	<g>
		<path fill="#00A7ED" d="M428,380.4l-64.9,80.5c-0.4,0.5-0.3,1.2,0.2,1.6l108.5,87.6c0.5,0.4,1.2,0.3,1.6-0.2l64.9-80.5
			c0.4-0.5,0.3-1.2-0.2-1.6l-108.5-87.6C429.2,379.8,428.4,379.9,428,380.4z"/>
		<g>
			
				<rect x="371.5" y="423.5" transform="matrix(0.6281 -0.7781 0.7781 0.6281 -184.6097 482.7708)" fill="#9ADCF8" width="82.5" height="22.1"/>
			
				<rect x="420.1" y="473.4" transform="matrix(0.6281 -0.7781 0.7781 0.6281 -197.0642 535.1916)" fill="#9ADCF8" width="82.5" height="0.6"/>
		</g>
		<g>
			
				<rect x="392.5" y="451" transform="matrix(0.6281 -0.7781 0.7781 0.6281 -192.9198 503.0968)" fill="#FFFFFF" width="74.6" height="4.6"/>
			<g>
				
					<rect x="405.5" y="469.7" transform="matrix(0.6281 -0.7781 0.7781 0.6281 -208.9761 506.7477)" fill="#FFFFFF" width="40.4" height="4.6"/>
				
					<rect x="409.7" y="470.1" transform="matrix(0.6281 -0.7781 0.7781 0.6281 -205.4159 515.0594)" fill="#FFFFFF" width="52.9" height="4.6"/>
			</g>
		</g>
	</g>
	
		<line fill="none" stroke="#FFFFFF" stroke-width="12" stroke-linecap="round" stroke-linejoin="round" stroke-miterlimit="10" x1="875.3" y1="148.3" x2="802.6" y2="416.3"/>
	<path fill="#FFE35B" d="M870.4,164.9l-305.7,38.2c0,0,62,3,104.8,15.5c42.8,12.5,68.1,36.3,68.1,36.3s47.8-9.3,104.2,7.2
		c56.4,16.6,97.5,50.8,97.5,50.8s29.5-6.4,64.9,3.9c35.3,10.4,102.8,45.2,102.8,45.2L870.4,164.9z"/>
	<g>
		<path fill="#EF5C4C" d="M552.7,360.1L451.6,382c-0.6,0.1-1,0.8-0.9,1.4l29.4,136.3c0.1,0.6,0.8,1,1.4,0.9l101.1-21.8
			c0.6-0.1,1-0.8,0.9-1.4L554.1,361C554,360.4,553.3,360,552.7,360.1z"/>
		<g>
			
				<rect x="465.6" y="381.6" transform="matrix(0.9774 -0.2112 0.2112 0.9774 -71.4911 115.9054)" fill="#F9BEB8" width="82.5" height="22.1"/>
			
				<rect x="478.8" y="453.4" transform="matrix(0.9774 -0.2112 0.2112 0.9774 -84.0908 120.0699)" fill="#9ADCF8" width="82.5" height="0.6"/>
		</g>
		<g>
			
				<rect x="471" y="415.7" transform="matrix(0.9774 -0.2112 0.2112 0.9774 -76.8265 116.7904)" fill="#FFFFFF" width="74.6" height="4.6"/>
			<g>
				
					<rect x="473.2" y="427.6" transform="matrix(0.9774 -0.2112 0.2112 0.9774 -79.6672 113.8961)" fill="#FFFFFF" width="40.4" height="4.6"/>
				
					<rect x="474.8" y="434.5" transform="matrix(0.9774 -0.2112 0.2112 0.9774 -80.9496 115.7168)" fill="#FFFFFF" width="52.9" height="4.6"/>
			</g>
		</g>
	</g>
	<g>
		<path fill="#273E7A" d="M910.6,424.4l-59.9-84.3c-0.4-0.5-1.1-0.6-1.6-0.3l-113.6,80.8c-0.5,0.4-0.6,1.1-0.3,1.6l59.9,84.3
			c0.4,0.5,1.1,0.6,1.6,0.3L910.3,426C910.8,425.7,910.9,425,910.6,424.4z"/>
		<g>
			
				<rect x="821.4" y="384" transform="matrix(0.5794 0.815 -0.815 0.5794 684.7995 -536.8846)" fill="#A9B2CA" width="82.5" height="22.1"/>
			
				<rect x="770.4" y="431" transform="matrix(0.5794 0.815 -0.815 0.5794 692.887 -480.1602)" fill="#9ADCF8" width="82.5" height="0.6"/>
		</g>
		<g>
			
				<rect x="802.5" y="404.1" transform="matrix(0.5794 0.815 -0.815 0.5794 684.4907 -513.5344)" fill="#FFFFFF" width="74.6" height="4.6"/>
			<g>
				
					<rect x="802.8" y="395" transform="matrix(0.5794 0.815 -0.815 0.5794 670.0234 -503.6693)" fill="#FFFFFF" width="40.4" height="4.6"/>
				
					<rect x="793.4" y="405" transform="matrix(0.5794 0.815 -0.815 0.5794 676.783 -496.8307)" fill="#FFFFFF" width="52.9" height="4.6"/>
			</g>
		</g>
	</g>
	<g>
		<path fill="#273E7A" d="M668.1,395.8L566.4,377c-0.6-0.1-1.2,0.3-1.4,0.9L539.7,515c-0.1,0.6,0.3,1.2,0.9,1.4l101.7,18.8
			c0.6,0.1,1.2-0.3,1.4-0.9L669,397.1C669.1,396.5,668.7,395.9,668.1,395.8z"/>
		<g>
			
				<rect x="572" y="397" transform="matrix(0.9833 0.1818 -0.1818 0.9833 84.405 -104.6868)" fill="#A9B2CA" width="82.5" height="22.1"/>
			
				<rect x="560.6" y="469.2" transform="matrix(0.9833 0.1818 -0.1818 0.9833 95.3843 -101.5982)" fill="#9ADCF8" width="82.5" height="0.6"/>
		</g>
		<g>
			
				<rect x="567.5" y="429.8" transform="matrix(0.9833 0.1818 -0.1818 0.9833 88.632 -102.753)" fill="#FFFFFF" width="74.6" height="4.6"/>
			<g>
				
					<rect x="566.2" y="434.9" transform="matrix(0.9833 0.1818 -0.1818 0.9833 89.265 -99.3254)" fill="#FFFFFF" width="40.4" height="4.6"/>
				
					<rect x="564.6" y="444.3" transform="matrix(0.9833 0.1818 -0.1818 0.9833 91.0538 -100.0063)" fill="#FFFFFF" width="52.9" height="4.6"/>
			</g>
		</g>
	</g>
	<g>
		<path fill="#00A7ED" d="M615.1,390.2l-99.5-28.1c-0.6-0.2-1.3,0.2-1.4,0.8l-37.9,134.2c-0.2,0.6,0.2,1.3,0.8,1.4l99.5,28.1
			c0.6,0.2,1.3-0.2,1.4-0.8l37.9-134.2C616.1,391,615.7,390.4,615.1,390.2z"/>
		<g>
			
				<rect x="518.1" y="386.4" transform="matrix(0.9624 0.2715 -0.2715 0.9624 128.9112 -136.9347)" fill="#9ADCF8" width="82.5" height="22.1"/>
			
				<rect x="501.1" y="457.2" transform="matrix(0.9624 0.2715 -0.2715 0.9624 144.5993 -130.0705)" fill="#9ADCF8" width="82.5" height="0.6"/>
		</g>
		<g>
			
				<rect x="511.4" y="418.2" transform="matrix(0.9624 0.2715 -0.2715 0.9624 134.797 -133.1846)" fill="#FFFFFF" width="74.6" height="4.6"/>
			<g>
				
					<rect x="509.7" y="421.7" transform="matrix(0.9624 0.2715 -0.2715 0.9624 135.0293 -127.9565)" fill="#FFFFFF" width="40.4" height="4.6"/>
				
					<rect x="507.2" y="431.5" transform="matrix(0.9624 0.2715 -0.2715 0.9624 137.8303 -128.599)" fill="#FFFFFF" width="52.9" height="4.6"/>
			</g>
		</g>
	</g>
	<g>
		<path fill="#00A7ED" d="M653.4,388l-36.5,96.7c-0.2,0.6,0.1,1.3,0.7,1.5L748,535.5c0.6,0.2,1.3-0.1,1.5-0.7l36.5-96.7
			c0.2-0.6-0.1-1.3-0.7-1.5l-130.4-49.2C654.3,387.1,653.6,387.4,653.4,388z"/>
		<g>
			
				<rect x="614.5" y="433.1" transform="matrix(0.3532 -0.9355 0.9355 0.3532 8.589 900.7886)" fill="#9ADCF8" width="82.5" height="22.1"/>
			
				<rect x="673" y="465.9" transform="matrix(0.3532 -0.9355 0.9355 0.3532 25.7448 969.7401)" fill="#9ADCF8" width="82.5" height="0.6"/>
		</g>
		<g>
			
				<rect x="640.6" y="454.4" transform="matrix(0.3532 -0.9355 0.9355 0.3532 11.1634 929.6323)" fill="#FFFFFF" width="74.6" height="4.6"/>
			<g>
				
					<rect x="659.6" y="473.4" transform="matrix(0.3532 -0.9355 0.9355 0.3532 -5.435 943.6329)" fill="#FFFFFF" width="40.4" height="4.6"/>
				
					<rect x="663.4" y="470.6" transform="matrix(0.3532 -0.9355 0.9355 0.3532 3.7691 951.2136)" fill="#FFFFFF" width="52.9" height="4.6"/>
			</g>
		</g>
	</g>
	<g>
		<path fill="#EF5C4C" d="M760.7,557.6l-0.1-103.4c0-0.6-0.5-1.2-1.2-1.2L620,453.2c-0.6,0-1.2,0.5-1.2,1.2l0.1,103.4
			c0,0.6,0.5,1.2,1.2,1.2l139.4-0.1C760.2,558.8,760.7,558.3,760.7,557.6z"/>
		<g>
			
				<rect x="697.4" y="494.9" transform="matrix(9.637632e-004 1 -1 9.637632e-004 1243.8296 -233.1436)" fill="#F9BEB8" width="82.5" height="22.1"/>
			
				<rect x="634.9" y="505.7" transform="matrix(9.637632e-004 1 -1 9.637632e-004 1181.4763 -170.6098)" fill="#9ADCF8" width="82.5" height="0.6"/>
		</g>
		<g>
			
				<rect x="676.1" y="499.7" transform="matrix(9.637632e-004 1 -1 9.637632e-004 1214.7906 -211.8817)" fill="#FFFFFF" width="74.6" height="4.6"/>
			<g>
				
					<rect x="684.8" y="482.6" transform="matrix(9.637632e-004 1 -1 9.637632e-004 1189.2339 -220.5532)" fill="#FFFFFF" width="40.4" height="4.6"/>
				
					<rect x="670.2" y="488.8" transform="matrix(9.637632e-004 1 -1 9.637632e-004 1187.078 -205.8911)" fill="#FFFFFF" width="52.9" height="4.6"/>
			</g>
		</g>
	</g>
	<g>
		<path fill="#EF5C4C" d="M526.6,465.8L469,551.7c-0.4,0.5-0.2,1.3,0.3,1.6l115.9,77.5c0.5,0.4,1.3,0.2,1.6-0.3l57.5-85.9
			c0.4-0.5,0.2-1.3-0.3-1.6l-115.9-77.5C527.6,465.1,526.9,465.3,526.6,465.8z"/>
		<g>
			
				<rect x="474.9" y="510" transform="matrix(0.5562 -0.831 0.831 0.5562 -203.9473 660.171)" fill="#F9BEB8" width="82.5" height="22.1"/>
			
				<rect x="526.8" y="555.5" transform="matrix(0.5562 -0.831 0.831 0.5562 -209.7832 718.739)" fill="#9ADCF8" width="82.5" height="0.6"/>
		</g>
		<g>
			
				<rect x="497.5" y="536" transform="matrix(0.5562 -0.831 0.831 0.5562 -209.9785 683.3885)" fill="#FFFFFF" width="74.6" height="4.6"/>
			<g>
				
					<rect x="512.1" y="554.9" transform="matrix(0.5562 -0.831 0.831 0.5562 -226.8286 689.6833)" fill="#FFFFFF" width="40.4" height="4.6"/>
				
					<rect x="516.4" y="554.4" transform="matrix(0.5562 -0.831 0.831 0.5562 -221.7618 698.162)" fill="#FFFFFF" width="52.9" height="4.6"/>
			</g>
		</g>
	</g>
	<g>
		<path fill="#273E7A" d="M628.5,477.7l-94.3,42.4c-0.6,0.3-0.8,1-0.6,1.5l57.2,127.2c0.3,0.6,1,0.8,1.5,0.6l94.3-42.4
			c0.6-0.3,0.8-1,0.6-1.5l-57.2-127.2C629.8,477.7,629.1,477.4,628.5,477.7z"/>
		<g>
			
				<rect x="549.2" y="508" transform="matrix(0.912 -0.4102 0.4102 0.912 -160.9423 287.8553)" fill="#A9B2CA" width="82.5" height="22.1"/>
			
				<rect x="574.8" y="575.7" transform="matrix(0.912 -0.4102 0.4102 0.912 -182.0579 303.3796)" fill="#9ADCF8" width="82.5" height="0.6"/>
		</g>
		<g>
			
				<rect x="559.9" y="541.3" transform="matrix(0.912 -0.4102 0.4102 0.912 -170.4209 292.7794)" fill="#FFFFFF" width="74.6" height="4.6"/>
			<g>
				
					<rect x="564.8" y="556" transform="matrix(0.912 -0.4102 0.4102 0.912 -177.5253 289.081)" fill="#FFFFFF" width="40.4" height="4.6"/>
				
					<rect x="567.7" y="561.1" transform="matrix(0.912 -0.4102 0.4102 0.912 -178.8203 293.2841)" fill="#FFFFFF" width="52.9" height="4.6"/>
			</g>
		</g>
	</g>
	
		<line fill="none" stroke="#FFFFFF" stroke-width="12" stroke-linecap="round" stroke-linejoin="round" stroke-miterlimit="10" x1="729.9" y1="260.5" x2="859.3" y2="166.3"/>
	
		<polyline fill="none" stroke="#FFFFFF" stroke-width="12" stroke-linecap="round" stroke-linejoin="round" stroke-miterlimit="10" points="
		1107,362.1 870.4,164.9 564.7,203.1 870.4,164.9 	"/>
	
		<line fill="none" stroke="#FFFFFF" stroke-width="12" stroke-linecap="round" stroke-linejoin="round" stroke-miterlimit="10" x1="936.9" y1="321.2" x2="879" y2="172.1"/>
	<polygon opacity="0.61" fill="#FFE35B" points="263.5,388 975.5,388 622.7,703.5 	"/>
	<path fill="#FFFFFF" d="M679.5,680.4l338.5-319h-24.5L657.6,642.3c-26,21.8-63.9,21.8-90,0L231.7,361.4h-24.5L549.5,684
		c22,20.8,34.5,49.7,34.5,80v73.8c0,38.4-22.2,73.3-57,89.5l-105.5,49.3h189.6h3h182.4l-109.8-53.7c-27.8-13.6-45.5-41.9-45.5-72.9
		v-80.8C641.2,735.6,655.1,703.5,679.5,680.4z"/>
</g>
</svg>
