<?xml version="1.0" encoding="utf-8"?>
<!-- Generator: Adobe Illustrator 18.1.1, SVG Export Plug-In . SVG Version: 6.00 Build 0)  -->
<svg version="1.0" xmlns="http://www.w3.org/2000/svg" xmlns:xlink="http://www.w3.org/1999/xlink" x="0px" y="0px"
	 viewBox="0 0 1215.1 1222.3" enable-background="new 0 0 1215.1 1222.3" xml:space="preserve">
<g id="Layer_3">
</g>
<g id="Layer_2">
	<circle fill="#9ADCF8" cx="607.6" cy="607.6" r="607.6"/>
	<g>
		<defs>
			<circle id="SVGID_1_" cx="605.4" cy="607.6" r="607.6"/>
		</defs>
		<clipPath id="SVGID_2_">
			<use xlink:href="#SVGID_1_"  overflow="visible"/>
		</clipPath>
		<polygon clip-path="url(#SVGID_2_)" fill="#78ACC2" points="768.6,382.8 908.1,522.3 1136.6,483.2 1411.7,758.2 699.6,1424.7 
			368.7,843.6 351.5,748.7 104.7,501.9 484.9,576.2 		"/>
	</g>
	<g>
		<defs>
			<circle id="SVGID_3_" cx="607.6" cy="607.6" r="607.6"/>
		</defs>
		<clipPath id="SVGID_4_">
			<use xlink:href="#SVGID_3_"  overflow="visible"/>
		</clipPath>
		<g clip-path="url(#SVGID_4_)">
			<path fill="#D7D4AC" d="M770.8,1821.3H469.2c-109.3,0-198.8-89.4-198.8-198.8V835c0-109.3,89.4-198.8,198.8-198.8h301.5
				c109.3,0,198.8,89.4,198.8,198.8v787.6C969.5,1731.9,880.1,1821.3,770.8,1821.3z"/>
			<g>
				<defs>
					<path id="SVGID_5_" d="M770.8,1821.3H469.2c-109.3,0-198.8-89.4-198.8-198.8V835c0-109.3,89.4-198.8,198.8-198.8h301.5
						c109.3,0,198.8,89.4,198.8,198.8v787.6C969.5,1731.9,880.1,1821.3,770.8,1821.3z"/>
				</defs>
				<clipPath id="SVGID_6_">
					<use xlink:href="#SVGID_5_"  overflow="visible"/>
				</clipPath>
				<g clip-path="url(#SVGID_6_)">
					<polygon fill="#BCBA8F" points="299,606.2 620,1698.3 620,580.9 					"/>
					<polygon fill="#817A58" points="403.3,598 620,1335 620,618.2 					"/>
					<polygon fill="#BCBA8F" points="941,606.2 620,1698.3 620,580.9 					"/>
					<polygon fill="#817A58" points="836.6,598 620,1335 620,618.2 					"/>
				</g>
			</g>
			<path fill="#A5A251" d="M890,632.6c0,117.8-120.9,213.3-270,213.3s-270-95.5-270-213.3s120.9-316.7,270-316.7
				S890,514.8,890,632.6z"/>
			<g>
				<path fill="#A5A251" d="M824.5,525.2l312.2-42v21c0,0-54.1-3-72.1,21c-18,24-111.8,159-204,135
					C768.2,636.2,824.5,525.2,824.5,525.2z"/>
				<path fill="#A5A251" d="M415.5,525.2l-312.2-42v21c0,0,54.1-3,72.1,21c18,24,111.8,159,204,135
					C471.8,636.2,415.5,525.2,415.5,525.2z"/>
			</g>
			<path fill="#5F5C3D" d="M862.4,636.2c0,0-28.7-63,27.6-81c56.4-18,218.5-52.1,218.5-52.1s-132.9,45.8-126.7,77.7
				C988,612.8,901.4,666.2,862.4,636.2z"/>
			<path fill="#5F5C3D" d="M365.9,636.2c0,0,28.7-63-27.6-81c-56.4-18-218.5-52.1-218.5-52.1s132.9,45.8,126.7,77.7
				C240.3,612.8,326.9,666.2,365.9,636.2z"/>
			<g>
				
					<line fill="none" stroke="#5F5C3D" stroke-width="2.8346" stroke-miterlimit="10" x1="762.5" y1="518.7" x2="477.5" y2="518.7"/>
				
					<line fill="none" stroke="#5F5C3D" stroke-width="2.8346" stroke-miterlimit="10" x1="762.5" y1="566.7" x2="477.5" y2="566.7"/>
				
					<line fill="none" stroke="#5F5C3D" stroke-width="2.8346" stroke-miterlimit="10" x1="762.5" y1="538.6" x2="477.5" y2="538.6"/>
			</g>
			<path fill="#5F5C3D" d="M847.2,677.4v56.2c0,16.9-37.1,30.7-82.5,30.7c-45.4,0-82.5-13.8-82.5-30.7v20.9
				c0,12.6-27.7,22.9-61.5,22.9s-61.5-10.3-61.5-22.9v-20.9c0,16.9-37.1,30.7-82.5,30.7c-45.4,0-82.5-13.8-82.5-30.7v-56.2h-37.8
				C381.8,774.2,490.5,847,620.7,847c130.2,0,238.9-72.8,264.4-169.6H847.2z"/>
		</g>
	</g>
	<path fill="#273E7A" d="M683.3,70.9H551.2c-3.3,0-6,2.7-6,6v181.2c0,3.3,2.7,6,6,6h132.1c3.3,0,6-2.7,6-6V76.9
		C689.3,73.6,686.6,70.9,683.3,70.9z"/>
	<g>
		<rect x="561" y="85.9" fill="#A9B2CA" width="112.4" height="30.1"/>
		<rect x="561" y="185.7" fill="#9ADCF8" width="112.4" height="0.9"/>
	</g>
	<g>
		<rect x="561" y="132.1" fill="#FFFFFF" width="101.7" height="6.3"/>
		<g>
			<rect x="561" y="143.6" fill="#FFFFFF" width="55" height="6.3"/>
			<rect x="561" y="155.1" fill="#FFFFFF" width="72" height="6.3"/>
		</g>
	</g>
</g>
</svg>
