<?xml version="1.0" encoding="utf-8"?>
<!-- Generator: Adobe Illustrator 18.1.1, SVG Export Plug-In . SVG Version: 6.00 Build 0)  -->
<svg version="1.0" xmlns="http://www.w3.org/2000/svg" xmlns:xlink="http://www.w3.org/1999/xlink" x="0px" y="0px"
	 viewBox="0 0 1215.1 1215.1" enable-background="new 0 0 1215.1 1215.1" xml:space="preserve">
<g id="Layer_3">
</g>
<g id="Layer_2">
	<g>
		<g>
			<defs>
				<circle id="SVGID_33_" cx="607.6" cy="-820.2" r="607.6"/>
			</defs>
			<clipPath id="SVGID_2_">
				<use xlink:href="#SVGID_33_"  overflow="visible"/>
			</clipPath>
			<polygon clip-path="url(#SVGID_2_)" fill="#C7C7C7" points="378.2,-1028.5 617.9,-788.8 752.8,-913.2 854.4,-811.5 
				1121.8,-1003.5 1566.1,-559.2 811.1,195.7 653.5,-105.8 125.7,-633.6 			"/>
		</g>
	</g>
	<g>
		<g>
			<defs>
				<circle id="SVGID_43_" cx="607.6" cy="-821" r="607.6"/>
			</defs>
			<clipPath id="SVGID_4_">
				<use xlink:href="#SVGID_43_"  overflow="visible"/>
			</clipPath>
			<polygon clip-path="url(#SVGID_4_)" fill="#C7C7C7" points="45.5,-645.2 700.6,9.9 1371.4,-547.5 1271.3,-647.7 1271.3,-727.8 
				1247.4,-727.8 1270.4,-751.8 935.2,-1087 			"/>
		</g>
	</g>
	<g>
		<g>
			<defs>
				<circle id="SVGID_57_" cx="605.5" cy="-822.7" r="607.6"/>
			</defs>
			<clipPath id="SVGID_6_">
				<use xlink:href="#SVGID_57_"  overflow="visible"/>
			</clipPath>
			<polygon clip-path="url(#SVGID_6_)" fill="#78ACC2" points="771.2,-1220.6 1363.7,-628.1 969.9,-234.2 615.6,120 615.6,-1158.8 
							"/>
		</g>
		<g>
			<defs>
				<circle id="SVGID_59_" cx="609.6" cy="-819.4" r="607.6"/>
			</defs>
			<clipPath id="SVGID_8_">
				<use xlink:href="#SVGID_59_"  overflow="visible"/>
			</clipPath>
			<g clip-path="url(#SVGID_8_)">
				<path fill="#3D3D3D" d="M754.8-710.2c0,0-54.6,5.7-129.9,1.6v-1.6c-4,0.3-7.9,0.6-11.8,0.9c-3.9-0.3-7.8-0.5-11.8-0.9v1.6
					c-75.4,4.1-129.9-1.6-129.9-1.6L50.5-487.8l257.4,808.4h293.3h23.7h293.3l257.4-808.4L754.8-710.2z"/>
				<path fill="#898989" d="M843.4-622.8c0,0-42.4,75.4-232.5,76c-190.1-0.6-232.5-76-232.5-76l-89.5,36l256,839.5l60.2-16.5
					l5.7-569.9l5.7,569.9l60.2,16.5l256-839.5L843.4-622.8z"/>
			</g>
		</g>
	</g>
	<g>
		<circle fill="#9ADCF8" cx="607.6" cy="608.3" r="607.6"/>
		<circle fill="#9ADCF8" cx="607.6" cy="606.8" r="607.6"/>
		<g>
			<defs>
				<circle id="SVGID_63_" cx="607.6" cy="608.3" r="607.6"/>
			</defs>
			<clipPath id="SVGID_10_">
				<use xlink:href="#SVGID_63_"  overflow="visible"/>
			</clipPath>
			<polygon clip-path="url(#SVGID_10_)" fill="#C7C7C7" points="378.2,400.1 617.9,639.8 752.8,515.4 854.4,617.1 1121.8,425 
				1566.1,869.3 811.1,1624.3 653.5,1322.8 125.7,795 			"/>
		</g>
		<path fill="none" stroke="#5E3810" stroke-width="73.7008" stroke-miterlimit="10" d="M93.3,623.8c0,0,309.9-36,520.3-34
			c186.3,1.7,508.2,34,508.2,34"/>
		<g>
			<defs>
				<circle id="SVGID_65_" cx="607.6" cy="608.3" r="607.6"/>
			</defs>
			<clipPath id="SVGID_12_">
				<use xlink:href="#SVGID_65_"  overflow="visible"/>
			</clipPath>
			<g clip-path="url(#SVGID_12_)">
				<rect x="542.3" y="774.1" fill="#B78A4F" width="152.4" height="488.2"/>
				<path fill="#B78A4F" d="M743,810.8H494c-6.6,0-12-5.4-12-12V525.7c0-6.6,5.4-12,12-12h249c6.6,0,12,5.4,12,12v273.1
					C755,805.4,749.6,810.8,743,810.8z"/>
				<g>
					<path fill="#EF5C4C" d="M1116.3,418.5l-272.9-23.9c-3.3-0.3-6.2,2.2-6.5,5.5l-32.4,370c-0.3,3.3,2.2,6.2,5.5,6.5l272.9,23.9
						c3.3,0.3,6.2-2.2,6.5-5.5l32.4-370C1122.1,421.7,1119.6,418.8,1116.3,418.5z"/>
					<g>
						
							<rect x="863.1" y="436.2" transform="matrix(0.9962 8.715574e-002 -8.715574e-002 0.9962 44.329 -83.1734)" fill="#F9BEB8" width="223.1" height="59.7"/>
						
							<rect x="848.4" y="633.5" transform="matrix(0.9962 8.715574e-002 -8.715574e-002 0.9962 58.9437 -81.2493)" fill="#9ADCF8" width="223.1" height="1.7"/>
					</g>
					<g>
						
							<rect x="857.2" y="526.6" transform="matrix(0.9962 8.715574e-002 -8.715574e-002 0.9962 50.0931 -81.48)" fill="#FFFFFF" width="201.9" height="12.6"/>
						<g>
							
								<rect x="855.4" y="545.3" transform="matrix(0.9962 8.715574e-002 -8.715574e-002 0.9962 51.5356 -77.2123)" fill="#FFFFFF" width="109.2" height="12.6"/>
							
								<rect x="853.4" y="569.5" transform="matrix(0.9962 8.715574e-002 -8.715574e-002 0.9962 53.6981 -78.4136)" fill="#FFFFFF" width="143" height="12.6"/>
						</g>
					</g>
				</g>
				<g>
					<path fill="#EF5C4C" d="M371.7,394.6L98.8,418.5c-3.3,0.3-5.7,3.2-5.5,6.5l32.4,370c0.3,3.3,3.2,5.7,6.5,5.5l272.9-23.9
						c3.3-0.3,5.7-3.2,5.5-6.5l-32.4-370C377.9,396.8,375,394.4,371.7,394.6z"/>
					<g>
						
							<rect x="128.9" y="436.2" transform="matrix(0.9962 -8.715574e-002 8.715574e-002 0.9962 -39.7051 22.7314)" fill="#F9BEB8" width="223.1" height="59.7"/>
						
							<rect x="143.6" y="633.5" transform="matrix(0.9962 -8.715574e-002 8.715574e-002 0.9962 -54.3198 24.6555)" fill="#9ADCF8" width="223.1" height="1.7"/>
					</g>
					<g>
						
							<rect x="134.9" y="528.5" transform="matrix(0.9962 -8.715574e-002 8.715574e-002 0.9962 -45.711 22.5876)" fill="#FFFFFF" width="201.9" height="12.6"/>
						<g>
							
								<rect x="137" y="555.2" transform="matrix(0.9962 -8.715574e-002 8.715574e-002 0.9962 -48.209 18.8386)" fill="#FFFFFF" width="109.2" height="12.6"/>
							
								<rect x="139" y="576.4" transform="matrix(0.9962 -8.715574e-002 8.715574e-002 0.9962 -49.9869 20.5587)" fill="#FFFFFF" width="143" height="12.6"/>
						</g>
					</g>
				</g>
				<path fill="#B78A4F" d="M541.9,711.9H505c-6.6,0-12-5.4-12-12V535.7c0-6.6,5.4-12,12-12h36.9c6.6,0,12,5.4,12,12v164.2
					C553.9,706.5,548.5,711.9,541.9,711.9z"/>
				<path fill="#B78A4F" d="M612.6,711.9h-36.9c-6.6,0-12-5.4-12-12V535.7c0-6.6,5.4-12,12-12h36.9c6.6,0,12,5.4,12,12v164.2
					C624.6,706.5,619.2,711.9,612.6,711.9z"/>
				<path fill="#B78A4F" d="M682.8,711.9h-36.9c-6.6,0-12-5.4-12-12V535.7c0-6.6,5.4-12,12-12h36.9c6.6,0,12,5.4,12,12v164.2
					C694.8,706.5,689.4,711.9,682.8,711.9z"/>
				<path fill="#B78A4F" d="M745.3,711.9h-37.2c-6.6,0-12-5.4-12-12V534.7c0-6.6,5.4-12,12-12h37.2c6.6,0,12,5.4,12,12v165.2
					C757.3,706.5,751.9,711.9,745.3,711.9z"/>
				<path fill="#D3A86A" d="M521,701.8h-37.2c-6.6,0-12-5.4-12-12V524.7c0-6.6,5.4-12,12-12H521c6.6,0,12,5.4,12,12v165.2
					C533,696.4,527.6,701.8,521,701.8z"/>
				<path fill="#D3A86A" d="M601.6,701.9h-46.7c-6.6,0-12-5.4-12-12v-179c0-6.6,5.4-12,12-12h46.7c6.6,0,12,5.4,12,12v179
					C613.6,696.5,608.2,701.9,601.6,701.9z"/>
				<path fill="#D3A86A" d="M673,701.8h-47.6c-6.6,0-12-5.4-12-12V517.5c0-6.6,5.4-12,12-12H673c6.6,0,12,5.4,12,12v172.3
					C685,696.4,679.6,701.8,673,701.8z"/>
				<path fill="#D3A86A" d="M734.2,701.8H697c-6.6,0-12-5.4-12-12V524.7c0-6.6,5.4-12,12-12h37.2c6.6,0,12,5.4,12,12v165.2
					C746.2,696.4,740.8,701.8,734.2,701.8z"/>
				<path fill="#B78A4F" d="M453.8,725.5l-6.8-36.3c-1.2-6.5,3.1-12.8,9.6-14L618,645.2c6.5-1.2,12.8,3.1,14,9.6l6.8,36.3
					c1.2,6.5-3.1,12.8-9.6,14l-161.4,30.1C461.3,736.3,455,732,453.8,725.5z"/>
				<polygon fill="#D3A86A" points="482,804.5 439,720.8 527,679.8 				"/>
				<path fill="#D3A86A" d="M437.9,715.1l-6.8-36.3c-1.2-6.5,3.1-12.8,9.6-14l161.4-30.1c6.5-1.2,12.8,3.1,14,9.6l6.8,36.3
					c1.2,6.5-3.1,12.8-9.6,14l-161.4,30.1C445.4,726,439.1,721.6,437.9,715.1z"/>
			</g>
		</g>
	</g>
	<g>
		<circle fill="#9ADCF8" cx="607.6" cy="607.6" r="607.6"/>
		<g>
			<defs>
				<circle id="SVGID_67_" cx="607.6" cy="607.6" r="607.6"/>
			</defs>
			<clipPath id="SVGID_13_">
				<use xlink:href="#SVGID_67_"  overflow="visible"/>
			</clipPath>
			<polygon clip-path="url(#SVGID_13_)" fill="#C7C7C7" points="207.6,357.8 614.2,764.4 614.2,1112.9 1322.9,1112.9 1322.9,503.4 
				1215.1,503.4 1107.4,358.5 863,191.5 565.1,199.5 750.1,384.4 264,384.4 			"/>
		</g>
		<g>
			<defs>
				<circle id="SVGID_69_" cx="607.6" cy="607.6" r="607.6"/>
			</defs>
			<clipPath id="SVGID_14_">
				<use xlink:href="#SVGID_69_"  overflow="visible"/>
			</clipPath>
			<rect x="16.4" y="973" clip-path="url(#SVGID_14_)" fill="#EF5C4C" width="1224" height="317.7"/>
		</g>
		<circle fill="none" cx="607.6" cy="607.6" r="607.6"/>
		<path fill="#7C7C74" d="M463,639.3"/>
		<path fill="#00A7ED" d="M428.5,376.8l-64.9,80.5c-0.4,0.5-0.3,1.2,0.2,1.6l108.5,87.6c0.5,0.4,1.2,0.3,1.6-0.2l64.9-80.5
			c0.4-0.5,0.3-1.2-0.2-1.6l-108.5-87.6C429.6,376.2,428.9,376.3,428.5,376.8z"/>
		
			<rect x="371.9" y="419.9" transform="matrix(0.6281 -0.7781 0.7781 0.6281 -181.6445 481.769)" fill="#9ADCF8" width="82.5" height="22.1"/>
		
			<rect x="420.6" y="469.8" transform="matrix(0.6281 -0.7781 0.7781 0.6281 -194.0991 534.1898)" fill="#9ADCF8" width="82.5" height="0.6"/>
		
			<rect x="393" y="447.4" transform="matrix(0.6281 -0.7781 0.7781 0.6281 -189.9545 502.095)" fill="#FFFFFF" width="74.6" height="4.6"/>
		<g>
			
				<rect x="405.9" y="466.1" transform="matrix(0.6281 -0.7781 0.7781 0.6281 -206.0109 505.746)" fill="#FFFFFF" width="40.4" height="4.6"/>
			
				<rect x="410.1" y="466.5" transform="matrix(0.6281 -0.7781 0.7781 0.6281 -202.4506 514.0576)" fill="#FFFFFF" width="52.9" height="4.6"/>
		</g>
		
			<line fill="none" stroke="#FFFFFF" stroke-width="12" stroke-linecap="round" stroke-linejoin="round" stroke-miterlimit="10" x1="875.7" y1="144.7" x2="803" y2="412.7"/>
		<path fill="#FFE35B" d="M870.8,161.3l-305.7,38.2c0,0,62,3,104.8,15.5c42.8,12.5,68.1,36.3,68.1,36.3s47.8-9.3,104.2,7.2
			s97.5,50.8,97.5,50.8s29.5-6.4,64.9,3.9c35.3,10.4,102.8,45.2,102.8,45.2L870.8,161.3z"/>
		<path fill="#EF5C4C" d="M553.1,356.5l-101.1,21.8c-0.6,0.1-1,0.8-0.9,1.4L480.6,516c0.1,0.6,0.8,1,1.4,0.9l101.1-21.8
			c0.6-0.1,1-0.8,0.9-1.4l-29.4-136.3C554.4,356.8,553.8,356.4,553.1,356.5z"/>
		
			<rect x="466" y="378" transform="matrix(0.9774 -0.2112 0.2112 0.9774 -70.7203 115.9159)" fill="#F9BEB8" width="82.5" height="22.1"/>
		
			<rect x="479.2" y="449.8" transform="matrix(0.9774 -0.2112 0.2112 0.9774 -83.32 120.0804)" fill="#9ADCF8" width="82.5" height="0.6"/>
		
			<rect x="471.4" y="412.1" transform="matrix(0.9774 -0.2112 0.2112 0.9774 -76.0556 116.8009)" fill="#FFFFFF" width="74.6" height="4.6"/>
		<g>
			
				<rect x="473.6" y="424" transform="matrix(0.9774 -0.2112 0.2112 0.9774 -78.8964 113.9066)" fill="#FFFFFF" width="40.4" height="4.6"/>
			
				<rect x="475.2" y="430.9" transform="matrix(0.9774 -0.2112 0.2112 0.9774 -80.1788 115.7273)" fill="#FFFFFF" width="52.9" height="4.6"/>
		</g>
		<path fill="#273E7A" d="M911,420.8l-59.9-84.3c-0.4-0.5-1.1-0.6-1.6-0.3l-113.6,80.8c-0.5,0.4-0.6,1.1-0.3,1.6l59.9,84.3
			c0.4,0.5,1.1,0.6,1.6,0.3l113.6-80.8C911.2,422.1,911.4,421.3,911,420.8z"/>
		
			<rect x="821.8" y="380.4" transform="matrix(0.5794 0.815 -0.815 0.5794 682.0457 -538.7541)" fill="#A9B2CA" width="82.5" height="22.1"/>
		
			<rect x="770.9" y="427.4" transform="matrix(0.5794 0.815 -0.815 0.5794 690.1331 -482.0298)" fill="#9ADCF8" width="82.5" height="0.6"/>
		
			<rect x="802.9" y="400.5" transform="matrix(0.5794 0.815 -0.815 0.5794 681.737 -515.4039)" fill="#FFFFFF" width="74.6" height="4.6"/>
		<g>
			
				<rect x="803.3" y="391.4" transform="matrix(0.5794 0.815 -0.815 0.5794 667.2695 -505.5389)" fill="#FFFFFF" width="40.4" height="4.6"/>
			
				<rect x="793.8" y="401.4" transform="matrix(0.5794 0.815 -0.815 0.5794 674.0291 -498.7003)" fill="#FFFFFF" width="52.9" height="4.6"/>
		</g>
		<path fill="#273E7A" d="M668.5,392.1l-101.7-18.8c-0.6-0.1-1.2,0.3-1.4,0.9l-25.3,137.1c-0.1,0.6,0.3,1.2,0.9,1.4l101.7,18.8
			c0.6,0.1,1.2-0.3,1.4-0.9l25.3-137.1C669.6,392.9,669.2,392.3,668.5,392.1z"/>
		
			<rect x="572.4" y="393.4" transform="matrix(0.9833 0.1818 -0.1818 0.9833 83.7572 -104.8259)" fill="#A9B2CA" width="82.5" height="22.1"/>
		
			<rect x="561.1" y="465.6" transform="matrix(0.9833 0.1818 -0.1818 0.9833 94.7365 -101.7373)" fill="#9ADCF8" width="82.5" height="0.6"/>
		
			<rect x="567.9" y="426.2" transform="matrix(0.9833 0.1818 -0.1818 0.9833 87.9843 -102.8921)" fill="#FFFFFF" width="74.6" height="4.6"/>
		<g>
			
				<rect x="566.7" y="431.3" transform="matrix(0.9833 0.1818 -0.1818 0.9833 88.6172 -99.4645)" fill="#FFFFFF" width="40.4" height="4.6"/>
			
				<rect x="565" y="440.7" transform="matrix(0.9833 0.1818 -0.1818 0.9833 90.4061 -100.1454)" fill="#FFFFFF" width="52.9" height="4.6"/>
		</g>
		<path fill="#00A7ED" d="M615.5,386.6L516,358.5c-0.6-0.2-1.3,0.2-1.4,0.8l-37.9,134.2c-0.2,0.6,0.2,1.3,0.8,1.4L577,523
			c0.6,0.2,1.3-0.2,1.4-0.8L616.3,388C616.5,387.4,616.1,386.8,615.5,386.6z"/>
		
			<rect x="518.5" y="382.8" transform="matrix(0.9624 0.2715 -0.2715 0.9624 127.9492 -137.1881)" fill="#9ADCF8" width="82.5" height="22.1"/>
		
			<rect x="501.5" y="453.6" transform="matrix(0.9624 0.2715 -0.2715 0.9624 143.6373 -130.3238)" fill="#9ADCF8" width="82.5" height="0.6"/>
		
			<rect x="511.8" y="414.6" transform="matrix(0.9624 0.2715 -0.2715 0.9624 133.8351 -133.4379)" fill="#FFFFFF" width="74.6" height="4.6"/>
		<g>
			
				<rect x="510.2" y="418.1" transform="matrix(0.9624 0.2715 -0.2715 0.9624 134.0673 -128.2098)" fill="#FFFFFF" width="40.4" height="4.6"/>
			
				<rect x="507.7" y="427.9" transform="matrix(0.9624 0.2715 -0.2715 0.9624 136.8683 -128.8524)" fill="#FFFFFF" width="52.9" height="4.6"/>
		</g>
		<path fill="#00A7ED" d="M653.8,384.4l-36.5,96.7c-0.2,0.6,0.1,1.3,0.7,1.5l130.4,49.2c0.6,0.2,1.3-0.1,1.5-0.7l36.5-96.7
			c0.2-0.6-0.1-1.3-0.7-1.5l-130.4-49.2C654.7,383.5,654.1,383.8,653.8,384.4z"/>
		
			<rect x="615" y="429.5" transform="matrix(0.3532 -0.9355 0.9355 0.3532 12.241 898.8651)" fill="#9ADCF8" width="82.5" height="22.1"/>
		
			<rect x="673.4" y="462.3" transform="matrix(0.3532 -0.9355 0.9355 0.3532 29.3967 967.8163)" fill="#9ADCF8" width="82.5" height="0.6"/>
		
			<rect x="641" y="450.8" transform="matrix(0.3532 -0.9355 0.9355 0.3532 14.8151 927.7086)" fill="#FFFFFF" width="74.6" height="4.6"/>
		<g>
			
				<rect x="660" y="469.8" transform="matrix(0.3532 -0.9355 0.9355 0.3532 -1.7832 941.7092)" fill="#FFFFFF" width="40.4" height="4.6"/>
			
				<rect x="663.8" y="467" transform="matrix(0.3532 -0.9355 0.9355 0.3532 7.4212 949.2897)" fill="#FFFFFF" width="52.9" height="4.6"/>
		</g>
		<path fill="#EF5C4C" d="M761.2,554l-0.1-103.4c0-0.6-0.5-1.2-1.2-1.2l-139.4,0.1c-0.6,0-1.2,0.5-1.2,1.2l0.1,103.4
			c0,0.6,0.5,1.2,1.2,1.2l139.4-0.1C760.6,555.2,761.2,554.7,761.2,554z"/>
		
			<rect x="697.8" y="491.3" transform="matrix(9.637632e-004 1 -1 9.637632e-004 1240.6609 -237.178)" fill="#F9BEB8" width="82.5" height="22.1"/>
		
			<rect x="635.3" y="502.1" transform="matrix(9.637632e-004 1 -1 9.637632e-004 1178.3073 -174.6441)" fill="#9ADCF8" width="82.5" height="0.6"/>
		
			<rect x="676.6" y="496.1" transform="matrix(9.637632e-004 1 -1 9.637632e-004 1211.6219 -215.9157)" fill="#FFFFFF" width="74.6" height="4.6"/>
		<g>
			
				<rect x="685.3" y="479" transform="matrix(9.637632e-004 1 -1 9.637632e-004 1186.0651 -224.5872)" fill="#FFFFFF" width="40.4" height="4.6"/>
			
				<rect x="670.6" y="485.2" transform="matrix(9.637632e-004 1 -1 9.637632e-004 1183.9092 -209.9252)" fill="#FFFFFF" width="52.9" height="4.6"/>
		</g>
		<path fill="#EF5C4C" d="M527,462.2l-57.5,85.9c-0.4,0.5-0.2,1.3,0.3,1.6l115.9,77.5c0.5,0.4,1.3,0.2,1.6-0.3l57.5-85.9
			c0.4-0.5,0.2-1.3-0.3-1.6l-115.9-77.5C528.1,461.5,527.3,461.7,527,462.2z"/>
		
			<rect x="475.3" y="506.4" transform="matrix(0.5562 -0.831 0.831 0.5562 -200.7603 658.9333)" fill="#F9BEB8" width="82.5" height="22.1"/>
		
			<rect x="527.2" y="551.9" transform="matrix(0.5562 -0.831 0.831 0.5562 -206.5962 717.5012)" fill="#9ADCF8" width="82.5" height="0.6"/>
		
			<rect x="498" y="532.4" transform="matrix(0.5562 -0.831 0.831 0.5562 -206.7913 682.1506)" fill="#FFFFFF" width="74.6" height="4.6"/>
		<g>
			
				<rect x="512.6" y="551.3" transform="matrix(0.5562 -0.831 0.831 0.5562 -223.6416 688.4455)" fill="#FFFFFF" width="40.4" height="4.6"/>
			
				<rect x="516.8" y="550.8" transform="matrix(0.5562 -0.831 0.831 0.5562 -218.5745 696.9243)" fill="#FFFFFF" width="52.9" height="4.6"/>
		</g>
		<path fill="#273E7A" d="M629,474.1l-94.3,42.4c-0.6,0.3-0.8,1-0.6,1.5l57.2,127.2c0.3,0.6,1,0.8,1.5,0.6l94.3-42.4
			c0.6-0.3,0.8-1,0.6-1.5l-57.2-127.2C630.2,474.1,629.6,473.8,629,474.1z"/>
		
			<rect x="549.6" y="504.4" transform="matrix(0.912 -0.4102 0.4102 0.912 -159.4262 287.7165)" fill="#A9B2CA" width="82.5" height="22.1"/>
		
			<rect x="575.3" y="572.1" transform="matrix(0.912 -0.4102 0.4102 0.912 -180.5417 303.2409)" fill="#9ADCF8" width="82.5" height="0.6"/>
		
			<rect x="560.3" y="537.7" transform="matrix(0.912 -0.4102 0.4102 0.912 -168.9049 292.6407)" fill="#FFFFFF" width="74.6" height="4.6"/>
		<g>
			
				<rect x="565.3" y="552.4" transform="matrix(0.912 -0.4102 0.4102 0.912 -176.0092 288.9422)" fill="#FFFFFF" width="40.4" height="4.6"/>
			
				<rect x="568.2" y="557.5" transform="matrix(0.912 -0.4102 0.4102 0.912 -177.3041 293.1454)" fill="#FFFFFF" width="52.9" height="4.6"/>
		</g>
		
			<line fill="none" stroke="#FFFFFF" stroke-width="12" stroke-linecap="round" stroke-linejoin="round" stroke-miterlimit="10" x1="730.4" y1="256.9" x2="859.7" y2="162.7"/>
		
			<polyline fill="none" stroke="#FFFFFF" stroke-width="12" stroke-linecap="round" stroke-linejoin="round" stroke-miterlimit="10" points="
			1107.4,358.5 870.8,161.3 565.1,199.5 870.8,161.3 		"/>
		
			<line fill="none" stroke="#FFFFFF" stroke-width="12" stroke-linecap="round" stroke-linejoin="round" stroke-miterlimit="10" x1="937.3" y1="317.6" x2="879.4" y2="168.5"/>
		<polygon opacity="0.61" fill="#FFE35B" points="264,384.4 975.9,384.4 623.2,699.9 		"/>
		<path fill="#FFFFFF" d="M679.9,676.8l338.5-319H994L658,638.7c-26,21.8-63.9,21.8-90,0L232.1,357.8h-24.5l342.3,322.6
			c22,20.8,34.5,49.7,34.5,80v73.8c0,38.4-22.2,73.3-57,89.5L421.9,973h189.6h3h182.4l-109.8-53.7c-27.8-13.6-45.5-41.9-45.5-72.9
			v-80.8C641.6,732,655.5,699.9,679.9,676.8z"/>
	</g>
	<g>
		<circle fill="#9ADCF8" cx="607.6" cy="607.6" r="607.6"/>
		<g>
			<defs>
				<circle id="SVGID_71_" cx="607.6" cy="607.6" r="607.6"/>
			</defs>
			<clipPath id="SVGID_16_">
				<use xlink:href="#SVGID_71_"  overflow="visible"/>
			</clipPath>
			<rect x="16.4" y="834.8" clip-path="url(#SVGID_16_)" fill="#EF5C4C" width="1224" height="456"/>
		</g>
		<circle fill="none" cx="607.6" cy="607.6" r="607.6"/>
		<g>
			<defs>
				<circle id="SVGID_73_" cx="607.6" cy="607.6" r="607.6"/>
			</defs>
			<clipPath id="SVGID_18_">
				<use xlink:href="#SVGID_73_"  overflow="visible"/>
			</clipPath>
			<polygon clip-path="url(#SVGID_18_)" fill="#C7C7C7" points="45.5,783.4 700.6,1438.5 1371.4,881 1271.3,780.9 1271.3,700.8 
				1247.4,700.8 1270.4,676.8 935.2,341.6 			"/>
		</g>
		<path fill="#7C7C74" d="M474,639.3"/>
		<g>
			<defs>
				<circle id="SVGID_75_" cx="607.6" cy="607.6" r="607.6"/>
			</defs>
			<clipPath id="SVGID_20_">
				<use xlink:href="#SVGID_75_"  overflow="visible"/>
			</clipPath>
			<g clip-path="url(#SVGID_20_)">
				<g>
					<g>
						
							<rect x="553.6" y="-11.5" transform="matrix(0.7071 0.7071 -0.7071 0.7071 185.3341 -455.9092)" fill="none" width="178.8" height="14.5"/>
					</g>
					<g>
						
							<rect x="641.2" y="-97.1" transform="matrix(0.7071 0.7071 -0.7071 0.7071 187.5912 -459.5274)" fill="none" width="14.5" height="187.5"/>
					</g>
					<circle fill="none" cx="645.1" cy="-2.1" r="44.2"/>
					<path fill="none" d="M1117.6,485.2l-86.5-86.5h-43L842,252.6l-8.7,8.7l-52.2-52.2l22.9-22.9L697.8,79.9h-50.4
						c0,0-83.1-2.3-83.1-83.1s84-84,84-84s72.4,1.6,72.4,83.9h20.2c0,0-9.2-62.2-33-82.4l12.8-45.3H544.8v263.2
						c0,0,9.4,53.9,91.7,84.6l25.4,25.4l83.5-13.9l47.6,47.6l62.5,41.4l4.4,2.9v315.4l284,18.6V502.3L1117.6,485.2z"/>
					<polygon fill="none" points="640.6,106.9 732.1,15.5 764.6,48 658.3,154.3 					"/>
				</g>
				<g>
					<path fill="#171919" d="M267.5,833.2h-67.6c-6.6,0-12-5.4-12-12V760c0-6.6,5.4-12,12-12h67.6c6.6,0,12,5.4,12,12v61.2
						C279.5,827.8,274.1,833.2,267.5,833.2z"/>
					<path fill="#171919" d="M1006.4,833.2h-67.6c-6.6,0-12-5.4-12-12V760c0-6.6,5.4-12,12-12h67.6c6.6,0,12,5.4,12,12v61.2
						C1018.4,827.8,1013,833.2,1006.4,833.2z"/>
				</g>
				<path fill="#3D3D3D" d="M1130.9,595.5H1021c0,0-59.1,6.5-68.7-88.3c-9.6-94.8-19.2-170.4-19.2-170.4H722.2H511.3
					c0,0-9.6,75.6-19.2,170.4c-5.1,50.6-24.4,72.4-41.2,81.6v-1.9V402.8H94.3v166.2L60,603.4v102.4l-14.4,14.4v63.2h24.7l15.1-15.1
					c22.2,6.4,76,17.9,174.5,17.9c136,0,730.9,0,730.9,0s112.1-1.4,167.6-22V603.4h-5.5L1130.9,595.5z"/>
				<path fill="#FFFFFF" stroke="#00FFFF" stroke-width="34" stroke-miterlimit="10" d="M844.6,683.7c-82.5,11.7-165,11.7-247.5,0
					c-8.6-1.3-17.3-9.4-19-18c-13.2-67.6-13.2-135.2,0-202.7c1.7-8.6,10.4-16.8,19-18c82.5-11.7,165-11.7,247.5,0
					c8.6,1.3,17.3,9.4,19,18c13.2,67.6,13.2,135.2,0,202.7C861.8,674.3,853.2,682.4,844.6,683.7z"/>
				<path fill="#D3D5D6" stroke="#A9ABAE" stroke-width="18" stroke-miterlimit="10" d="M844.6,683.7c-82.5,11.7-165,11.7-247.5,0
					c-8.6-1.3-17.3-9.4-19-18c-13.2-67.6-13.2-135.2,0-202.7c1.7-8.6,10.4-16.8,19-18c82.5-11.7,165-11.7,247.5,0
					c8.6,1.3,17.3,9.4,19,18c13.2,67.6,13.2,135.2,0,202.7C861.8,674.3,853.2,682.4,844.6,683.7z"/>
				<rect x="590" y="353.2" fill="none" stroke="#969696" stroke-width="4" stroke-miterlimit="10" width="70" height="25.3"/>
				<rect x="664.7" y="353.2" fill="none" stroke="#969696" stroke-width="4" stroke-miterlimit="10" width="186.9" height="25.3"/>
				<g>
					<rect x="672.5" y="362.1" fill="#FFFFFF" width="4.6" height="7.3"/>
					<rect x="681.8" y="362.1" fill="#FFFFFF" width="4.6" height="7.3"/>
					<rect x="691" y="362.1" fill="#FFFFFF" width="4.6" height="7.3"/>
					<rect x="700.3" y="362.1" fill="#FFFFFF" width="4.6" height="7.3"/>
					<rect x="709.6" y="362.1" fill="#FFFFFF" width="4.6" height="7.3"/>
					<rect x="718.9" y="362.1" fill="#FFFFFF" width="4.6" height="7.3"/>
					<rect x="728.1" y="362.1" fill="#FFFFFF" width="4.6" height="7.3"/>
					<rect x="737.4" y="362.1" fill="#FFFFFF" width="4.6" height="7.3"/>
					<rect x="746.7" y="362.1" fill="#FFFFFF" width="4.6" height="7.3"/>
					<rect x="755.9" y="362.1" fill="#FFFFFF" width="4.6" height="7.3"/>
				</g>
				<g>
					<circle fill="#3D3D3D" cx="720.7" cy="565.2" r="104.1"/>
					<path fill="#969696" d="M745.2,567.6c40.8-0.6,70.9-2.4,70.9-2.4s-30.1-1.8-70.9-2.4c39.9-8.5,69.1-16.2,69.1-16.2
						s-29.9,4.1-70,11.5c37.5-16.2,64.6-29.4,64.6-29.4s-28.5,9.8-66.4,24.9c33.6-23.2,57.6-41.4,57.6-41.4s-26,15.2-60.3,37.4
						c28.5-29.3,48.4-51.9,48.4-51.9s-22.6,20-51.9,48.4c22.2-34.3,37.4-60.3,37.4-60.3s-18.2,24-41.4,57.6
						c15.1-37.9,24.9-66.4,24.9-66.4s-13.2,27.1-29.4,64.6c7.4-40.2,11.5-70,11.5-70s-7.7,29.2-16.2,69.1
						c-0.6-40.8-2.4-70.9-2.4-70.9s-1.8,30.1-2.4,70.9c-8.5-39.9-16.2-69.1-16.2-69.1s4.1,29.9,11.5,70
						c-16.2-37.5-29.4-64.6-29.4-64.6s9.8,28.5,24.9,66.4c-23.2-33.6-41.4-57.6-41.4-57.6s15.2,26,37.4,60.3
						c-29.3-28.5-51.9-48.4-51.9-48.4s20,22.6,48.4,51.9c-34.3-22.2-60.3-37.4-60.3-37.4s24,18.2,57.6,41.4
						c-37.9-15.1-66.4-24.9-66.4-24.9s27.1,13.2,64.6,29.4c-40.2-7.4-70-11.5-70-11.5s29.2,7.7,69.1,16.2
						c-40.8,0.6-70.9,2.4-70.9,2.4s30.1,1.8,70.9,2.4c-39.9,8.5-69.1,16.2-69.1,16.2s29.9-4.1,70-11.5
						c-37.5,16.2-64.6,29.4-64.6,29.4s28.5-9.8,66.4-24.9c-33.6,23.2-57.6,41.4-57.6,41.4s26-15.2,60.3-37.4
						c-28.5,29.3-48.4,51.9-48.4,51.9s22.6-20,51.9-48.4c-22.2,34.3-37.4,60.3-37.4,60.3s18.2-24,41.4-57.6
						c-15.1,37.9-24.9,66.4-24.9,66.4s13.2-27.1,29.4-64.6c-7.4,40.2-11.5,70-11.5,70s7.7-29.2,16.2-69.1
						c0.6,40.8,2.4,70.9,2.4,70.9s1.8-30.1,2.4-70.9c8.5,39.9,16.2,69.1,16.2,69.1s-4.1-29.9-11.5-70c16.2,37.5,29.4,64.6,29.4,64.6
						s-9.8-28.5-24.9-66.4c23.2,33.6,41.4,57.6,41.4,57.6s-15.2-26-37.4-60.3c29.3,28.5,51.9,48.4,51.9,48.4s-20-22.6-48.4-51.9
						C774,603,800,618.2,800,618.2s-24-18.2-57.6-41.4c37.9,15.1,66.4,24.9,66.4,24.9s-27.1-13.2-64.6-29.4
						c40.2,7.4,70,11.5,70,11.5S785.1,576.2,745.2,567.6z"/>
					<path fill="#969696" d="M745.3,565.2c40.6-4.6,70.3-9.3,70.3-9.3s-30.1,1.1-70.8,4.5c38.9-12.4,67.2-22.9,67.2-22.9
						s-29.3,7-68.6,18.3c35.7-19.7,61.4-35.5,61.4-35.5s-27.4,12.6-63.7,31.3c31.2-26.3,53.3-46.8,53.3-46.8s-24.4,17.7-56.4,43.1
						c25.5-31.9,43.2-56.3,43.2-56.3s-20.5,22.1-46.9,53.3c18.7-36.3,31.3-63.7,31.3-63.7s-15.8,25.7-35.6,61.4
						c11.3-39.2,18.3-68.6,18.3-68.6s-10.5,28.3-22.9,67.2c3.4-40.7,4.6-70.8,4.6-70.8s-4.8,29.8-9.4,70.3
						c-4.6-40.6-9.3-70.3-9.3-70.3s1.1,30.1,4.5,70.8c-12.4-38.9-22.9-67.2-22.9-67.2s7,29.3,18.3,68.6
						c-19.7-35.7-35.5-61.4-35.5-61.4s12.6,27.4,31.3,63.7c-26.3-31.2-46.8-53.3-46.8-53.3s17.7,24.4,43.1,56.4
						c-31.9-25.5-56.3-43.2-56.3-43.2s22.1,20.5,53.3,46.9c-36.3-18.7-63.7-31.3-63.7-31.3s25.7,15.8,61.4,35.6
						c-39.2-11.3-68.6-18.3-68.6-18.3s28.3,10.5,67.2,22.9c-40.7-3.4-70.8-4.6-70.8-4.6s29.8,4.8,70.3,9.4
						c-40.6,4.6-70.3,9.3-70.3,9.3s30.1-1.1,70.8-4.5c-38.9,12.4-67.2,22.9-67.2,22.9s29.3-7,68.6-18.3
						c-35.7,19.7-61.4,35.5-61.4,35.5s27.4-12.6,63.7-31.3c-31.2,26.3-53.3,46.8-53.3,46.8s24.4-17.7,56.4-43.1
						c-25.5,31.9-43.2,56.3-43.2,56.3s20.5-22.1,46.9-53.3c-18.7,36.3-31.3,63.7-31.3,63.7s15.8-25.7,35.6-61.4
						C700,627.2,693,656.5,693,656.5s10.5-28.3,22.9-67.2c-3.4,40.7-4.6,70.8-4.6,70.8s4.8-29.8,9.4-70.3
						c4.6,40.6,9.3,70.3,9.3,70.3s-1.1-30.1-4.5-70.8c12.4,38.9,22.9,67.2,22.9,67.2s-7-29.3-18.3-68.6
						c19.7,35.7,35.5,61.4,35.5,61.4s-12.6-27.4-31.3-63.7c26.3,31.2,46.8,53.3,46.8,53.3s-17.7-24.4-43.1-56.4
						c31.9,25.5,56.3,43.2,56.3,43.2s-22.1-20.5-53.3-46.9c36.3,18.7,63.7,31.3,63.7,31.3s-25.7-15.8-61.4-35.6
						C782.6,586,812,593,812,593s-28.3-10.5-67.2-22.9c40.7,3.4,70.8,4.6,70.8,4.6S785.8,569.8,745.3,565.2z"/>
					<circle fill="#212121" cx="720.7" cy="565.2" r="58"/>
					<circle fill="#E9E8E8" cx="716.2" cy="536.7" r="17.7"/>
				</g>
				<path fill="#424D51" stroke="#A9ABAE" stroke-width="11" stroke-miterlimit="10" d="M243.4,567.8H138.6c-6.6,0-12-5.4-12-12
					V451.1c0-6.6,5.4-12,12-12h104.7c6.6,0,12,5.4,12,12v104.7C255.4,562.4,250,567.8,243.4,567.8z"/>
				<g>
					<line fill="none" stroke="#A9ABAE" stroke-width="11" stroke-miterlimit="10" x1="148.9" y1="471.1" x2="208.1" y2="471.1"/>
					<line fill="none" stroke="#A9ABAE" stroke-width="11" stroke-miterlimit="10" x1="148.9" y1="490" x2="178.5" y2="490"/>
					<line fill="none" stroke="#A9ABAE" stroke-width="11" stroke-miterlimit="10" x1="148.9" y1="508.8" x2="202.1" y2="508.8"/>
					<line fill="none" stroke="#A9ABAE" stroke-width="11" stroke-miterlimit="10" x1="148.9" y1="527.7" x2="185.8" y2="527.7"/>
				</g>
				<g>
					<path fill="#424D51" stroke="#A9ABAE" stroke-width="11" stroke-miterlimit="10" d="M393.8,567.8H289.1c-6.6,0-12-5.4-12-12
						V451.1c0-6.6,5.4-12,12-12h104.7c6.6,0,12,5.4,12,12v104.7C405.8,562.4,400.4,567.8,393.8,567.8z"/>
					<g>
						<line fill="none" stroke="#A9ABAE" stroke-width="11" stroke-miterlimit="10" x1="300.3" y1="461.6" x2="365.5" y2="461.6"/>
						<line fill="none" stroke="#A9ABAE" stroke-width="11" stroke-miterlimit="10" x1="300.3" y1="480.5" x2="317.4" y2="480.5"/>
						<line fill="none" stroke="#A9ABAE" stroke-width="11" stroke-miterlimit="10" x1="300.3" y1="499.4" x2="317.4" y2="499.4"/>
						<line fill="none" stroke="#A9ABAE" stroke-width="11" stroke-miterlimit="10" x1="300.3" y1="518.3" x2="369.8" y2="518.3"/>
						<line fill="none" stroke="#A9ABAE" stroke-width="11" stroke-miterlimit="10" x1="300.3" y1="537.1" x2="356.9" y2="537.1"/>
					</g>
				</g>
				<g>
					<path fill="#8C9193" d="M740.6,693.8c-55.2,0-107.1-4.8-152.8-13.2c3.5,3.4,8,5.9,12.4,6.6c77,10.9,154,11.6,231,2.2
						C802.4,692.3,772,693.8,740.6,693.8z"/>
					<path fill="#8C9193" d="M740.6,462.2c45,0,87.9,3.2,127,8.9c-0.3-1.6-0.6-3.2-0.9-4.7c-1.7-8.6-10.4-16.8-19-18
						c-82.5-11.7-165-11.7-247.5,0c-8.6,1.3-17.3,9.4-19,18c-0.7,3.6-1.3,7.1-2,10.7C626.9,467.6,682,462.2,740.6,462.2z"/>
				</g>
				<path fill="none" stroke="#A9ABAE" stroke-width="6" stroke-miterlimit="10" d="M1155.5,617.4c-165.6,0-165.6-1.8-202.1-1.8
					c-36.5,0-33.8-50.7-33.8-50.7l-6.8-166.5H531.4c0,0,0,99.6,0,159.5c0,59.9-61.6,53.7-61.6,53.7l-307.5,14.1l-75.7,96.7
					c0,14,0,27.9,0,41.9"/>
				<rect x="934.6" y="651.5" fill="none" stroke="#A9ABAE" stroke-width="4" stroke-miterlimit="10" width="44" height="44"/>
				<rect x="996.4" y="651.5" fill="none" stroke="#A9ABAE" stroke-width="4" stroke-miterlimit="10" width="44" height="44"/>
				<rect x="1058.2" y="651.5" fill="#E5E5E5" stroke="#A9ABAE" stroke-width="4" stroke-miterlimit="10" width="44" height="44"/>
			</g>
		</g>
		<g>
			<defs>
				<rect id="SVGID_77_" x="497.9" y="75.4" width="464" height="276"/>
			</defs>
			<clipPath id="SVGID_22_">
				<use xlink:href="#SVGID_77_"  overflow="visible"/>
			</clipPath>
			<g clip-path="url(#SVGID_22_)">
				<path fill="#FFE35B" d="M843.4,161.9H673.3c-3.3,0-6,2.7-6,6v232.2c0,3.3,2.7,6,6,6h170.1c3.3,0,6-2.7,6-6V167.9
					C849.4,164.6,846.7,161.9,843.4,161.9z"/>
				<rect x="687.3" y="180.9" fill="#FFF4BE" width="142.1" height="38"/>
				<rect x="687.3" y="307" fill="#EF5C4C" width="142.1" height="1.1"/>
				<rect x="687.3" y="239.2" fill="#EF5C4C" width="128.6" height="8"/>
				<g>
					<rect x="687.3" y="253.8" fill="#EF5C4C" width="69.5" height="8"/>
					<rect x="687.3" y="268.3" fill="#EF5C4C" width="91.1" height="8"/>
				</g>
			</g>
		</g>
	</g>
	<g>
		<circle fill="#9ADCF8" cx="605.3" cy="607.1" r="607.6"/>
		<g>
			<defs>
				<circle id="SVGID_79_" cx="605.3" cy="607.1" r="607.6"/>
			</defs>
			<clipPath id="SVGID_24_">
				<use xlink:href="#SVGID_79_"  overflow="visible"/>
			</clipPath>
			<polygon clip-path="url(#SVGID_24_)" fill="#C7C7C7" points="902,286.3 1325.1,709.3 1005.5,1028.8 845,754.3 			"/>
		</g>
		<g>
			<defs>
				<circle id="SVGID_81_" cx="605.3" cy="607.1" r="607.6"/>
			</defs>
			<clipPath id="SVGID_26_">
				<use xlink:href="#SVGID_81_"  overflow="visible"/>
			</clipPath>
			<g clip-path="url(#SVGID_26_)">
				<g>
					<path fill="#2D2D2D" d="M910.3,856H546.8c-6.6,0-12-5.4-12-12V659.4c0-6.6,5.4-12,12-12h363.5c6.6,0,12,5.4,12,12V844
						C922.3,850.6,916.9,856,910.3,856z"/>
					<ellipse fill="#2D2D2D" cx="728.5" cy="1035" rx="552.2" ry="267.8"/>
				</g>
				<g>
					<g>
						<path fill="#CCA08F" d="M941,518.8c0,175.1-94.1,317.1-210.3,317.1S520.5,694,520.5,518.8s21-314.9,210.3-317.1
							C910.1,201.8,941,343.7,941,518.8z"/>
						<path fill="#CCA08F" d="M495.6,541.8c4.4,44,19.5,78.5,33.8,76.9c14.3-1.6,22.4-38.6,18-82.6s-19.5-78.5-33.8-76.9
							C499.3,460.8,491.2,497.8,495.6,541.8z"/>
						<path fill="#CCA08F" d="M961.9,541.8c-4.4,44-19.5,78.5-33.8,76.9c-14.3-1.6-22.4-38.6-18-82.6c4.4-44,19.5-78.5,33.8-76.9
							S966.3,497.8,961.9,541.8z"/>
					</g>
					<path fill="#F4F4EF" d="M801.6,662.9c0,0-16.9-8.4-30.6-8.4c-13.7,0-42.2-1.1-42.2-1.1s-28.5,1.1-42.2,1.1
						c-13.7,0-30.6,8.4-30.6,8.4l-23.2,24.3c0,0,7.4,70.7,8.4,90.7c1.1,20,11.6,52.8,29.5,65.4c16.2,11.5,51.5,11.7,58,11.6
						c6.5,0.1,41.8-0.2,58-11.6c17.9-12.7,28.5-45.4,29.5-65.4c1.1-20,8.4-90.7,8.4-90.7L801.6,662.9z M796.3,738.8
						c0,0-27.4,24.3-66.5,21.1v-0.2c-0.3,0-0.7,0.1-1.1,0.1c-0.4,0-0.7-0.1-1.1-0.1v0.2c-39,3.2-66.5-21.1-66.5-21.1l-8.4-38
						l28.5-6.3l46.4,3.4v0.2l1.1-0.1l1.1,0.1v-0.2l46.4-3.4l28.5,6.3L796.3,738.8z"/>
					<path fill="#F4F4EF" d="M542,297.8c0,0-31.7,116.1-24.3,160.4c0,0,14.8-1.1,15.8,21.1c1.1,22.2,1.1,42.2,6.3,54.9
						c0,0-1.1-92.8,7.4-130.8c8.4-38,2.1-66.5,6.3-88.6c4.2-22.2,16.9-58,35.9-68.6C589.5,246.1,548.4,272.5,542,297.8z"/>
					<path fill="#F4F4EF" d="M915.5,297.8c0,0,31.7,116.1,24.3,160.4c0,0-14.8-1.1-15.8,21.1c-1.1,22.2-1.1,42.2-6.3,54.9
						c0,0,1.1-92.8-7.4-130.8c-8.4-38-2.1-66.5-6.3-88.6s-16.9-58-35.9-68.6C868,246.1,909.1,272.5,915.5,297.8z"/>
					<path fill="#3D3D3D" d="M586.4,505.7c0,0,22.2-15.8,44.3-15.8c22.2,0,38,4.2,38,4.2s0-16.9-26.4-22.2S584.2,490.9,586.4,505.7z
						"/>
					<path fill="#3D3D3D" d="M872.3,508.8c0,0-26.4-22.2-48.5-22.2c-22.2,0-46.5,7.4-46.5,7.4s-6.2-15.8,26.4-22.2
						C830,466.8,862.8,493,872.3,508.8z"/>
				</g>
			</g>
		</g>
		<g>
			<defs>
				<circle id="SVGID_83_" cx="609.8" cy="608" r="607.6"/>
			</defs>
			<clipPath id="SVGID_28_">
				<use xlink:href="#SVGID_83_"  overflow="visible"/>
			</clipPath>
			<g clip-path="url(#SVGID_28_)">
				<defs>
					<rect id="SVGID_85_" x="839.8" y="928.2" width="206.8" height="186.5"/>
				</defs>
				<clipPath id="SVGID_30_">
					<use xlink:href="#SVGID_85_"  overflow="visible"/>
				</clipPath>
				<g clip-path="url(#SVGID_30_)">
					<path fill="#00A7ED" d="M1015.8,982.9H890.9c-3.3,0-6,2.7-6,6v171.5c0,3.3,2.7,6,6,6h124.9c3.3,0,6-2.7,6-6V988.9
						C1021.8,985.5,1019.1,982.9,1015.8,982.9z"/>
					<g>
						<rect x="900" y="997.1" fill="#9ADCF8" width="106.8" height="28.6"/>
						<rect x="900" y="1091.9" fill="#9ADCF8" width="106.8" height="0.8"/>
					</g>
					<g>
						<rect x="900" y="1041" fill="#FFFFFF" width="96.6" height="6"/>
						<g>
							<rect x="900" y="1051.9" fill="#FFFFFF" width="52.3" height="6"/>
							<rect x="900" y="1062.8" fill="#FFFFFF" width="68.4" height="6"/>
						</g>
					</g>
				</g>
			</g>
		</g>
	</g>
	<g>
		<circle fill="#9ADCF8" cx="609.6" cy="609.2" r="607.6"/>
		<circle fill="#9ADCF8" cx="609.6" cy="607.7" r="607.6"/>
		<circle fill="none" cx="609.6" cy="609.2" r="607.6"/>
		<g>
			<defs>
				<circle id="SVGID_87_" cx="605.5" cy="605.9" r="607.6"/>
			</defs>
			<clipPath id="SVGID_32_">
				<use xlink:href="#SVGID_87_"  overflow="visible"/>
			</clipPath>
			<polygon clip-path="url(#SVGID_32_)" fill="#C7C7C7" points="771.2,208 1363.7,800.5 969.9,1194.3 615.6,1548.6 615.6,269.7 			
				"/>
		</g>
		<g>
			<defs>
				<circle id="SVGID_89_" cx="609.6" cy="609.2" r="607.6"/>
			</defs>
			<clipPath id="SVGID_34_">
				<use xlink:href="#SVGID_89_"  overflow="visible"/>
			</clipPath>
			<g clip-path="url(#SVGID_34_)">
				<path fill="#3D3D3D" d="M754.8,718.4c0,0-54.6,5.7-129.9,1.6v-1.6c-4,0.3-7.9,0.6-11.8,0.9c-3.9-0.3-7.8-0.5-11.8-0.9v1.6
					c-75.4,4.1-129.9-1.6-129.9-1.6L50.5,940.7l257.4,808.4h293.3h23.7h293.3l257.4-808.4L754.8,718.4z"/>
				<path fill="#3D3D3D" d="M850.1,681.2c0,110.7-88.2,200.5-197,200.5h-95.9c-108.8,0-197-89.8-197-200.5l-46.4-222.7
					c0-110.7,134.6-217.7,243.5-217.7h95.9c152.9,0,242.5,128,242.5,238.8L850.1,681.2z"/>
				<path fill="#D3A86A" d="M778.8,645c0,78.9-62.5,142.9-139.6,142.9h-68c-77.1,0-139.6-64-139.6-142.9V474.1
					c0-78.9,62.5-142.9,139.6-142.9h68c77.1,0,139.6,64,139.6,142.9V645z"/>
				<path fill="#898989" d="M852,494.8h43.6c0,0,3.4,74.5-11.7,129.5h-10l-30.3-116.8L852,494.8z"/>
				<path fill="#898989" d="M357.6,494.8H314c0,0-3.4,74.5,11.7,129.5h10L366,507.5L357.6,494.8z"/>
				<path fill="#898989" d="M360.1,559.6l-20.3,77c0,0,69,165.7,75.7,78.1c6-78.1-7.6-110.8-25.2-133.5S360.1,559.6,360.1,559.6z"/>
				<path fill="#898989" d="M843.4,805.7c0,0-42.4,75.4-232.5,76c-190.1-0.6-232.5-76-232.5-76l-89.5,36l256,839.5l60.2-16.5
					l5.7-569.9l5.7,569.9l60.2,16.5l256-839.5L843.4,805.7z"/>
				<g>
					<path fill="#212121" d="M670.7,815c0,3.1-2.2,5.7-5,5.7H545.2c-2.8,0-5-59.8-5-59.8c0-3.1,2.2-5.7,5-5.7h120.5
						c2.8,0,5,2.5,5,5.7V815z"/>
					<g>
						<path fill="#212121" d="M569.5,798c0,0-129.9,25.8-144.3-128.8c0,0,20.9,112.5,144.3,106V798z"/>
						<path fill="#212121" d="M641.5,798c0,0,129.9,25.8,144.3-128.8c0,0-20.9,112.5-144.3,106V798z"/>
					</g>
				</g>
				<path fill="#3D3D3D" d="M338.2,536.7c0,0,95.6,34.2,166,31.7c38.6-1.4,65.3-6,81.6-9.9c10.4-2.5,21.7-0.9,30.3,4.3
					c13.2,8.1,42.3,17.3,104.4,12c71-6.2,111.1-27,129.1-39.2c7.5-5.1,11.7-12.6,11.7-20.4v-0.4c0-14.9-15.2-27-34-27H338.2"/>
				<g>
					<path fill="#898989" d="M852,308.9c-45-86.3-118.4-153.3-244.6-153.3c-129.1,0-204.8,61.9-249,153.3H852z"/>
					<path fill="#898989" d="M857.7,320.1H353.1c-11.4,25.7-20.5,53.5-27.8,82.8c-7,28.2-18.5,56.3-6.2,81.8h576.5
						c12.3-25.5,2.2-53.9-6.2-81.8C880.8,374.6,870.5,346.6,857.7,320.1z"/>
				</g>
				<path fill="#898989" d="M319.1,479.6c0,0,142.9,33.5,288.3,33.5s288.3-33.5,288.3-33.5H319.1z"/>
			</g>
		</g>
		<g>
			<path fill="#EF5C4C" d="M663.8,947.9H555.4c-0.7,0-1.2,0.5-1.2,1.2v146.2c0,0.7,0.5,1.2,1.2,1.2h108.4c0.7,0,1.2-0.5,1.2-1.2
				V949.1C665,948.4,664.5,947.9,663.8,947.9z"/>
			<g>
				<rect x="566.4" y="959.4" fill="#F9BEB8" width="86.5" height="23.1"/>
				<rect x="566.4" y="1036.2" fill="#9ADCF8" width="86.5" height="0.7"/>
			</g>
			<g>
				<rect x="566.4" y="994.9" fill="#FFFFFF" width="78.2" height="4.9"/>
				<g>
					<rect x="566.4" y="1003.8" fill="#FFFFFF" width="42.3" height="4.9"/>
					<rect x="566.4" y="1012.6" fill="#FFFFFF" width="55.4" height="4.9"/>
				</g>
			</g>
		</g>
	</g>
	<g>
		<circle fill="#9ADCF8" cx="608.2" cy="607.6" r="607.6"/>
		<g>
			<defs>
				<circle id="SVGID_91_" cx="606.9" cy="607.6" r="607.6"/>
			</defs>
			<clipPath id="SVGID_36_">
				<use xlink:href="#SVGID_91_"  overflow="visible"/>
			</clipPath>
			<path clip-path="url(#SVGID_36_)" fill="#273E7A" d="M636.1,524.8H504.5c-3.3,0-6,2.7-6,6v180.4c0,3.3,2.7,6,6,6h131.5
				c3.3,0,6-2.7,6-6V530.8C642.1,527.5,639.4,524.8,636.1,524.8z"/>
			<g clip-path="url(#SVGID_36_)">
				<rect x="514.3" y="539.8" fill="#A9B2CA" width="112" height="30"/>
				<rect x="514.3" y="639.2" fill="#9ADCF8" width="112" height="0.9"/>
			</g>
			<g clip-path="url(#SVGID_36_)">
				<rect x="514.3" y="585.8" fill="#FFFFFF" width="101.3" height="6.3"/>
				<g>
					<rect x="514.3" y="597.2" fill="#FFFFFF" width="54.8" height="6.3"/>
					<rect x="514.3" y="608.6" fill="#FFFFFF" width="71.8" height="6.3"/>
				</g>
			</g>
		</g>
		<circle fill="none" cx="608.2" cy="607.6" r="607.6"/>
		<g>
			<defs>
				<circle id="SVGID_93_" cx="608.2" cy="607.6" r="607.6"/>
			</defs>
			<clipPath id="SVGID_38_">
				<use xlink:href="#SVGID_93_"  overflow="visible"/>
			</clipPath>
			<polygon clip-path="url(#SVGID_38_)" fill="#C7C7C7" points="254.9,766.2 471.9,983.2 2479.4,983.2 2569.8,892.8 2487,892.8 
				2464.3,892.8 2239.1,667.6 2206.6,667.6 2134,595 1547,520.3 1198.8,393.2 1013.2,393.2 990.5,393.2 934.9,337.7 873.8,337.7 
				873.8,408.4 487.8,454.4 278.2,529.6 			"/>
			<rect x="-34.8" y="928.8" clip-path="url(#SVGID_38_)" fill="#EF5C4C" width="1732" height="382.4"/>
		</g>
		<path fill="#7C7C74" d="M474.7,639.3"/>
		<g>
			<defs>
				<circle id="SVGID_95_" cx="608.2" cy="607.6" r="607.6"/>
			</defs>
			<clipPath id="SVGID_40_">
				<use xlink:href="#SVGID_95_"  overflow="visible"/>
			</clipPath>
			<g clip-path="url(#SVGID_40_)">
				<polygon fill="#2D2D2D" points="381.5,511.2 407.1,481.7 824.4,408.8 1170.8,401 1229.9,393.1 1570.4,528.9 1342.1,562.4 
					1334.2,479.7 1202.3,426.6 940.5,426.6 940.5,469.9 1003.5,532.8 395.3,538.8 				"/>
			</g>
			<g clip-path="url(#SVGID_40_)">
				<rect x="822.4" y="361.6" fill="#BDBDBC" width="90.5" height="35.4"/>
			</g>
			<g clip-path="url(#SVGID_40_)">
				<path fill="#BDBDBC" d="M926.6,353.7H817.2c-3.3,0-6-2.7-6-6v-10.4c0-3.3,2.7-6,6-6h109.4c3.3,0,6,2.7,6,6v10.4
					C932.6,351.1,929.9,353.7,926.6,353.7z"/>
			</g>
			<g clip-path="url(#SVGID_40_)">
				<path fill="#2D2D2D" d="M431.7,462.3l-9.8-12.4c1.6-1.3,39.6-31,78.8-35.1c39-4.1,101.7,23.1,104.4,24.2l-6.3,14.4
					c-0.6-0.3-61.5-26.7-96.4-23C467.8,434.1,432,462,431.7,462.3z"/>
			</g>
			<g clip-path="url(#SVGID_40_)">
				<path fill="#BDBDBC" d="M673.5,438.9c-0.6-0.2-14.4-6.2-27.7-15c-19.7-13-28-25.5-24.8-37.2c1.1-4,4.3-9.4,13.3-12.9
					c25.4-9.6,87.2,1.6,135.3,33.1l-6.5,9.9c-47.4-31.1-104.6-39.5-124.7-31.9c-2.4,0.9-5.5,2.5-6.1,4.9
					c-3.1,11.4,25.5,29.6,45.8,38.3L673.5,438.9z"/>
			</g>
			<g clip-path="url(#SVGID_40_)">
				<path fill="#D8D8D6" d="M2115.6,593.9L1534.9,523l-33.5,5.9l-297.2-126l25.6-9.8l-374-2L261.5,503.3l-39.4,133.8l-2,70.9
					l214.5,76.8l344.4,43.3h832.6l559-92.5v-59L2115.6,593.9z M755.5,507.3L413,517.1l11.8-33.5l342.5-59L755.5,507.3z
					 M1430.6,536.8l-537.3-23.6l-5.9-100.4l283.4-3.9l261.8,106.3L1430.6,536.8z"/>
			</g>
			<g clip-path="url(#SVGID_40_)">
				<path fill="#2D2D2D" d="M243.8,713.9l11.8,51.2l358.2,57.1l1106.2,3.9l210.6-35.4l47.2,25.6l151.6-9.8l2-15.7l-11.8-2v-27.6
					l35.4-19.7l-204.7,37.4c0,0,2-131.9-104.3-143.7c-106.3-11.8-143.7,13.8-159.4,25.6c-15.7,11.8-53.1,51.2-53.1,104.3l-856.2-2
					c2.4-2.6-9.8-63.7-43.3-100.4c-34.6-37.9-82.7-57.1-120.1-59c-37.4-2-104.3-9.8-153.5,57.1C430.7,710,430.7,771,430.7,771
					L243.8,713.9z"/>
			</g>
			<g clip-path="url(#SVGID_40_)">
				<g>
					<circle fill="#3D3D3D" cx="600.8" cy="790.7" r="157.5"/>
				</g>
				<g>
					<circle fill="#E9E8E8" cx="600.8" cy="790.7" r="122.3"/>
				</g>
				<g>
					<circle fill="#BDBDBC" cx="600.8" cy="790.7" r="110.9"/>
				</g>
				<g>
					<circle fill="#D2D2D1" cx="600.8" cy="790.7" r="35.9"/>
				</g>
			</g>
			<g clip-path="url(#SVGID_40_)">
				<polygon fill="#7C7C74" points="1014.3,773.6 1013.5,772.9 903,666.3 902.8,666 821.6,519.5 847.4,390.6 852.6,391.6 
					827.2,518.6 907.2,663.1 1016.4,768.4 1401.3,766.4 1493.1,528 1498,529.9 1404.9,771.7 				"/>
			</g>
			<g clip-path="url(#SVGID_40_)">
				<polygon fill="#2D2D2D" points="491.8,458.1 259.5,517.1 257.5,465.9 300.8,371.5 				"/>
			</g>
			<g clip-path="url(#SVGID_40_)">
				<rect x="852.6" y="330.1" fill="#7C7C74" width="22.3" height="31.5"/>
			</g>
			<g opacity="0.58" clip-path="url(#SVGID_40_)">
				<rect x="749.6" y="644.4" fill="#FFFFFF" width="917.2" height="13.1"/>
			</g>
			<g opacity="0.58" clip-path="url(#SVGID_40_)">
				<rect x="251.6" y="644.4" fill="#FFFFFF" width="196.8" height="13.1"/>
			</g>
		</g>
		<path fill="#00A7ED" d="M367.4,933l-99,79.8c-0.6,0.5-0.7,1.4-0.2,2l107.7,133.5c0.5,0.6,1.4,0.7,2,0.2l99-79.8
			c0.6-0.5,0.7-1.4,0.2-2L369.4,933.2C368.9,932.6,368,932.5,367.4,933z"/>
		<g>
			
				<rect x="284.2" y="980.5" transform="matrix(0.7785 -0.6277 0.6277 0.7785 -549.7766 430.4479)" fill="#9ADCF8" width="101.5" height="27.2"/>
			
				<rect x="332.4" y="1053.5" transform="matrix(0.7785 -0.6277 0.6277 0.7785 -576.6443 473.9835)" fill="#9ADCF8" width="101.5" height="0.8"/>
		</g>
		<g>
			
				<rect x="304.7" y="1018.4" transform="matrix(0.7785 -0.6277 0.6277 0.7785 -563.3321 446.29)" fill="#FFFFFF" width="91.8" height="5.7"/>
			<g>
				
					<rect x="315.9" y="1039.6" transform="matrix(0.7785 -0.6277 0.6277 0.7785 -578.8947 444.79)" fill="#FFFFFF" width="49.7" height="5.7"/>
				
					<rect x="320.7" y="1042.9" transform="matrix(0.7785 -0.6277 0.6277 0.7785 -578.1655 453.3444)" fill="#FFFFFF" width="65" height="5.7"/>
			</g>
		</g>
	</g>
	<g>
		<circle fill="#9ADCF8" cx="607.6" cy="604.7" r="607.6"/>
		<g>
			<defs>
				<circle id="SVGID_99_" cx="607.6" cy="610.4" r="607.6"/>
			</defs>
			<clipPath id="SVGID_42_">
				<use xlink:href="#SVGID_99_"  overflow="visible"/>
			</clipPath>
			<polygon clip-path="url(#SVGID_42_)" fill="#78ACC2" points="431.7,243.7 729.5,541.5 760.5,369.4 773.4,277.9 616.3,120.8 
				795.5,92.6 930.3,207.4 1388.2,665.3 960.3,1212.3 676.8,1258.9 632.7,1258.9 602,1246.9 464.8,1109.7 611.8,1072.9 598.7,924.4 
				469.1,783.4 418.9,259.9 			"/>
		</g>
		<g>
			<defs>
				<circle id="SVGID_101_" cx="607.6" cy="604.7" r="607.6"/>
			</defs>
			<clipPath id="SVGID_44_">
				<use xlink:href="#SVGID_101_"  overflow="visible"/>
			</clipPath>
			<rect x="16.4" y="970.2" clip-path="url(#SVGID_44_)" fill="#EF5C4C" width="1224" height="317.7"/>
		</g>
		<circle fill="none" cx="607.6" cy="604.7" r="607.6"/>
		<path fill="#7C7C74" d="M434.8,562.5"/>
		<g>
			<path fill="#00A7ED" d="M573.9,252.7l-73.8,91.4c-0.5,0.6-0.4,1.4,0.2,1.9l123.2,99.5c0.6,0.5,1.4,0.4,1.9-0.2l73.8-91.4
				c0.5-0.6,0.4-1.4-0.2-1.9l-123.2-99.5C575.2,252,574.4,252.1,573.9,252.7z"/>
			<g>
				
					<rect x="509.7" y="301.6" transform="matrix(0.6281 -0.7781 0.7781 0.6281 -37.4539 549.9147)" fill="#9ADCF8" width="93.7" height="25.1"/>
				
					<rect x="564.9" y="358.3" transform="matrix(0.6281 -0.7781 0.7781 0.6281 -51.5989 609.4507)" fill="#9ADCF8" width="93.7" height="0.7"/>
			</g>
			<g>
				
					<rect x="533.6" y="332.9" transform="matrix(0.6281 -0.7781 0.7781 0.6281 -46.8922 572.9998)" fill="#FFFFFF" width="84.8" height="5.3"/>
				<g>
					
						<rect x="548.3" y="354.1" transform="matrix(0.6281 -0.7781 0.7781 0.6281 -65.1278 577.1461)" fill="#FFFFFF" width="45.8" height="5.3"/>
					
						<rect x="553.1" y="354.6" transform="matrix(0.6281 -0.7781 0.7781 0.6281 -61.0842 586.5859)" fill="#FFFFFF" width="60" height="5.3"/>
				</g>
			</g>
		</g>
		<g>
			<path fill="#EF5C4C" d="M561.5,332.5l-114.8,24.8c-0.7,0.2-1.2,0.9-1,1.6l33.4,154.8c0.2,0.7,0.9,1.2,1.6,1l114.8-24.8
				c0.7-0.2,1.2-0.9,1-1.6l-33.4-154.8C562.9,332.8,562.2,332.3,561.5,332.5z"/>
			<g>
				
					<rect x="462.6" y="356.9" transform="matrix(0.9774 -0.2112 0.2112 0.9774 -66.5298 115.9224)" fill="#F9BEB8" width="93.7" height="25.1"/>
				
					<rect x="477.5" y="438.4" transform="matrix(0.9774 -0.2112 0.2112 0.9774 -80.8398 120.6522)" fill="#9ADCF8" width="93.7" height="0.7"/>
			</g>
			<g>
				
					<rect x="468.7" y="395.6" transform="matrix(0.9774 -0.2112 0.2112 0.9774 -72.5893 116.9276)" fill="#FFFFFF" width="84.8" height="5.3"/>
				<g>
					
						<rect x="471.1" y="409.1" transform="matrix(0.9774 -0.2112 0.2112 0.9774 -75.8158 113.6404)" fill="#FFFFFF" width="45.8" height="5.3"/>
					
						<rect x="473" y="416.9" transform="matrix(0.9774 -0.2112 0.2112 0.9774 -77.2721 115.7083)" fill="#FFFFFF" width="60" height="5.3"/>
				</g>
			</g>
		</g>
		<g>
			<path fill="#273E7A" d="M661.8,536.5l-68-95.7c-0.4-0.6-1.2-0.7-1.8-0.3l-129.1,91.7c-0.6,0.4-0.7,1.2-0.3,1.8l68,95.7
				c0.4,0.6,1.2,0.7,1.8,0.3l129.1-91.7C662.1,537.9,662.3,537.1,661.8,536.5z"/>
			<g>
				
					<rect x="560.5" y="490.6" transform="matrix(0.5794 0.815 -0.815 0.5794 665.543 -283.4158)" fill="#A9B2CA" width="93.7" height="25.1"/>
				
					<rect x="502.7" y="543.9" transform="matrix(0.5794 0.815 -0.815 0.5794 674.7283 -218.9919)" fill="#9ADCF8" width="93.7" height="0.7"/>
			</g>
			<g>
				
					<rect x="539.1" y="513.4" transform="matrix(0.5794 0.815 -0.815 0.5794 665.1923 -256.8963)" fill="#FFFFFF" width="84.8" height="5.3"/>
				<g>
					
						<rect x="539.5" y="503.1" transform="matrix(0.5794 0.815 -0.815 0.5794 648.7614 -245.6921)" fill="#FFFFFF" width="45.8" height="5.3"/>
					
						<rect x="528.7" y="514.4" transform="matrix(0.5794 0.815 -0.815 0.5794 656.4383 -237.9253)" fill="#FFFFFF" width="60" height="5.3"/>
				</g>
			</g>
		</g>
		<g>
			<path fill="#273E7A" d="M734.3,451.5l-115.5-21.4c-0.7-0.1-1.4,0.3-1.5,1.1l-28.8,155.7c-0.1,0.7,0.3,1.4,1.1,1.5L705,609.8
				c0.7,0.1,1.4-0.3,1.5-1.1l28.8-155.7C735.5,452.3,735,451.7,734.3,451.5z"/>
			<g>
				
					<rect x="625.1" y="453" transform="matrix(0.9833 0.1818 -0.1818 0.9833 95.8261 -114.409)" fill="#A9B2CA" width="93.7" height="25.1"/>
				
					<rect x="612.2" y="534.9" transform="matrix(0.9833 0.1818 -0.1818 0.9833 108.2956 -110.9012)" fill="#9ADCF8" width="93.7" height="0.7"/>
			</g>
			<g>
				
					<rect x="620" y="490.1" transform="matrix(0.9833 0.1818 -0.1818 0.9833 100.6268 -112.2127)" fill="#FFFFFF" width="84.8" height="5.3"/>
				<g>
					
						<rect x="618.6" y="496" transform="matrix(0.9833 0.1818 -0.1818 0.9833 101.3458 -108.3198)" fill="#FFFFFF" width="45.8" height="5.3"/>
					
						<rect x="616.7" y="506.7" transform="matrix(0.9833 0.1818 -0.1818 0.9833 103.3773 -109.0932)" fill="#FFFFFF" width="60" height="5.3"/>
				</g>
			</g>
		</g>
		<g>
			<path fill="#00A7ED" d="M718.2,641l-113-31.9c-0.7-0.2-1.4,0.2-1.6,0.9l-43,152.4c-0.2,0.7,0.2,1.4,0.9,1.6l113,31.9
				c0.7,0.2,1.4-0.2,1.6-0.9l43-152.4C719.3,642,718.9,641.2,718.2,641z"/>
			<g>
				
					<rect x="608" y="636.7" transform="matrix(0.9624 0.2715 -0.2715 0.9624 200.8723 -153.424)" fill="#9ADCF8" width="93.7" height="25.1"/>
				
					<rect x="588.8" y="717.1" transform="matrix(0.9624 0.2715 -0.2715 0.9624 218.6899 -145.628)" fill="#9ADCF8" width="93.7" height="0.7"/>
			</g>
			<g>
				
					<rect x="600.5" y="672.9" transform="matrix(0.9624 0.2715 -0.2715 0.9624 207.5571 -149.1647)" fill="#FFFFFF" width="84.8" height="5.3"/>
				<g>
					
						<rect x="598.6" y="676.8" transform="matrix(0.9624 0.2715 -0.2715 0.9624 207.8208 -143.2271)" fill="#FFFFFF" width="45.8" height="5.3"/>
					
						<rect x="595.7" y="687.9" transform="matrix(0.9624 0.2715 -0.2715 0.9624 211.002 -143.9568)" fill="#FFFFFF" width="60" height="5.3"/>
				</g>
			</g>
		</g>
		<g>
			<path fill="#00A7ED" d="M592.2,340.2l-41.5,109.9c-0.3,0.7,0.1,1.4,0.8,1.7l148.1,55.9c0.7,0.3,1.4-0.1,1.7-0.8l41.5-109.9
				c0.3-0.7-0.1-1.4-0.8-1.7l-148.1-55.9C593.2,339.2,592.5,339.5,592.2,340.2z"/>
			<g>
				
					<rect x="548.1" y="391.5" transform="matrix(0.3532 -0.9355 0.9355 0.3532 6.8151 817.8496)" fill="#9ADCF8" width="93.7" height="25.1"/>
				
					<rect x="614.4" y="428.7" transform="matrix(0.3532 -0.9355 0.9355 0.3532 26.2994 896.1602)" fill="#9ADCF8" width="93.7" height="0.7"/>
			</g>
			<g>
				
					<rect x="577.7" y="415.6" transform="matrix(0.3532 -0.9355 0.9355 0.3532 9.7389 850.6082)" fill="#FFFFFF" width="84.8" height="5.3"/>
				<g>
					
						<rect x="599.2" y="437.2" transform="matrix(0.3532 -0.9355 0.9355 0.3532 -9.1124 866.509)" fill="#FFFFFF" width="45.8" height="5.3"/>
					
						<rect x="603.6" y="434" transform="matrix(0.3532 -0.9355 0.9355 0.3532 1.3409 875.1188)" fill="#FFFFFF" width="60" height="5.3"/>
				</g>
			</g>
		</g>
		<g>
			<path fill="#EF5C4C" d="M639.8,602.6l-0.1-117.4c0-0.7-0.6-1.3-1.3-1.3L480.1,484c-0.7,0-1.3,0.6-1.3,1.3l0.1,117.4
				c0,0.7,0.6,1.3,1.3,1.3l158.3-0.2C639.3,603.9,639.8,603.3,639.8,602.6z"/>
			<g>
				
					<rect x="567.9" y="531.3" transform="matrix(9.637632e-004 1 -1 9.637632e-004 1158.0004 -71.3626)" fill="#F9BEB8" width="93.7" height="25.1"/>
				
					<rect x="496.9" y="543.6" transform="matrix(9.637632e-004 1 -1 9.637632e-004 1087.1836 -0.3407)" fill="#9ADCF8" width="93.7" height="0.7"/>
			</g>
			<g>
				
					<rect x="543.8" y="536.8" transform="matrix(9.637632e-004 1 -1 9.637632e-004 1125.0201 -47.2148)" fill="#FFFFFF" width="84.8" height="5.3"/>
				<g>
					
						<rect x="553.6" y="517.4" transform="matrix(9.637632e-004 1 -1 9.637632e-004 1095.9943 -57.0632)" fill="#FFFFFF" width="45.8" height="5.3"/>
					
						<rect x="537" y="524.5" transform="matrix(9.637632e-004 1 -1 9.637632e-004 1093.5454 -40.4109)" fill="#FFFFFF" width="60" height="5.3"/>
				</g>
			</g>
		</g>
		<g>
			<path fill="#EF5C4C" d="M581.2,527.1l-65.3,97.6c-0.4,0.6-0.2,1.4,0.4,1.8l131.6,88.1c0.6,0.4,1.4,0.2,1.8-0.4l65.3-97.6
				c0.4-0.6,0.2-1.4-0.4-1.8L583,526.7C582.4,526.3,581.6,526.5,581.2,527.1z"/>
			<g>
				
					<rect x="522.6" y="577.3" transform="matrix(0.5562 -0.831 0.831 0.5562 -237.4826 734.9587)" fill="#F9BEB8" width="93.7" height="25.1"/>
				
					<rect x="581.5" y="628.9" transform="matrix(0.5562 -0.831 0.831 0.5562 -244.111 801.4762)" fill="#9ADCF8" width="93.7" height="0.7"/>
			</g>
			<g>
				
					<rect x="548.3" y="606.8" transform="matrix(0.5562 -0.831 0.831 0.5562 -244.3328 761.3274)" fill="#FFFFFF" width="84.8" height="5.3"/>
				<g>
					
						<rect x="564.9" y="628.3" transform="matrix(0.5562 -0.831 0.831 0.5562 -263.4701 768.4767)" fill="#FFFFFF" width="45.8" height="5.3"/>
					
						<rect x="569.7" y="627.7" transform="matrix(0.5562 -0.831 0.831 0.5562 -257.7153 778.1064)" fill="#FFFFFF" width="60" height="5.3"/>
				</g>
			</g>
		</g>
		<g>
			<path fill="#273E7A" d="M586.7,607.9l-107.1,48.2c-0.7,0.3-1,1.1-0.7,1.7l64.9,144.4c0.3,0.7,1.1,1,1.7,0.7l107.1-48.2
				c0.7-0.3,1-1.1,0.7-1.7l-64.9-144.4C588.2,607.9,587.4,607.6,586.7,607.9z"/>
			<g>
				
					<rect x="496.6" y="642.3" transform="matrix(0.912 -0.4102 0.4102 0.912 -220.7914 280.5461)" fill="#A9B2CA" width="93.7" height="25.1"/>
				
					<rect x="525.7" y="719.2" transform="matrix(0.912 -0.4102 0.4102 0.912 -244.7731 298.1777)" fill="#9ADCF8" width="93.7" height="0.7"/>
			</g>
			<g>
				
					<rect x="508.7" y="680.1" transform="matrix(0.912 -0.4102 0.4102 0.912 -231.5565 286.1386)" fill="#FFFFFF" width="84.8" height="5.3"/>
				<g>
					
						<rect x="514.4" y="696.8" transform="matrix(0.912 -0.4102 0.4102 0.912 -239.6254 281.9381)" fill="#FFFFFF" width="45.8" height="5.3"/>
					
						<rect x="517.7" y="702.6" transform="matrix(0.912 -0.4102 0.4102 0.912 -241.096 286.7119)" fill="#FFFFFF" width="60" height="5.3"/>
				</g>
			</g>
		</g>
		<g>
			
				<line fill="none" stroke="#FFFFFF" stroke-width="12" stroke-linecap="round" stroke-linejoin="round" stroke-miterlimit="10" x1="798.7" y1="82" x2="722.3" y2="360.2"/>
			<path fill="#FFE35B" d="M795.5,92.6l-195.8,24.5c0,0,39.7,1.9,67.1,9.9s43.6,23.3,43.6,23.3s30.6-6,66.8,4.6
				c36.1,10.6,62.4,32.5,62.4,32.5s18.9-4.1,41.6,2.5c22.6,6.6,65.8,29,65.8,29L795.5,92.6z"/>
			
				<line fill="none" stroke="#FFFFFF" stroke-width="12" stroke-linecap="round" stroke-linejoin="round" stroke-miterlimit="10" x1="705.5" y1="153.9" x2="788.4" y2="93.5"/>
			
				<polyline fill="none" stroke="#FFFFFF" stroke-width="12" stroke-linecap="round" stroke-linejoin="round" stroke-miterlimit="10" points="
				947.1,219 795.5,92.6 599.7,117.1 795.5,92.6 			"/>
			
				<line fill="none" stroke="#FFFFFF" stroke-width="12" stroke-linecap="round" stroke-linejoin="round" stroke-miterlimit="10" x1="838.1" y1="192.8" x2="801" y2="97.2"/>
		</g>
		<path opacity="0.49" fill="#FFE35B" d="M434.2,269.8h324.2l-52.9,487.5c0,0-4.9,62.6-109.2,54.8s-95.1-8.9-113.3-81.6
			S434.2,269.8,434.2,269.8z"/>
		<path fill="#FFFFFF" d="M739.4,780.6l57.9-536.9h-36.4c-11.8,123.6-46.1,478.4-57.3,523.3c-11.2,44.9-82.4,46.1-107.3,45.2
			c-24.9,1-96.1-0.3-107.3-45.2c-11.2-44.9-45.6-399.7-57.3-523.3h-36.4l57.9,536.9c0,0,34.1,116.2,119.3,126.2
			c0,0-13.6,37.3,3.4,50.9L552,981.6l10.2,15.3c0,0-56.8,13.1-3.4,46l-95.4,44.3v23.9h132.9h132.9v-23.9l-95.4-44.3
			c46.6-29.5-3.4-46-3.4-46l11.9-15.3l-25.6-23.9c17-13.6,3.4-50.9,3.4-50.9C705.3,896.8,739.4,780.6,739.4,780.6z"/>
	</g>
	<g>
		<g>
			<defs>
				<circle id="SVGID_107_" cx="-954.9" cy="-820.2" r="607.6"/>
			</defs>
			<clipPath id="SVGID_46_">
				<use xlink:href="#SVGID_107_"  overflow="visible"/>
			</clipPath>
			<polygon clip-path="url(#SVGID_46_)" fill="#C7C7C7" points="-1184.2,-1028.5 -944.5,-788.8 -809.7,-913.2 -708,-811.5 
				-440.7,-1003.5 3.6,-559.2 -751.3,195.7 -908.9,-105.8 -1436.7,-633.6 			"/>
		</g>
	</g>
	<g>
		<g>
			<defs>
				<circle id="SVGID_131_" cx="-954.9" cy="608.3" r="607.6"/>
			</defs>
			<clipPath id="SVGID_48_">
				<use xlink:href="#SVGID_131_"  overflow="visible"/>
			</clipPath>
			<polygon clip-path="url(#SVGID_48_)" fill="#C7C7C7" points="-1184.2,400.1 -944.5,639.8 -809.7,515.4 -708,617.1 -440.7,425 
				3.6,869.3 -751.3,1624.3 -908.9,1322.8 -1436.7,795 			"/>
		</g>
	</g>
	<g>
		<g>
			<defs>
				<circle id="SVGID_161_" cx="-954.2" cy="607.6" r="607.6"/>
			</defs>
			<clipPath id="SVGID_50_">
				<use xlink:href="#SVGID_161_"  overflow="visible"/>
			</clipPath>
			<polygon clip-path="url(#SVGID_50_)" fill="#78ACC2" points="-1307.5,766.2 -1090.5,983.2 917,983.2 1007.4,892.8 924.6,892.8 
				901.8,892.8 676.7,667.6 644.2,667.6 571.5,595 -15.4,520.3 -363.6,393.2 -549.2,393.2 -572,393.2 -627.5,337.7 -688.6,337.7 
				-688.6,408.4 -1074.7,454.4 -1284.2,529.6 			"/>
			<rect x="-1597.3" y="928.8" clip-path="url(#SVGID_50_)" fill="#EF5C4C" width="1732" height="382.4"/>
		</g>
		<g>
			<defs>
				<circle id="SVGID_163_" cx="-954.2" cy="607.6" r="607.6"/>
			</defs>
			<clipPath id="SVGID_52_">
				<use xlink:href="#SVGID_163_"  overflow="visible"/>
			</clipPath>
			<g clip-path="url(#SVGID_52_)">
				<polygon fill="#2D2D2D" points="-1180.9,511.2 -1155.3,481.7 -738,408.8 -391.6,401 -332.6,393.1 7.9,528.9 -220.4,562.4 
					-228.2,479.7 -360.1,426.6 -621.9,426.6 -621.9,469.9 -558.9,532.8 -1167.1,538.8 				"/>
			</g>
			<g clip-path="url(#SVGID_52_)">
				<path fill="#D8D8D6" d="M553.2,593.9L-27.5,523l-33.5,5.9l-297.2-126l25.6-9.8l-374-2L-1301,503.3l-39.4,133.8l-2,70.9
					l214.5,76.8l344.4,43.3H49.3l559-92.5v-59L553.2,593.9z M-806.9,507.3l-342.5,9.8l11.8-33.5l342.5-59L-806.9,507.3z
					 M-131.8,536.8l-537.3-23.6l-5.9-100.4l283.4-3.9l261.8,106.3L-131.8,536.8z"/>
			</g>
			<g clip-path="url(#SVGID_52_)">
				<path fill="#2D2D2D" d="M-1318.7,713.9l11.8,51.2l358.2,57.1l1106.2,3.9l210.6-35.4l47.2,25.6l151.6-9.8l2-15.7l-11.8-2v-27.6
					l35.4-19.7l-204.7,37.4c0,0,2-131.9-104.3-143.7c-106.3-11.8-143.7,13.8-159.4,25.6S70.9,712,70.9,765.1l-856.2-2
					c2.4-2.6-9.8-63.7-43.3-100.4c-34.6-37.9-82.7-57.1-120.1-59c-37.4-2-104.3-9.8-153.5,57.1c-29.5,49.2-29.5,110.2-29.5,110.2
					L-1318.7,713.9z"/>
			</g>
			<g clip-path="url(#SVGID_52_)">
				<g>
					<circle fill="#3D3D3D" cx="225.4" cy="806.4" r="141.7"/>
				</g>
				<g>
					<circle fill="#E9E8E8" cx="225.4" cy="806.4" r="110.1"/>
				</g>
				<g>
					<circle fill="#BDBDBC" cx="225.4" cy="806.4" r="99.8"/>
				</g>
				<g>
					<circle fill="#D2D2D1" cx="225.4" cy="806.4" r="32.3"/>
				</g>
			</g>
			<g opacity="0.58" clip-path="url(#SVGID_52_)">
				<rect x="-812.8" y="644.4" fill="#FFFFFF" width="917.2" height="13.1"/>
			</g>
			<g opacity="0.58" clip-path="url(#SVGID_52_)">
				<rect x="360.3" y="644.4" fill="#FFFFFF" width="230.3" height="13.1"/>
			</g>
			<defs>
				<filter id="Adobe_OpacityMaskFilter" filterUnits="userSpaceOnUse" x="425.2" y="654.9" width="232.3" height="90.5">
					<feColorMatrix  type="matrix" values="1 0 0 0 0  0 1 0 0 0  0 0 1 0 0  0 0 0 1 0"/>
				</filter>
			</defs>
			<mask maskUnits="userSpaceOnUse" x="425.2" y="654.9" width="232.3" height="90.5" id="SVGID_54_">
				<g filter="url(#Adobe_OpacityMaskFilter)">
					
						<linearGradient id="SVGID_56_" gradientUnits="userSpaceOnUse" x1="1034.63" y1="-4608.2051" x2="1320.0311" y2="-4608.2051" gradientTransform="matrix(-1 0 0 -1 1688.1753 -3921.8293)">
						<stop  offset="0" style="stop-color:#FFFFFF"/>
						<stop  offset="0.2753" style="stop-color:#FDFDFD"/>
						<stop  offset="0.4129" style="stop-color:#F5F5F5"/>
						<stop  offset="0.5201" style="stop-color:#E8E8E8"/>
						<stop  offset="0.6115" style="stop-color:#D5D5D5"/>
						<stop  offset="0.6929" style="stop-color:#BDBDBD"/>
						<stop  offset="0.7671" style="stop-color:#9F9F9F"/>
						<stop  offset="0.836" style="stop-color:#7B7B7B"/>
						<stop  offset="0.9006" style="stop-color:#515151"/>
						<stop  offset="0.9595" style="stop-color:#242424"/>
						<stop  offset="1" style="stop-color:#000000"/>
					</linearGradient>
					<rect x="368.1" y="599.8" clip-path="url(#SVGID_52_)" fill="url(#SVGID_56_)" width="285.4" height="173.2"/>
				</g>
			</mask>
			<g clip-path="url(#SVGID_52_)" mask="url(#SVGID_54_)">
				<path fill="#AAAAA9" d="M644,745.4H438.7c-7.5,0-13.5-6-13.5-13.5v-63.5c0-7.5,6-13.5,13.5-13.5H644c7.5,0,13.5,6,13.5,13.5
					v63.5C657.5,739.4,651.4,745.4,644,745.4z"/>
			</g>
		</g>
	</g>
</g>
</svg>
