<?xml version="1.0" encoding="utf-8"?>
<!-- Generator: Adobe Illustrator 18.1.1, SVG Export Plug-In . SVG Version: 6.00 Build 0)  -->
<svg version="1.0" xmlns="http://www.w3.org/2000/svg" xmlns:xlink="http://www.w3.org/1999/xlink" x="0px" y="0px"
	 viewBox="0 0 1215.1 1215.1" enable-background="new 0 0 1215.1 1215.1" xml:space="preserve">
<g id="Layer_3">
</g>
<g id="Layer_2">
	<circle fill="#9ADCF8" cx="609.8" cy="607.6" r="607.6"/>
	<g>
		<defs>
			<circle id="SVGID_1_" cx="607.6" cy="607.6" r="607.6"/>
		</defs>
		<clipPath id="SVGID_2_">
			<use xlink:href="#SVGID_1_"  overflow="visible"/>
		</clipPath>
		<polygon clip-path="url(#SVGID_2_)" fill="#78ACC2" points="356.2,417.6 250.5,507 256.2,632.9 381.5,758.2 331.5,830.6 
			365.4,864.5 231.6,880.8 598.7,1248 1256.5,1248 1256.5,852.2 1256.5,814.2 1256.5,786.2 1256.5,761.4 1246.5,761.4 859.9,374.8 
					"/>
	</g>
	<circle fill="none" cx="609.8" cy="607.6" r="607.6"/>
	<g>
		<defs>
			<circle id="SVGID_3_" cx="607.1" cy="607.6" r="607.6"/>
		</defs>
		<clipPath id="SVGID_4_">
			<use xlink:href="#SVGID_3_"  overflow="visible"/>
		</clipPath>
	</g>
	<g>
		<defs>
			<circle id="SVGID_5_" cx="609.8" cy="607.6" r="607.6"/>
		</defs>
		<clipPath id="SVGID_6_">
			<use xlink:href="#SVGID_5_"  overflow="visible"/>
		</clipPath>
		<rect x="18.7" y="875.4" clip-path="url(#SVGID_6_)" fill="#EF5C4C" width="1224" height="437.3"/>
	</g>
	<g opacity="0.51">
		<g>
			<path fill="#FFFFFF" d="M722.2,335.1c-2.1-1.1-50.4-26.8-50.4-75.5c0-23.9,9-41.5,17-57.1c7-13.7,13-25.5,13-40.3
				c0-36.2-23.4-56.4-24.4-57.2l0.1,0.1l19.8-24.1c1.5,1.2,35.7,29.9,35.7,81.2c0,22.4-8.7,39.5-16.4,54.5
				c-7.3,14.3-13.6,26.6-13.6,43c0,29.6,33.3,47.7,33.7,47.9L722.2,335.1z"/>
		</g>
		<g>
			<path fill="#FFFFFF" d="M620.9,335.1c-2.1-1.1-50.4-26.8-50.4-75.5c0-23.9,9-41.5,17-57.1c7-13.7,13-25.5,13-40.3
				c0-36.2-23.4-56.4-24.4-57.2l0.1,0.1L596,80.9c1.5,1.2,35.7,29.9,35.7,81.2c0,22.4-8.7,39.5-16.4,54.5
				c-7.3,14.3-13.6,26.6-13.6,43c0,29.6,33.3,47.7,33.7,47.9L620.9,335.1z"/>
		</g>
		<g>
			<path fill="#FFFFFF" d="M515.1,335.1c-2.1-1.1-50.4-26.8-50.4-75.5c0-23.9,9-41.5,17-57.1c7-13.7,13-25.5,13-40.3
				c0-36.2-23.4-56.4-24.4-57.2l0.1,0.1l19.8-24.1c1.5,1.2,35.7,29.9,35.7,81.2c0,22.4-8.7,39.5-16.4,54.5
				c-7.3,14.3-13.6,26.6-13.6,43c0,29.6,33.3,47.7,33.7,47.9L515.1,335.1z"/>
		</g>
	</g>
	<g>
		<path fill="#7C7C74" d="M500.3,584.3"/>
		<g>
			<path fill="#FFFFFF" d="M263.6,641c-24.7-24.7-38.3-57.6-38.3-92.5c0-35,13.6-67.8,38.3-92.5c24.7-24.7,57.6-38.3,92.5-38.3
				s67.8,13.6,92.5,38.3c24.7,24.7,38.3,57.6,38.3,92.5c0,35-13.6,67.8-38.3,92.5c-24.7,24.7-57.6,38.3-92.5,38.3
				S288.4,665.7,263.6,641z M263.2,548.5c0,51.3,41.7,93,93,93s93-41.7,93-93c0-51.3-41.7-93-93-93S263.2,497.2,263.2,548.5z"/>
		</g>
		<path fill="#FFFFFF" d="M607.1,863.1L607.1,863.1c-137.4,0-249.7-112.4-249.7-249.7V374.5c0-6,4.9-10.9,10.9-10.9H846
			c6,0,10.9,4.9,10.9,10.9v238.9C856.9,750.7,744.5,863.1,607.1,863.1z"/>
		<path fill="#C7C7C7" d="M846,363.7H744.9c4.7,0,8.6,3.6,8.6,8v307.5c0,101.2-89,184-197.8,184l90.7-13.9
			c92,4,201.8-88.4,210.3-221V377.9C856.9,368.2,853.5,363.7,846,363.7z"/>
	</g>
	<path fill="#00A7ED" d="M516,630.4L362.5,609c-3.3-0.5-6.3,1.8-6.8,5.1l-29.4,209.8c-0.5,3.3,1.8,6.3,5.1,6.8L485,852.1
		c3.3,0.5,6.3-1.8,6.8-5.1l29.4-209.8C521.6,633.9,519.3,630.9,516,630.4z"/>
	<g>
		
			<rect x="363.8" y="689" transform="matrix(0.9903 0.1386 -0.1386 0.9903 100.1224 -51.9258)" fill="#FFFFFF" width="117.9" height="7.3"/>
		<g>
			
				<rect x="362.3" y="698.5" transform="matrix(0.9903 0.1386 -0.1386 0.9903 101.1518 -47.8639)" fill="#FFFFFF" width="63.7" height="7.3"/>
			
				<rect x="360.3" y="713" transform="matrix(0.9903 0.1386 -0.1386 0.9903 103.244 -48.8217)" fill="#FFFFFF" width="83.5" height="7.3"/>
		</g>
	</g>
	<g>
		
			<rect x="369.3" y="636.8" transform="matrix(0.9903 0.1386 -0.1386 0.9903 94.8994 -53.9125)" fill="#9ADCF8" width="130.3" height="34.9"/>
		
			<rect x="355.6" y="751.4" transform="matrix(0.9903 0.1386 -0.1386 0.9903 108.3134 -51.0725)" fill="#9ADCF8" width="130.3" height="1"/>
	</g>
	<circle fill="#FFFFFF" cx="435.7" cy="631.1" r="6"/>
	<g>
		<path fill="#273E7A" d="M435.4,632.9c-0.9,0-1.7-0.4-2.3-1.2c-0.9-1.3-0.6-3,0.6-4l0,0c0.3-0.2,31.9-23.9,42.2-93.4
			c2.2-14.5,2.9-33.8,3.6-54.3c1.7-46.6,3.6-99.4,23.6-117.3c5.4-4.8,11.8-7,19.2-6.4c1.6,0.1,2.7,1.5,2.6,3c-0.1,1.6-1.5,2.7-3,2.6
			c-5.8-0.4-10.7,1.2-15,5c-18.2,16.3-20.1,67.8-21.7,113.3c-0.7,20.7-1.5,40.2-3.7,55c-10.7,72.1-43.1,96.2-44.5,97.2
			C436.6,632.7,436,632.9,435.4,632.9z"/>
	</g>
	<path fill="#C7C7C7" d="M928.1,900.9H291.5c-37.9,0-68.9-11-68.9-48.9v0c0-4.4,3.6-8,8-8H989c4.4,0,8,3.6,8,8v0
		C997,889.9,966,900.9,928.1,900.9z"/>
	<path fill="#FFFFFF" d="M989,844H230.7c-3.7,0-6.8,2.5-7.7,6c1.1,11.4,2.1,24.5,8.6,30.9l761.1-15.4c6.5-6.4,3-4.2,4.1-15.5
		C995.8,846.5,992.7,844,989,844z"/>
</g>
</svg>
