<?xml version="1.0" encoding="utf-8"?>
<!-- Generator: Adobe Illustrator 18.1.1, SVG Export Plug-In . SVG Version: 6.00 Build 0)  -->
<svg version="1.0" xmlns="http://www.w3.org/2000/svg" xmlns:xlink="http://www.w3.org/1999/xlink" x="0px" y="0px"
	 viewBox="0 0 1215.1 1215.1" enable-background="new 0 0 1215.1 1215.1" xml:space="preserve">
<g id="Layer_3">
</g>
<g id="Layer_2">
	<g>
		<circle fill="#9ADCF8" cx="607.6" cy="608.3" r="607.6"/>
		<circle fill="#9ADCF8" cx="607.6" cy="606.8" r="607.6"/>
		<g>
			<defs>
				<circle id="SVGID_17_" cx="607.6" cy="608.3" r="607.6"/>
			</defs>
			<clipPath id="SVGID_2_">
				<use xlink:href="#SVGID_17_"  overflow="visible"/>
			</clipPath>
			<polygon clip-path="url(#SVGID_2_)" fill="#C7C7C7" points="378.2,400.1 617.9,639.8 752.8,515.4 854.4,617.1 1121.8,425 
				1566.1,869.3 811.1,1624.3 653.5,1322.8 125.7,795 			"/>
		</g>
		<path fill="none" stroke="#5E3810" stroke-width="73.7008" stroke-miterlimit="10" d="M93.3,623.8c0,0,309.9-36,520.3-34
			c186.3,1.7,508.2,34,508.2,34"/>
		<g>
			<defs>
				<circle id="SVGID_19_" cx="607.6" cy="608.3" r="607.6"/>
			</defs>
			<clipPath id="SVGID_4_">
				<use xlink:href="#SVGID_19_"  overflow="visible"/>
			</clipPath>
			<g clip-path="url(#SVGID_4_)">
				<rect x="542.3" y="774.1" fill="#B78A4F" width="152.4" height="488.2"/>
				<path fill="#B78A4F" d="M743,810.8H494c-6.6,0-12-5.4-12-12V525.7c0-6.6,5.4-12,12-12h249c6.6,0,12,5.4,12,12v273.1
					C755,805.4,749.6,810.8,743,810.8z"/>
				<g>
					<path fill="#EF5C4C" d="M1116.3,418.5l-272.9-23.9c-3.3-0.3-6.2,2.2-6.5,5.5l-32.4,370c-0.3,3.3,2.2,6.2,5.5,6.5l272.9,23.9
						c3.3,0.3,6.2-2.2,6.5-5.5l32.4-370C1122.1,421.7,1119.6,418.8,1116.3,418.5z"/>
					<g>
						
							<rect x="863.1" y="436.2" transform="matrix(0.9962 8.715574e-002 -8.715574e-002 0.9962 44.329 -83.1734)" fill="#F9BEB8" width="223.1" height="59.7"/>
						
							<rect x="848.4" y="633.5" transform="matrix(0.9962 8.715574e-002 -8.715574e-002 0.9962 58.9437 -81.2493)" fill="#9ADCF8" width="223.1" height="1.7"/>
					</g>
					<g>
						
							<rect x="857.2" y="526.6" transform="matrix(0.9962 8.715574e-002 -8.715574e-002 0.9962 50.0931 -81.48)" fill="#FFFFFF" width="201.9" height="12.6"/>
						<g>
							
								<rect x="855.4" y="545.3" transform="matrix(0.9962 8.715574e-002 -8.715574e-002 0.9962 51.5356 -77.2123)" fill="#FFFFFF" width="109.2" height="12.6"/>
							
								<rect x="853.4" y="569.5" transform="matrix(0.9962 8.715574e-002 -8.715574e-002 0.9962 53.6981 -78.4136)" fill="#FFFFFF" width="143" height="12.6"/>
						</g>
					</g>
				</g>
				<g>
					<path fill="#EF5C4C" d="M371.7,394.6L98.8,418.5c-3.3,0.3-5.7,3.2-5.5,6.5l32.4,370c0.3,3.3,3.2,5.7,6.5,5.5l272.9-23.9
						c3.3-0.3,5.7-3.2,5.5-6.5l-32.4-370C377.9,396.8,375,394.4,371.7,394.6z"/>
					<g>
						
							<rect x="128.9" y="436.2" transform="matrix(0.9962 -8.715574e-002 8.715574e-002 0.9962 -39.7051 22.7314)" fill="#F9BEB8" width="223.1" height="59.7"/>
						
							<rect x="143.6" y="633.5" transform="matrix(0.9962 -8.715574e-002 8.715574e-002 0.9962 -54.3198 24.6555)" fill="#9ADCF8" width="223.1" height="1.7"/>
					</g>
					<g>
						
							<rect x="134.9" y="528.5" transform="matrix(0.9962 -8.715574e-002 8.715574e-002 0.9962 -45.711 22.5876)" fill="#FFFFFF" width="201.9" height="12.6"/>
						<g>
							
								<rect x="137" y="555.2" transform="matrix(0.9962 -8.715574e-002 8.715574e-002 0.9962 -48.209 18.8386)" fill="#FFFFFF" width="109.2" height="12.6"/>
							
								<rect x="139" y="576.4" transform="matrix(0.9962 -8.715574e-002 8.715574e-002 0.9962 -49.9869 20.5587)" fill="#FFFFFF" width="143" height="12.6"/>
						</g>
					</g>
				</g>
				<path fill="#B78A4F" d="M541.9,711.9H505c-6.6,0-12-5.4-12-12V535.7c0-6.6,5.4-12,12-12h36.9c6.6,0,12,5.4,12,12v164.2
					C553.9,706.5,548.5,711.9,541.9,711.9z"/>
				<path fill="#B78A4F" d="M612.6,711.9h-36.9c-6.6,0-12-5.4-12-12V535.7c0-6.6,5.4-12,12-12h36.9c6.6,0,12,5.4,12,12v164.2
					C624.6,706.5,619.2,711.9,612.6,711.9z"/>
				<path fill="#B78A4F" d="M682.8,711.9h-36.9c-6.6,0-12-5.4-12-12V535.7c0-6.6,5.4-12,12-12h36.9c6.6,0,12,5.4,12,12v164.2
					C694.8,706.5,689.4,711.9,682.8,711.9z"/>
				<path fill="#B78A4F" d="M745.3,711.9h-37.2c-6.6,0-12-5.4-12-12V534.7c0-6.6,5.4-12,12-12h37.2c6.6,0,12,5.4,12,12v165.2
					C757.3,706.5,751.9,711.9,745.3,711.9z"/>
				<path fill="#D3A86A" d="M521,701.8h-37.2c-6.6,0-12-5.4-12-12V524.7c0-6.6,5.4-12,12-12H521c6.6,0,12,5.4,12,12v165.2
					C533,696.4,527.6,701.8,521,701.8z"/>
				<path fill="#D3A86A" d="M601.6,701.9h-46.7c-6.6,0-12-5.4-12-12v-179c0-6.6,5.4-12,12-12h46.7c6.6,0,12,5.4,12,12v179
					C613.6,696.5,608.2,701.9,601.6,701.9z"/>
				<path fill="#D3A86A" d="M673,701.8h-47.6c-6.6,0-12-5.4-12-12V517.5c0-6.6,5.4-12,12-12H673c6.6,0,12,5.4,12,12v172.3
					C685,696.4,679.6,701.8,673,701.8z"/>
				<path fill="#D3A86A" d="M734.2,701.8H697c-6.6,0-12-5.4-12-12V524.7c0-6.6,5.4-12,12-12h37.2c6.6,0,12,5.4,12,12v165.2
					C746.2,696.4,740.8,701.8,734.2,701.8z"/>
				<path fill="#B78A4F" d="M453.8,725.5l-6.8-36.3c-1.2-6.5,3.1-12.8,9.6-14L618,645.2c6.5-1.2,12.8,3.1,14,9.6l6.8,36.3
					c1.2,6.5-3.1,12.8-9.6,14l-161.4,30.1C461.3,736.3,455,732,453.8,725.5z"/>
				<polygon fill="#D3A86A" points="482,804.5 439,720.8 527,679.8 				"/>
				<path fill="#D3A86A" d="M437.9,715.1l-6.8-36.3c-1.2-6.5,3.1-12.8,9.6-14l161.4-30.1c6.5-1.2,12.8,3.1,14,9.6l6.8,36.3
					c1.2,6.5-3.1,12.8-9.6,14l-161.4,30.1C445.4,726,439.1,721.6,437.9,715.1z"/>
			</g>
		</g>
	</g>
	<g>
		<circle fill="#9ADCF8" cx="607.6" cy="607.6" r="607.6"/>
		<g>
			<defs>
				<circle id="SVGID_21_" cx="607.6" cy="607.6" r="607.6"/>
			</defs>
			<clipPath id="SVGID_6_">
				<use xlink:href="#SVGID_21_"  overflow="visible"/>
			</clipPath>
			<polygon clip-path="url(#SVGID_6_)" fill="#C7C7C7" points="207.6,357.8 614.2,764.4 614.2,1112.9 1322.9,1112.9 1322.9,503.4 
				1215.1,503.4 1107.4,358.5 863,191.5 565.1,199.5 750.1,384.4 264,384.4 			"/>
		</g>
		<g>
			<defs>
				<circle id="SVGID_23_" cx="607.6" cy="607.6" r="607.6"/>
			</defs>
			<clipPath id="SVGID_8_">
				<use xlink:href="#SVGID_23_"  overflow="visible"/>
			</clipPath>
			<rect x="16.4" y="973" clip-path="url(#SVGID_8_)" fill="#EF5C4C" width="1224" height="317.7"/>
		</g>
		<circle fill="none" cx="607.6" cy="607.6" r="607.6"/>
		<path fill="#7C7C74" d="M463,639.3"/>
		<path fill="#00A7ED" d="M428.5,376.8l-64.9,80.5c-0.4,0.5-0.3,1.2,0.2,1.6l108.5,87.6c0.5,0.4,1.2,0.3,1.6-0.2l64.9-80.5
			c0.4-0.5,0.3-1.2-0.2-1.6l-108.5-87.6C429.6,376.2,428.9,376.3,428.5,376.8z"/>
		
			<rect x="371.9" y="419.9" transform="matrix(0.6281 -0.7781 0.7781 0.6281 -181.6445 481.769)" fill="#9ADCF8" width="82.5" height="22.1"/>
		
			<rect x="420.6" y="469.8" transform="matrix(0.6281 -0.7781 0.7781 0.6281 -194.0989 534.1898)" fill="#9ADCF8" width="82.5" height="0.6"/>
		
			<rect x="393" y="447.4" transform="matrix(0.6281 -0.7781 0.7781 0.6281 -189.9545 502.095)" fill="#FFFFFF" width="74.6" height="4.6"/>
		<g>
			
				<rect x="405.9" y="466.1" transform="matrix(0.6281 -0.7781 0.7781 0.6281 -206.0109 505.7459)" fill="#FFFFFF" width="40.4" height="4.6"/>
			
				<rect x="410.1" y="466.5" transform="matrix(0.6281 -0.7781 0.7781 0.6281 -202.4506 514.0575)" fill="#FFFFFF" width="52.9" height="4.6"/>
		</g>
		
			<line fill="none" stroke="#FFFFFF" stroke-width="12" stroke-linecap="round" stroke-linejoin="round" stroke-miterlimit="10" x1="875.7" y1="144.7" x2="803" y2="412.7"/>
		<path fill="#FFE35B" d="M870.8,161.3l-305.7,38.2c0,0,62,3,104.8,15.5c42.8,12.5,68.1,36.3,68.1,36.3s47.8-9.3,104.2,7.2
			c56.4,16.6,97.5,50.8,97.5,50.8s29.5-6.4,64.9,3.9c35.3,10.4,102.8,45.2,102.8,45.2L870.8,161.3z"/>
		<path fill="#EF5C4C" d="M553.1,356.5l-101.1,21.8c-0.6,0.1-1,0.8-0.9,1.4L480.6,516c0.1,0.6,0.8,1,1.4,0.9l101.1-21.8
			c0.6-0.1,1-0.8,0.9-1.4l-29.4-136.3C554.4,356.8,553.8,356.4,553.1,356.5z"/>
		
			<rect x="466" y="378" transform="matrix(0.9774 -0.2112 0.2112 0.9774 -70.7203 115.9159)" fill="#F9BEB8" width="82.5" height="22.1"/>
		
			<rect x="479.2" y="449.8" transform="matrix(0.9774 -0.2112 0.2112 0.9774 -83.32 120.0804)" fill="#9ADCF8" width="82.5" height="0.6"/>
		
			<rect x="471.4" y="412.1" transform="matrix(0.9774 -0.2112 0.2112 0.9774 -76.0557 116.8009)" fill="#FFFFFF" width="74.6" height="4.6"/>
		<g>
			
				<rect x="473.6" y="424" transform="matrix(0.9774 -0.2112 0.2112 0.9774 -78.8964 113.9066)" fill="#FFFFFF" width="40.4" height="4.6"/>
			
				<rect x="475.2" y="430.9" transform="matrix(0.9774 -0.2112 0.2112 0.9774 -80.1788 115.7273)" fill="#FFFFFF" width="52.9" height="4.6"/>
		</g>
		<path fill="#273E7A" d="M911,420.8l-59.9-84.3c-0.4-0.5-1.1-0.6-1.6-0.3l-113.6,80.8c-0.5,0.4-0.6,1.1-0.3,1.6l59.9,84.3
			c0.4,0.5,1.1,0.6,1.6,0.3l113.6-80.8C911.2,422.1,911.4,421.3,911,420.8z"/>
		
			<rect x="821.8" y="380.4" transform="matrix(0.5794 0.815 -0.815 0.5794 682.0457 -538.7542)" fill="#A9B2CA" width="82.5" height="22.1"/>
		
			<rect x="770.9" y="427.4" transform="matrix(0.5794 0.815 -0.815 0.5794 690.1331 -482.0298)" fill="#9ADCF8" width="82.5" height="0.6"/>
		
			<rect x="802.9" y="400.5" transform="matrix(0.5794 0.815 -0.815 0.5794 681.7368 -515.404)" fill="#FFFFFF" width="74.6" height="4.6"/>
		<g>
			
				<rect x="803.3" y="391.4" transform="matrix(0.5794 0.815 -0.815 0.5794 667.2695 -505.5389)" fill="#FFFFFF" width="40.4" height="4.6"/>
			
				<rect x="793.8" y="401.4" transform="matrix(0.5794 0.815 -0.815 0.5794 674.0292 -498.7003)" fill="#FFFFFF" width="52.9" height="4.6"/>
		</g>
		<path fill="#273E7A" d="M668.5,392.1l-101.7-18.8c-0.6-0.1-1.2,0.3-1.4,0.9l-25.3,137.1c-0.1,0.6,0.3,1.2,0.9,1.4l101.7,18.8
			c0.6,0.1,1.2-0.3,1.4-0.9l25.3-137.1C669.6,392.9,669.2,392.3,668.5,392.1z"/>
		
			<rect x="572.4" y="393.4" transform="matrix(0.9833 0.1818 -0.1818 0.9833 83.7572 -104.8259)" fill="#A9B2CA" width="82.5" height="22.1"/>
		
			<rect x="561.1" y="465.6" transform="matrix(0.9833 0.1818 -0.1818 0.9833 94.7365 -101.7373)" fill="#9ADCF8" width="82.5" height="0.6"/>
		
			<rect x="567.9" y="426.2" transform="matrix(0.9833 0.1818 -0.1818 0.9833 87.9842 -102.8921)" fill="#FFFFFF" width="74.6" height="4.6"/>
		<g>
			
				<rect x="566.7" y="431.3" transform="matrix(0.9833 0.1818 -0.1818 0.9833 88.6172 -99.4645)" fill="#FFFFFF" width="40.4" height="4.6"/>
			
				<rect x="565" y="440.7" transform="matrix(0.9833 0.1818 -0.1818 0.9833 90.406 -100.1454)" fill="#FFFFFF" width="52.9" height="4.6"/>
		</g>
		<path fill="#00A7ED" d="M615.5,386.6L516,358.5c-0.6-0.2-1.3,0.2-1.4,0.8l-37.9,134.2c-0.2,0.6,0.2,1.3,0.8,1.4L577,523
			c0.6,0.2,1.3-0.2,1.4-0.8L616.3,388C616.5,387.4,616.1,386.8,615.5,386.6z"/>
		
			<rect x="518.5" y="382.8" transform="matrix(0.9624 0.2715 -0.2715 0.9624 127.9493 -137.1881)" fill="#9ADCF8" width="82.5" height="22.1"/>
		
			<rect x="501.5" y="453.6" transform="matrix(0.9624 0.2715 -0.2715 0.9624 143.6374 -130.3238)" fill="#9ADCF8" width="82.5" height="0.6"/>
		
			<rect x="511.8" y="414.6" transform="matrix(0.9624 0.2715 -0.2715 0.9624 133.8351 -133.4379)" fill="#FFFFFF" width="74.6" height="4.6"/>
		<g>
			
				<rect x="510.2" y="418.1" transform="matrix(0.9624 0.2715 -0.2715 0.9624 134.0674 -128.2098)" fill="#FFFFFF" width="40.4" height="4.6"/>
			
				<rect x="507.7" y="427.9" transform="matrix(0.9624 0.2715 -0.2715 0.9624 136.8683 -128.8524)" fill="#FFFFFF" width="52.9" height="4.6"/>
		</g>
		<path fill="#00A7ED" d="M653.8,384.4l-36.5,96.7c-0.2,0.6,0.1,1.3,0.7,1.5l130.4,49.2c0.6,0.2,1.3-0.1,1.5-0.7l36.5-96.7
			c0.2-0.6-0.1-1.3-0.7-1.5l-130.4-49.2C654.7,383.5,654.1,383.8,653.8,384.4z"/>
		
			<rect x="615" y="429.5" transform="matrix(0.3532 -0.9355 0.9355 0.3532 12.2409 898.8651)" fill="#9ADCF8" width="82.5" height="22.1"/>
		
			<rect x="673.4" y="462.3" transform="matrix(0.3532 -0.9355 0.9355 0.3532 29.3967 967.8163)" fill="#9ADCF8" width="82.5" height="0.6"/>
		
			<rect x="641" y="450.8" transform="matrix(0.3532 -0.9355 0.9355 0.3532 14.8152 927.7086)" fill="#FFFFFF" width="74.6" height="4.6"/>
		<g>
			
				<rect x="660" y="469.8" transform="matrix(0.3532 -0.9355 0.9355 0.3532 -1.7831 941.7092)" fill="#FFFFFF" width="40.4" height="4.6"/>
			
				<rect x="663.8" y="467" transform="matrix(0.3532 -0.9355 0.9355 0.3532 7.421 949.2898)" fill="#FFFFFF" width="52.9" height="4.6"/>
		</g>
		<path fill="#EF5C4C" d="M761.2,554l-0.1-103.4c0-0.6-0.5-1.2-1.2-1.2l-139.4,0.1c-0.6,0-1.2,0.5-1.2,1.2l0.1,103.4
			c0,0.6,0.5,1.2,1.2,1.2l139.4-0.1C760.6,555.2,761.2,554.7,761.2,554z"/>
		
			<rect x="697.8" y="491.3" transform="matrix(9.637632e-004 1 -1 9.637632e-004 1240.6609 -237.178)" fill="#F9BEB8" width="82.5" height="22.1"/>
		
			<rect x="635.3" y="502.1" transform="matrix(9.637632e-004 1 -1 9.637632e-004 1178.3074 -174.644)" fill="#9ADCF8" width="82.5" height="0.6"/>
		
			<rect x="676.6" y="496.1" transform="matrix(9.637632e-004 1 -1 9.637632e-004 1211.6217 -215.9159)" fill="#FFFFFF" width="74.6" height="4.6"/>
		<g>
			
				<rect x="685.3" y="479" transform="matrix(9.637632e-004 1 -1 9.637632e-004 1186.0649 -224.5874)" fill="#FFFFFF" width="40.4" height="4.6"/>
			
				<rect x="670.6" y="485.2" transform="matrix(9.637632e-004 1 -1 9.637632e-004 1183.9091 -209.9253)" fill="#FFFFFF" width="52.9" height="4.6"/>
		</g>
		<path fill="#EF5C4C" d="M527,462.2l-57.5,85.9c-0.4,0.5-0.2,1.3,0.3,1.6l115.9,77.5c0.5,0.4,1.3,0.2,1.6-0.3l57.5-85.9
			c0.4-0.5,0.2-1.3-0.3-1.6l-115.9-77.5C528.1,461.5,527.3,461.7,527,462.2z"/>
		
			<rect x="475.3" y="506.4" transform="matrix(0.5562 -0.831 0.831 0.5562 -200.7601 658.9332)" fill="#F9BEB8" width="82.5" height="22.1"/>
		
			<rect x="527.2" y="551.9" transform="matrix(0.5562 -0.831 0.831 0.5562 -206.596 717.5011)" fill="#9ADCF8" width="82.5" height="0.6"/>
		
			<rect x="498" y="532.4" transform="matrix(0.5562 -0.831 0.831 0.5562 -206.7914 682.1506)" fill="#FFFFFF" width="74.6" height="4.6"/>
		<g>
			
				<rect x="512.6" y="551.3" transform="matrix(0.5562 -0.831 0.831 0.5562 -223.6414 688.4454)" fill="#FFFFFF" width="40.4" height="4.6"/>
			
				<rect x="516.8" y="550.8" transform="matrix(0.5562 -0.831 0.831 0.5562 -218.5745 696.9243)" fill="#FFFFFF" width="52.9" height="4.6"/>
		</g>
		<path fill="#273E7A" d="M629,474.1l-94.3,42.4c-0.6,0.3-0.8,1-0.6,1.5l57.2,127.2c0.3,0.6,1,0.8,1.5,0.6l94.3-42.4
			c0.6-0.3,0.8-1,0.6-1.5l-57.2-127.2C630.2,474.1,629.6,473.8,629,474.1z"/>
		
			<rect x="549.6" y="504.4" transform="matrix(0.912 -0.4102 0.4102 0.912 -159.4262 287.7165)" fill="#A9B2CA" width="82.5" height="22.1"/>
		
			<rect x="575.3" y="572.1" transform="matrix(0.912 -0.4102 0.4102 0.912 -180.5417 303.2409)" fill="#9ADCF8" width="82.5" height="0.6"/>
		
			<rect x="560.3" y="537.7" transform="matrix(0.912 -0.4102 0.4102 0.912 -168.9048 292.6407)" fill="#FFFFFF" width="74.6" height="4.6"/>
		<g>
			
				<rect x="565.3" y="552.4" transform="matrix(0.912 -0.4102 0.4102 0.912 -176.0092 288.9422)" fill="#FFFFFF" width="40.4" height="4.6"/>
			
				<rect x="568.2" y="557.5" transform="matrix(0.912 -0.4102 0.4102 0.912 -177.3042 293.1454)" fill="#FFFFFF" width="52.9" height="4.6"/>
		</g>
		
			<line fill="none" stroke="#FFFFFF" stroke-width="12" stroke-linecap="round" stroke-linejoin="round" stroke-miterlimit="10" x1="730.4" y1="256.9" x2="859.7" y2="162.7"/>
		
			<polyline fill="none" stroke="#FFFFFF" stroke-width="12" stroke-linecap="round" stroke-linejoin="round" stroke-miterlimit="10" points="
			1107.4,358.5 870.8,161.3 565.1,199.5 870.8,161.3 		"/>
		
			<line fill="none" stroke="#FFFFFF" stroke-width="12" stroke-linecap="round" stroke-linejoin="round" stroke-miterlimit="10" x1="937.3" y1="317.6" x2="879.4" y2="168.5"/>
		<polygon opacity="0.61" fill="#FFE35B" points="264,384.4 975.9,384.4 623.2,699.9 		"/>
		<path fill="#FFFFFF" d="M679.9,676.8l338.5-319H994L658,638.7c-26,21.8-63.9,21.8-90,0L232.1,357.8h-24.5l342.3,322.6
			c22,20.8,34.5,49.7,34.5,80v73.8c0,38.4-22.2,73.3-57,89.5L421.9,973h189.6h3h182.4l-109.8-53.7c-27.8-13.6-45.5-41.9-45.5-72.9
			v-80.8C641.6,732,655.5,699.9,679.9,676.8z"/>
	</g>
	<g>
		<circle fill="#9ADCF8" cx="607.6" cy="607.6" r="607.6"/>
		<g>
			<defs>
				<circle id="SVGID_25_" cx="607.6" cy="607.6" r="607.6"/>
			</defs>
			<clipPath id="SVGID_10_">
				<use xlink:href="#SVGID_25_"  overflow="visible"/>
			</clipPath>
			<polygon clip-path="url(#SVGID_10_)" fill="#78ACC2" points="45.5,783.4 700.6,1438.5 1371.4,881 1271.3,780.9 1271.3,700.8 
				1247.4,700.8 1270.4,676.8 935.2,341.6 			"/>
		</g>
		<g>
			<defs>
				<circle id="SVGID_27_" cx="607.6" cy="607.6" r="607.6"/>
			</defs>
			<clipPath id="SVGID_12_">
				<use xlink:href="#SVGID_27_"  overflow="visible"/>
			</clipPath>
			<rect x="16.4" y="834.8" clip-path="url(#SVGID_12_)" fill="#EF5C4C" width="1224" height="456"/>
		</g>
		<circle fill="none" cx="607.6" cy="607.6" r="607.6"/>
		<path fill="#7C7C74" d="M474,639.3"/>
		<g>
			<defs>
				<circle id="SVGID_29_" cx="607.6" cy="607.6" r="607.6"/>
			</defs>
			<clipPath id="SVGID_13_">
				<use xlink:href="#SVGID_29_"  overflow="visible"/>
			</clipPath>
			<g clip-path="url(#SVGID_13_)">
				<g>
					<g>
						
							<rect x="553.6" y="-11.5" transform="matrix(0.7071 0.7071 -0.7071 0.7071 185.3339 -455.9093)" fill="none" width="178.8" height="14.5"/>
					</g>
					<g>
						
							<rect x="641.2" y="-97.1" transform="matrix(0.7071 0.7071 -0.7071 0.7071 187.5912 -459.5274)" fill="none" width="14.5" height="187.5"/>
					</g>
					<circle fill="none" cx="645.1" cy="-2.1" r="44.2"/>
					<path fill="none" d="M1117.6,485.2l-86.5-86.5h-43L842,252.6l-8.7,8.7l-52.2-52.2l22.9-22.9L697.8,79.9h-50.4
						c0,0-83.1-2.3-83.1-83.1s84-84,84-84s72.4,1.6,72.4,83.9h20.2c0,0-9.2-62.2-33-82.4l12.8-45.3H544.8v263.2
						c0,0,9.4,53.9,91.7,84.6l25.4,25.4l83.5-13.9l47.6,47.6l62.5,41.4l4.4,2.9v315.4l284,18.6V502.3L1117.6,485.2z"/>
					<polygon fill="none" points="640.6,106.9 732.1,15.5 764.6,48 658.3,154.3 					"/>
				</g>
				<g>
					<path fill="#171919" d="M267.5,833.2h-67.6c-6.6,0-12-5.4-12-12V760c0-6.6,5.4-12,12-12h67.6c6.6,0,12,5.4,12,12v61.2
						C279.5,827.8,274.1,833.2,267.5,833.2z"/>
					<path fill="#171919" d="M1006.4,833.2h-67.6c-6.6,0-12-5.4-12-12V760c0-6.6,5.4-12,12-12h67.6c6.6,0,12,5.4,12,12v61.2
						C1018.4,827.8,1013,833.2,1006.4,833.2z"/>
				</g>
				<path fill="#3D3D3D" d="M1130.9,595.5H1021c0,0-59.1,6.5-68.7-88.3c-9.6-94.8-19.2-170.4-19.2-170.4H722.2H511.3
					c0,0-9.6,75.6-19.2,170.4c-5.1,50.6-24.4,72.4-41.2,81.6v-1.9V402.8H94.3v166.2L60,603.4v102.4l-14.4,14.4v63.2h24.7l15.1-15.1
					c22.2,6.4,76,17.9,174.5,17.9c136,0,730.9,0,730.9,0s112.1-1.4,167.6-22V603.4h-5.5L1130.9,595.5z"/>
				<path fill="#FFFFFF" stroke="#00FFFF" stroke-width="34" stroke-miterlimit="10" d="M844.6,683.7c-82.5,11.7-165,11.7-247.5,0
					c-8.6-1.3-17.3-9.4-19-18c-13.2-67.6-13.2-135.2,0-202.7c1.7-8.6,10.4-16.8,19-18c82.5-11.7,165-11.7,247.5,0
					c8.6,1.3,17.3,9.4,19,18c13.2,67.6,13.2,135.2,0,202.7C861.8,674.3,853.2,682.4,844.6,683.7z"/>
				<path fill="#D3D5D6" stroke="#A9ABAE" stroke-width="18" stroke-miterlimit="10" d="M844.6,683.7c-82.5,11.7-165,11.7-247.5,0
					c-8.6-1.3-17.3-9.4-19-18c-13.2-67.6-13.2-135.2,0-202.7c1.7-8.6,10.4-16.8,19-18c82.5-11.7,165-11.7,247.5,0
					c8.6,1.3,17.3,9.4,19,18c13.2,67.6,13.2,135.2,0,202.7C861.8,674.3,853.2,682.4,844.6,683.7z"/>
				<rect x="590" y="353.2" fill="none" stroke="#969696" stroke-width="4" stroke-miterlimit="10" width="70" height="25.3"/>
				<rect x="664.7" y="353.2" fill="none" stroke="#969696" stroke-width="4" stroke-miterlimit="10" width="186.9" height="25.3"/>
				<g>
					<rect x="672.5" y="362.1" fill="#FFFFFF" width="4.6" height="7.3"/>
					<rect x="681.8" y="362.1" fill="#FFFFFF" width="4.6" height="7.3"/>
					<rect x="691" y="362.1" fill="#FFFFFF" width="4.6" height="7.3"/>
					<rect x="700.3" y="362.1" fill="#FFFFFF" width="4.6" height="7.3"/>
					<rect x="709.6" y="362.1" fill="#FFFFFF" width="4.6" height="7.3"/>
					<rect x="718.9" y="362.1" fill="#FFFFFF" width="4.6" height="7.3"/>
					<rect x="728.1" y="362.1" fill="#FFFFFF" width="4.6" height="7.3"/>
					<rect x="737.4" y="362.1" fill="#FFFFFF" width="4.6" height="7.3"/>
					<rect x="746.7" y="362.1" fill="#FFFFFF" width="4.6" height="7.3"/>
					<rect x="755.9" y="362.1" fill="#FFFFFF" width="4.6" height="7.3"/>
				</g>
				<g>
					<circle fill="#3D3D3D" cx="720.7" cy="565.2" r="104.1"/>
					<path fill="#969696" d="M745.2,567.6c40.8-0.6,70.9-2.4,70.9-2.4s-30.1-1.8-70.9-2.4c39.9-8.5,69.1-16.2,69.1-16.2
						s-29.9,4.1-70,11.5c37.5-16.2,64.6-29.4,64.6-29.4s-28.5,9.8-66.4,24.9c33.6-23.2,57.6-41.4,57.6-41.4s-26,15.2-60.3,37.4
						c28.5-29.3,48.4-51.9,48.4-51.9s-22.6,20-51.9,48.4c22.2-34.3,37.4-60.3,37.4-60.3s-18.2,24-41.4,57.6
						c15.1-37.9,24.9-66.4,24.9-66.4s-13.2,27.1-29.4,64.6c7.4-40.2,11.5-70,11.5-70s-7.7,29.2-16.2,69.1
						c-0.6-40.8-2.4-70.9-2.4-70.9s-1.8,30.1-2.4,70.9c-8.5-39.9-16.2-69.1-16.2-69.1s4.1,29.9,11.5,70
						c-16.2-37.5-29.4-64.6-29.4-64.6s9.8,28.5,24.9,66.4c-23.2-33.6-41.4-57.6-41.4-57.6s15.2,26,37.4,60.3
						c-29.3-28.5-51.9-48.4-51.9-48.4s20,22.6,48.4,51.9c-34.3-22.2-60.3-37.4-60.3-37.4s24,18.2,57.6,41.4
						c-37.9-15.1-66.4-24.9-66.4-24.9s27.1,13.2,64.6,29.4c-40.2-7.4-70-11.5-70-11.5s29.2,7.7,69.1,16.2
						c-40.8,0.6-70.9,2.4-70.9,2.4s30.1,1.8,70.9,2.4c-39.9,8.5-69.1,16.2-69.1,16.2s29.9-4.1,70-11.5
						c-37.5,16.2-64.6,29.4-64.6,29.4s28.5-9.8,66.4-24.9c-33.6,23.2-57.6,41.4-57.6,41.4s26-15.2,60.3-37.4
						c-28.5,29.3-48.4,51.9-48.4,51.9s22.6-20,51.9-48.4c-22.2,34.3-37.4,60.3-37.4,60.3s18.2-24,41.4-57.6
						c-15.1,37.9-24.9,66.4-24.9,66.4s13.2-27.1,29.4-64.6c-7.4,40.2-11.5,70-11.5,70s7.7-29.2,16.2-69.1
						c0.6,40.8,2.4,70.9,2.4,70.9s1.8-30.1,2.4-70.9c8.5,39.9,16.2,69.1,16.2,69.1s-4.1-29.9-11.5-70c16.2,37.5,29.4,64.6,29.4,64.6
						s-9.8-28.5-24.9-66.4c23.2,33.6,41.4,57.6,41.4,57.6s-15.2-26-37.4-60.3c29.3,28.5,51.9,48.4,51.9,48.4s-20-22.6-48.4-51.9
						C774,603,800,618.2,800,618.2s-24-18.2-57.6-41.4c37.9,15.1,66.4,24.9,66.4,24.9s-27.1-13.2-64.6-29.4
						c40.2,7.4,70,11.5,70,11.5S785.1,576.2,745.2,567.6z"/>
					<path fill="#969696" d="M745.3,565.2c40.6-4.6,70.3-9.3,70.3-9.3s-30.1,1.1-70.8,4.5c38.9-12.4,67.2-22.9,67.2-22.9
						s-29.3,7-68.6,18.3c35.7-19.7,61.4-35.5,61.4-35.5s-27.4,12.6-63.7,31.3c31.2-26.3,53.3-46.8,53.3-46.8s-24.4,17.7-56.4,43.1
						c25.5-31.9,43.2-56.3,43.2-56.3s-20.5,22.1-46.9,53.3c18.7-36.3,31.3-63.7,31.3-63.7s-15.8,25.7-35.6,61.4
						c11.3-39.2,18.3-68.6,18.3-68.6s-10.5,28.3-22.9,67.2c3.4-40.7,4.6-70.8,4.6-70.8s-4.8,29.8-9.4,70.3
						c-4.6-40.6-9.3-70.3-9.3-70.3s1.1,30.1,4.5,70.8c-12.4-38.9-22.9-67.2-22.9-67.2s7,29.3,18.3,68.6
						c-19.7-35.7-35.5-61.4-35.5-61.4s12.6,27.4,31.3,63.7c-26.3-31.2-46.8-53.3-46.8-53.3s17.7,24.4,43.1,56.4
						c-31.9-25.5-56.3-43.2-56.3-43.2s22.1,20.5,53.3,46.9c-36.3-18.7-63.7-31.3-63.7-31.3s25.7,15.8,61.4,35.6
						c-39.2-11.3-68.6-18.3-68.6-18.3s28.3,10.5,67.2,22.9c-40.7-3.4-70.8-4.6-70.8-4.6s29.8,4.8,70.3,9.4
						c-40.6,4.6-70.3,9.3-70.3,9.3s30.1-1.1,70.8-4.5c-38.9,12.4-67.2,22.9-67.2,22.9s29.3-7,68.6-18.3
						c-35.7,19.7-61.4,35.5-61.4,35.5s27.4-12.6,63.7-31.3c-31.2,26.3-53.3,46.8-53.3,46.8s24.4-17.7,56.4-43.1
						c-25.5,31.9-43.2,56.3-43.2,56.3s20.5-22.1,46.9-53.3c-18.7,36.3-31.3,63.7-31.3,63.7s15.8-25.7,35.6-61.4
						C700,627.2,693,656.5,693,656.5s10.5-28.3,22.9-67.2c-3.4,40.7-4.6,70.8-4.6,70.8s4.8-29.8,9.4-70.3
						c4.6,40.6,9.3,70.3,9.3,70.3s-1.1-30.1-4.5-70.8c12.4,38.9,22.9,67.2,22.9,67.2s-7-29.3-18.3-68.6
						c19.7,35.7,35.5,61.4,35.5,61.4s-12.6-27.4-31.3-63.7c26.3,31.2,46.8,53.3,46.8,53.3s-17.7-24.4-43.1-56.4
						c31.9,25.5,56.3,43.2,56.3,43.2s-22.1-20.5-53.3-46.9c36.3,18.7,63.7,31.3,63.7,31.3s-25.7-15.8-61.4-35.6
						C782.6,586,812,593,812,593s-28.3-10.5-67.2-22.9c40.7,3.4,70.8,4.6,70.8,4.6S785.8,569.8,745.3,565.2z"/>
					<circle fill="#212121" cx="720.7" cy="565.2" r="58"/>
					<circle fill="#E9E8E8" cx="716.2" cy="536.7" r="17.7"/>
				</g>
				<path fill="#424D51" stroke="#A9ABAE" stroke-width="11" stroke-miterlimit="10" d="M243.4,567.8H138.6c-6.6,0-12-5.4-12-12
					V451.1c0-6.6,5.4-12,12-12h104.7c6.6,0,12,5.4,12,12v104.7C255.4,562.4,250,567.8,243.4,567.8z"/>
				<g>
					<line fill="none" stroke="#A9ABAE" stroke-width="11" stroke-miterlimit="10" x1="148.9" y1="471.1" x2="208.1" y2="471.1"/>
					<line fill="none" stroke="#A9ABAE" stroke-width="11" stroke-miterlimit="10" x1="148.9" y1="490" x2="178.5" y2="490"/>
					<line fill="none" stroke="#A9ABAE" stroke-width="11" stroke-miterlimit="10" x1="148.9" y1="508.8" x2="202.1" y2="508.8"/>
					<line fill="none" stroke="#A9ABAE" stroke-width="11" stroke-miterlimit="10" x1="148.9" y1="527.7" x2="185.8" y2="527.7"/>
				</g>
				<g>
					<path fill="#424D51" stroke="#A9ABAE" stroke-width="11" stroke-miterlimit="10" d="M393.8,567.8H289.1c-6.6,0-12-5.4-12-12
						V451.1c0-6.6,5.4-12,12-12h104.7c6.6,0,12,5.4,12,12v104.7C405.8,562.4,400.4,567.8,393.8,567.8z"/>
					<g>
						<line fill="none" stroke="#A9ABAE" stroke-width="11" stroke-miterlimit="10" x1="300.3" y1="461.6" x2="365.5" y2="461.6"/>
						<line fill="none" stroke="#A9ABAE" stroke-width="11" stroke-miterlimit="10" x1="300.3" y1="480.5" x2="317.4" y2="480.5"/>
						<line fill="none" stroke="#A9ABAE" stroke-width="11" stroke-miterlimit="10" x1="300.3" y1="499.4" x2="317.4" y2="499.4"/>
						<line fill="none" stroke="#A9ABAE" stroke-width="11" stroke-miterlimit="10" x1="300.3" y1="518.3" x2="369.8" y2="518.3"/>
						<line fill="none" stroke="#A9ABAE" stroke-width="11" stroke-miterlimit="10" x1="300.3" y1="537.1" x2="356.9" y2="537.1"/>
					</g>
				</g>
				<g>
					<path fill="#8C9193" d="M740.6,693.8c-55.2,0-107.1-4.8-152.8-13.2c3.5,3.4,8,5.9,12.4,6.6c77,10.9,154,11.6,231,2.2
						C802.4,692.3,772,693.8,740.6,693.8z"/>
					<path fill="#8C9193" d="M740.6,462.2c45,0,87.9,3.2,127,8.9c-0.3-1.6-0.6-3.2-0.9-4.7c-1.7-8.6-10.4-16.8-19-18
						c-82.5-11.7-165-11.7-247.5,0c-8.6,1.3-17.3,9.4-19,18c-0.7,3.6-1.3,7.1-2,10.7C626.9,467.6,682,462.2,740.6,462.2z"/>
				</g>
				<path fill="none" stroke="#A9ABAE" stroke-width="6" stroke-miterlimit="10" d="M1155.5,617.4c-165.6,0-165.6-1.8-202.1-1.8
					c-36.5,0-33.8-50.7-33.8-50.7l-6.8-166.5H531.4c0,0,0,99.6,0,159.5s-61.6,53.7-61.6,53.7l-307.5,14.1l-75.7,96.7
					c0,14,0,27.9,0,41.9"/>
				<rect x="934.6" y="651.5" fill="none" stroke="#A9ABAE" stroke-width="4" stroke-miterlimit="10" width="44" height="44"/>
				<rect x="996.4" y="651.5" fill="none" stroke="#A9ABAE" stroke-width="4" stroke-miterlimit="10" width="44" height="44"/>
				<rect x="1058.2" y="651.5" fill="#E5E5E5" stroke="#A9ABAE" stroke-width="4" stroke-miterlimit="10" width="44" height="44"/>
			</g>
		</g>
		<g>
			<defs>
				<rect id="SVGID_31_" x="497.9" y="75.4" width="464" height="276"/>
			</defs>
			<clipPath id="SVGID_14_">
				<use xlink:href="#SVGID_31_"  overflow="visible"/>
			</clipPath>
			<g clip-path="url(#SVGID_14_)">
				<path fill="#FFE35B" d="M843.4,161.9H673.3c-3.3,0-6,2.7-6,6v232.2c0,3.3,2.7,6,6,6h170.1c3.3,0,6-2.7,6-6V167.9
					C849.4,164.6,846.7,161.9,843.4,161.9z"/>
				<rect x="687.3" y="180.9" fill="#FFF4BE" width="142.1" height="38"/>
				<rect x="687.3" y="307" fill="#EF5C4C" width="142.1" height="1.1"/>
				<rect x="687.3" y="239.2" fill="#EF5C4C" width="128.6" height="8"/>
				<g>
					<rect x="687.3" y="253.8" fill="#EF5C4C" width="69.5" height="8"/>
					<rect x="687.3" y="268.3" fill="#EF5C4C" width="91.1" height="8"/>
				</g>
			</g>
		</g>
	</g>
	<g>
		<g>
			<defs>
				<circle id="SVGID_103_" cx="-953.7" cy="654.8" r="607.6"/>
			</defs>
			<clipPath id="SVGID_16_">
				<use xlink:href="#SVGID_103_"  overflow="visible"/>
			</clipPath>
			<polygon clip-path="url(#SVGID_16_)" fill="#78ACC2" points="-1183.1,446.6 -943.4,686.3 -808.5,561.9 -706.8,663.5 
				-439.5,471.5 4.8,915.8 -750.2,1670.7 -907.8,1369.2 -1435.6,841.4 			"/>
		</g>
	</g>
</g>
</svg>
