<?xml version="1.0" encoding="utf-8"?>
<!-- Generator: Adobe Illustrator 17.1.0, SVG Export Plug-In . SVG Version: 6.00 Build 0)  -->
<!DOCTYPE svg PUBLIC "-//W3C//DTD SVG 1.1//EN" "http://www.w3.org/Graphics/SVG/1.1/DTD/svg11.dtd">
<svg version="1.1" id="Warstwa_1" xmlns="http://www.w3.org/2000/svg" xmlns:xlink="http://www.w3.org/1999/xlink" x="0px" y="0px"
	 width="2192px" height="656px" viewBox="0 0 1096 328" enable-background="new 0 0 1096 328" xml:space="preserve">
<polygon fill="#CDCCCC" points="329.5,306.5 351.1,328 1094,328 766.5,0 "/>
<polygon fill="none" points="768,307 746.9,328 4,328 330.2,1.8 "/>
<g>
	<polygon fill="#3E3E3E" points="645.9,328 450.1,328 465.1,318.8 630.9,318.8 	"/>
	<rect x="538.6" y="286.6" fill="#3E3E3E" width="18.7" height="39.7"/>
</g>
<rect x="329.5" y="0" fill="#2D2E2D" width="437" height="306.5"/>
<rect x="333.5" y="17.5" fill="#9CDCF7" width="429" height="253.6"/>
<g>
	<polygon fill="#943338" points="651.2,271.1 456.3,271.1 473.3,172.4 553.7,128.2 634.2,172.4 	"/>
	<polygon fill="#FFFFFF" points="553.7,128.2 522.8,141.8 553.7,271.1 584.7,141.8 	"/>
	<polygon fill="#B5555C" points="503.4,155.4 489.7,190 515.1,190 496.3,204.2 553.7,271.1 522.8,141.8 	"/>
	<polygon fill="#B5555C" points="604,155.4 617.8,190 592.3,190 611.2,204.2 553.7,271.1 584.7,141.8 	"/>
	<polygon fill="#6F81A9" points="558.6,184.9 566.9,167.7 564.3,163.9 553.7,152.7 543.2,163.9 540.6,167.7 548.9,184.9 539,225.5 
		553.7,271.1 568.5,225.5 	"/>
	<g>
		<path fill="#CDA190" d="M588.4,107c0,46.1-13.6,54.6-34.7,54.6c-21,0-34.7-8.5-34.7-54.6c0-30.2,0.4-54.2,34.7-54.6
			C586.2,52.3,588.4,76.8,588.4,107z"/>
		<path fill="#CDA190" d="M511.2,110.9c-2.1,7.6,3.5,13.5,6.1,13.2c2.6-0.3,4.1-6.6,3.3-14.2c-0.8-7.6-3.5-13.5-6.1-13.2
			C511.8,97,513.2,103.6,511.2,110.9z"/>
		<path fill="#CDA190" d="M595.6,110.9c-0.8,7.6,1.6,13.3-6.1,13.2c-2.6,0-4.1-6.6-3.3-14.2c0.8-7.6,3.5-13.5,6.1-13.2
			C594.9,97,596.4,103.3,595.6,110.9z"/>
	</g>
	<path fill="#504333" d="M571.5,134.9c-0.6-8.1-8.2-7.9-8.2-7.9h-19.6c0,0-8.5,1.2-7.7,7.9l-0.9,3.4l3.9-1.5l2.1,0.8l2.5-0.8
		l2.8,1.5h3.9h3.5h3.4h3.9l2.8-1.5l2.5,0.8l2.1-0.8l3.3,0L571.5,134.9z"/>
	<path fill="#504333" d="M551.3,73c0,0,25.7-2.4,22.7-16c-5.6-25.2-26-21.4-26-21.4s-29.6,2.9-37.3,16.7c-8.6,15.5-15.4,25-12.9,34
		s4.1,19-0.8,25.2s13.9,16.4,13.9,16.4l9.8,3.1v-8.3c0,0-9.4-3.9-9.5-9.1c-0.3-13.5,12,0.1,12.6-5.9c0.6-6-2.9-28.9,5.5-33.5
		C537.9,69.5,540.8,74.2,551.3,73z"/>
	<path fill="#504333" d="M564.6,67.7c0,0,4.7,1.1,4.7-8.1s5.1-15.7,12.9-12.3s31,8.8,18.1,69.8l-14.5,18.7l0.2-13.2
		c0,0,10.6,2.1,9.6-11.7l-10.9-9.9C584.7,101,582.4,69.1,564.6,67.7z"/>
	<rect x="584.7" y="90.6" fill="#504333" width="6.2" height="26.5"/>
	<rect x="517.7" y="73.7" fill="#504333" width="6.2" height="43.4"/>
	<path fill="#504333" d="M559,101.9l2,3.4l13.5-1.5l7.9,3.3l0.5-4.6l-4-4.4c-0.8-0.9-2-1.4-3.2-1.3l-11,2.2l-4.1,1"/>
	<polyline fill="#504333" points="549,100.8 548.3,106.4 534.4,104.9 526.3,107.6 526,103.3 532.8,96.2 545.8,99.7 551,100.4 	"/>
</g>
<g>
	<path fill="#2D2E2D" d="M519.4,171L519.4,171c-5.2,0-9.5,4.2-9.5,9.5v15.8c0,5.2,4.2,9.5,9.5,9.5l0,0c5.2,0,9.5-4.2,9.5-9.5v-15.8
		C528.8,175.2,524.6,171,519.4,171z"/>
	<rect x="515.1" y="219.4" fill="#8C8280" width="8.5" height="43.8"/>
	<rect x="507.6" y="194.3" fill="#FFFFFF" width="23.5" height="29.7"/>
	<g>
		<path fill="#010101" d="M492.6,251.2h-0.5V251h1.1v0.2h-0.5v1.3h-0.2V251.2z"/>
	</g>
	<g>
		<path fill="#CDA190" d="M506.8,231.3l-5.6,38.4c0,1.2,1,2.2,2.2,2.2h23.7c1.2,0,2.2-1,2.2-2.2v-38.6c0-1.2-1-2.2-2.2-2.2L509,229
			C507.8,229,506.8,230,506.8,231.3z"/>
		<path fill="#A87E72" d="M512.6,239.2v13.1c0,5.7,4.7,10.4,10.4,10.4h0c5.7,0,10.4-4.7,10.4-10.4v-13.1c0-5.7-4.7-10.4-10.4-10.4h0
			C517.3,228.7,512.6,233.4,512.6,239.2z"/>
		<path fill="#A87E72" d="M508.8,249.9L508.8,249.9c0,2.2,1.8,4,4,4h16.7c2.2,0,4-1.8,4-4l0,0c0-2.2-1.8-4-4-4h-16.7
			C510.6,245.9,508.8,247.7,508.8,249.9z"/>
		<path fill="#A87E72" d="M508.8,240.7L508.8,240.7c0,2.2,1.8,4,4,4h16.7c2.2,0,4-1.8,4-4v0c0-2.2-1.8-4-4-4h-16.7
			C510.6,236.7,508.8,238.5,508.8,240.7z"/>
		<path fill="#CDA190" d="M509.4,259.1L509.4,259.1c0,2.1,1.7,3.8,3.8,3.8h15.7c2.1,0,3.8-1.7,3.8-3.8l0,0c0-2.1-1.7-3.8-3.8-3.8
			h-15.7C511.1,255.3,509.4,257,509.4,259.1z"/>
		<path fill="#CDA190" d="M507.8,249.1L507.8,249.1c0,2.4,2,4.4,4.4,4.4H530c2.4,0,4.4-2,4.4-4.4v0c0-2.4-2-4.4-4.4-4.4h-17.8
			C509.8,244.7,507.8,246.7,507.8,249.1z"/>
		<path fill="#CDA190" d="M507.8,239.3L507.8,239.3c0,1.9,1.6,3.5,3.5,3.5H530c1.9,0,3.5-1.6,3.5-3.5l0,0c0-1.9-1.6-3.5-3.5-3.5
			h-18.7C509.4,235.8,507.8,237.4,507.8,239.3z"/>
		<path fill="#CDA190" d="M510,231.2L510,231.2c0,2,1.6,3.7,3.7,3.7h15.3c2,0,3.7-1.6,3.7-3.7l0,0c0-2-1.6-3.7-3.7-3.7h-15.3
			C511.6,227.5,510,229.2,510,231.2z"/>
	</g>
</g>
<rect x="333.5" y="199.4" fill="#666699" width="366.7" height="40.1"/>
<g>
	<path fill="#FFFFFF" d="M354.6,210.2h5.7c0.9,0,1.8,0.1,2.6,0.3c0.8,0.2,1.4,0.4,2,0.8c0.6,0.3,1,0.8,1.3,1.3
		c0.3,0.5,0.5,1.2,0.5,1.9c0,1.1-0.4,2.1-1.1,2.9c-0.7,0.8-1.7,1.4-3,1.8l-0.1,0.1c1,0.3,1.8,0.7,2.4,1.3s0.9,1.3,0.9,2.3
		c0,1.1-0.2,2-0.6,2.8c-0.4,0.8-1,1.4-1.8,1.9c-0.7,0.5-1.6,0.9-2.6,1.1c-1,0.2-2,0.3-3.1,0.3h-6.8L354.6,210.2z M357.9,226
		c1.3,0,2.4-0.3,3.1-0.8c0.7-0.5,1.1-1.3,1.1-2.2c0-0.8-0.2-1.4-0.7-1.8c-0.5-0.4-1.3-0.6-2.3-0.6h-2.4l-1.1,5.4H357.9z
		 M358.9,217.9c1.3,0,2.3-0.3,2.9-0.8c0.6-0.5,0.9-1.2,0.9-2c0-0.6-0.2-1.1-0.7-1.4c-0.5-0.3-1.2-0.5-2.3-0.5H358l-0.9,4.7H358.9z"
		/>
	<path fill="#FFFFFF" d="M377.9,210.2c0.9,0,1.8,0.1,2.6,0.3c0.8,0.2,1.5,0.5,2,0.8c0.6,0.4,1,0.9,1.3,1.5c0.3,0.6,0.5,1.4,0.5,2.2
		c0,0.9-0.1,1.7-0.4,2.4c-0.2,0.7-0.6,1.3-1,1.9c-0.4,0.5-0.9,1-1.5,1.4c-0.6,0.4-1.2,0.7-1.9,0.9l2.9,7.4h-4.2l-2.4-6.9h-2.3
		l-1.4,6.9h-4l3.8-18.8H377.9z M376.2,219c1.4,0,2.5-0.3,3.2-0.9s1.1-1.4,1.1-2.5c0-0.8-0.3-1.4-0.8-1.7c-0.5-0.3-1.3-0.5-2.3-0.5
		h-2l-1.1,5.6H376.2z"/>
	<path fill="#FFFFFF" d="M389.2,210.2h11.1l-0.6,3.3h-7.2l-0.8,4.1h6.1l-0.6,3.3H391l-1,4.8h7.5l-0.6,3.3h-11.4L389.2,210.2z"/>
	<path fill="#FFFFFF" d="M410.2,224.3h-5.6l-2.2,4.7H398l9.9-18.8h4.7l1.9,18.8h-4.1L410.2,224.3z M410.1,221.3l-0.1-2.5
		c0-0.9-0.1-1.8-0.1-2.7c0-0.9-0.1-1.9-0.1-2.9h-0.1c-0.4,1-0.8,1.9-1.2,2.8s-0.8,1.8-1.2,2.8l-1.2,2.5H410.1z"/>
	<path fill="#FFFFFF" d="M420.2,210.2h3.9l-1.5,7.7h0.1l7.1-7.7h4.3l-6.8,7.7l4.2,11.1h-4.1l-3-8.6l-2.9,3.1l-1.1,5.5h-4
		L420.2,210.2z"/>
	<path fill="#FFFFFF" d="M437.6,210.2h3.9l-3.7,18.8h-4L437.6,210.2z"/>
	<path fill="#FFFFFF" d="M446.1,210.2h3.8l3.1,9.8l1,4.1h0.1c0.1-0.5,0.1-1,0.1-1.6c0-0.6,0.1-1.2,0.1-1.7s0.1-1.2,0.2-1.8
		s0.2-1.2,0.3-1.7l1.4-7.1h3.7l-3.7,18.8h-3.8l-3.1-9.8l-1-4.2h-0.1c-0.1,1.1-0.2,2.2-0.3,3.3c-0.1,1.2-0.3,2.3-0.5,3.4l-1.4,7.2
		h-3.8L446.1,210.2z"/>
	<path fill="#FFFFFF" d="M461.6,221.5c0-1.6,0.3-3.1,0.8-4.5c0.5-1.4,1.2-2.6,2.1-3.7c0.9-1,2-1.9,3.3-2.5c1.3-0.6,2.6-0.9,4.1-0.9
		c1.2,0,2.3,0.3,3.1,0.8c0.9,0.5,1.6,1.3,2.1,2.2l-2.7,2.1c-0.4-0.6-0.8-1-1.2-1.2c-0.4-0.3-1-0.4-1.6-0.4c-0.9,0-1.7,0.2-2.4,0.6
		c-0.7,0.4-1.4,1-1.9,1.7c-0.5,0.7-1,1.6-1.3,2.5c-0.3,1-0.4,2-0.4,3c0,0.7,0.1,1.4,0.2,2c0.1,0.6,0.4,1.1,0.7,1.5
		c0.3,0.4,0.7,0.7,1.3,1c0.5,0.2,1.1,0.3,1.9,0.3c0.4,0,0.8-0.1,1.1-0.2c0.4-0.1,0.7-0.3,0.9-0.5l0.8-3.7h-3.1l0.6-3.2h6.5l-1.7,9
		c-0.7,0.6-1.6,1-2.6,1.4c-1,0.4-2.1,0.6-3.3,0.6c-1.2,0-2.2-0.2-3.1-0.5s-1.7-0.9-2.3-1.5c-0.6-0.7-1.1-1.5-1.5-2.5
		C461.8,223.9,461.6,222.7,461.6,221.5z"/>
	<path fill="#FFFFFF" d="M487.9,210.2h3.8l3.1,9.8l1,4.1h0.1c0.1-0.5,0.1-1,0.1-1.6c0-0.6,0.1-1.2,0.1-1.7s0.1-1.2,0.2-1.8
		s0.2-1.2,0.3-1.7l1.4-7.1h3.7l-3.7,18.8h-3.8l-3.1-9.8l-1-4.2h-0.1c-0.1,1.1-0.2,2.2-0.3,3.3c-0.1,1.2-0.3,2.3-0.5,3.4l-1.4,7.2
		h-3.8L487.9,210.2z"/>
	<path fill="#FFFFFF" d="M506.5,210.2h11.1l-0.6,3.3h-7.2l-0.8,4.1h6.1l-0.6,3.3h-6.1l-1,4.8h7.5l-0.6,3.3h-11.4L506.5,210.2z"/>
	<path fill="#FFFFFF" d="M519.9,210.2h4l-0.6,9c-0.1,1-0.2,2-0.3,3s-0.2,2-0.3,3h0.1c0.4-1,0.8-2,1.2-3c0.4-1,0.8-2,1.2-3l3.9-9h3.3
		l0.1,9c0,1,0,2-0.1,3s-0.1,2-0.1,3h0.1c0.3-1,0.7-2,1.1-3c0.4-1,0.7-2,1-3l3.2-9h3.8l-7.3,18.8h-5l0.1-9c0-0.6,0-1.3,0.1-2.1
		s0.1-1.5,0.2-2.3h-0.1c-0.3,0.7-0.6,1.4-0.9,2.2c-0.3,0.7-0.6,1.5-0.9,2.2l-3.7,9h-4.9L519.9,210.2z"/>
	<path fill="#FFFFFF" d="M542.6,223.6c0.5,0.7,1.1,1.3,1.9,1.7c0.7,0.4,1.5,0.6,2.3,0.6s1.5-0.2,2-0.6c0.5-0.4,0.8-0.9,0.8-1.6
		c0-0.5-0.2-0.9-0.6-1.2c-0.4-0.3-0.9-0.7-1.6-1.1l-1.8-1.1c-0.9-0.5-1.5-1.2-2-1.9c-0.5-0.7-0.7-1.7-0.7-2.8c0-0.8,0.2-1.6,0.5-2.3
		c0.3-0.7,0.8-1.3,1.4-1.8c0.6-0.5,1.3-0.9,2.1-1.3c0.8-0.3,1.7-0.5,2.6-0.5c1.1,0,2.2,0.3,3.1,0.8c1,0.5,1.8,1.2,2.6,2.1l-2.5,2.3
		c-0.5-0.5-1-0.9-1.5-1.3c-0.5-0.3-1.2-0.5-1.8-0.5c-0.8,0-1.4,0.2-1.8,0.6c-0.4,0.4-0.6,0.9-0.6,1.4c0,0.5,0.2,0.9,0.6,1.2
		c0.4,0.3,1,0.7,1.7,1.2l1.8,1.1c0.9,0.6,1.6,1.2,2,1.8c0.4,0.7,0.6,1.5,0.6,2.6c0,0.9-0.2,1.7-0.5,2.4s-0.8,1.4-1.4,1.9
		s-1.4,1-2.2,1.3c-0.9,0.3-1.8,0.5-2.9,0.5c-1.2,0-2.4-0.3-3.6-0.8c-1.2-0.5-2.2-1.4-3.1-2.7L542.6,223.6z"/>
</g>
<g>
	<path fill="#F05E4D" d="M444.5,35.3h-93.9c-0.3,0-0.6,0.2-0.6,0.6v126.3c0,0.3,0.2,0.6,0.6,0.6h93.9c0.3,0,0.6-0.2,0.6-0.6V35.8
		C445.1,35.5,444.8,35.3,444.5,35.3z"/>
	<g>
		<rect x="360.5" y="45.2" fill="#F9DCE0" width="74.1" height="19.8"/>
		<rect x="360.5" y="111" fill="#F9DCE0" width="74.1" height="0.6"/>
	</g>
	<g>
		<path fill="#FFFFFF" d="M362.2,123.7h1.2l-0.6,2.9h2.8l0.6-2.9h1.2l-1.4,7.1h-1.2l0.6-3.2h-2.8l-0.6,3.2h-1.2L362.2,123.7z"/>
		<path fill="#FFFFFF" d="M372.4,128.7h-2.3l-1,2h-1.3l3.8-7.1h1.4l0.8,7.1h-1.2L372.4,128.7z M372.3,127.8l-0.1-1.1
			c0-0.4,0-0.7-0.1-1.1c0-0.4,0-0.7-0.1-1.1h0c-0.2,0.4-0.3,0.8-0.5,1.1c-0.2,0.4-0.3,0.7-0.5,1.1l-0.5,1.1H372.3z"/>
		<path fill="#FFFFFF" d="M377,123.7h2.1c0.3,0,0.6,0,0.9,0.1c0.3,0.1,0.5,0.2,0.7,0.3c0.2,0.1,0.4,0.3,0.5,0.6
			c0.1,0.2,0.2,0.5,0.2,0.8c0,0.5-0.1,0.9-0.2,1.2c-0.2,0.3-0.4,0.6-0.7,0.8s-0.6,0.4-1,0.5c-0.4,0.1-0.8,0.2-1.3,0.2h-1l-0.5,2.6
			h-1.2L377,123.7z M378.3,127.1c0.6,0,1.1-0.1,1.4-0.4s0.5-0.6,0.5-1.1c0-0.4-0.1-0.6-0.4-0.8c-0.2-0.2-0.6-0.2-1-0.2H378l-0.5,2.6
			H378.3z"/>
		<path fill="#FFFFFF" d="M384.2,123.7h2.1c0.3,0,0.6,0,0.9,0.1c0.3,0.1,0.5,0.2,0.7,0.3c0.2,0.1,0.4,0.3,0.5,0.6
			c0.1,0.2,0.2,0.5,0.2,0.8c0,0.5-0.1,0.9-0.2,1.2c-0.2,0.3-0.4,0.6-0.7,0.8s-0.6,0.4-1,0.5c-0.4,0.1-0.8,0.2-1.3,0.2h-1l-0.5,2.6
			h-1.2L384.2,123.7z M385.5,127.1c0.6,0,1.1-0.1,1.4-0.4s0.5-0.6,0.5-1.1c0-0.4-0.1-0.6-0.4-0.8c-0.2-0.2-0.6-0.2-1-0.2h-0.9
			l-0.5,2.6H385.5z"/>
		<path fill="#FFFFFF" d="M391.4,123.7h4l-0.2,1h-2.9l-0.4,1.9h2.4l-0.2,1h-2.4l-0.5,2.2h3l-0.2,1H390L391.4,123.7z"/>
		<path fill="#FFFFFF" d="M398,123.7h1.1l1.4,4.1l0.4,1.5h0c0-0.4,0.1-0.8,0.1-1.2c0-0.4,0.1-0.8,0.2-1.2l0.6-3.2h1.1l-1.4,7.1h-1.1
			l-1.4-4.1l-0.4-1.5h0c0,0.4-0.1,0.8-0.1,1.2c-0.1,0.4-0.1,0.8-0.2,1.2l-0.6,3.2h-1.1L398,123.7z"/>
		<path fill="#FFFFFF" d="M405.9,123.7h1.1l1.4,4.1l0.4,1.5h0c0-0.4,0.1-0.8,0.1-1.2c0-0.4,0.1-0.8,0.2-1.2l0.6-3.2h1.1l-1.4,7.1
			h-1.1l-1.4-4.1l-0.4-1.5h0c0,0.4-0.1,0.8-0.1,1.2c-0.1,0.4-0.1,0.8-0.2,1.2l-0.6,3.2h-1.1L405.9,123.7z"/>
		<path fill="#FFFFFF" d="M413.8,123.7h1.2l-1.4,7.1h-1.2L413.8,123.7z"/>
		<path fill="#FFFFFF" d="M417.8,123.7h1.1l1.4,4.1l0.4,1.5h0c0-0.4,0.1-0.8,0.1-1.2c0-0.4,0.1-0.8,0.2-1.2l0.6-3.2h1.1l-1.4,7.1
			h-1.1l-1.4-4.1l-0.4-1.5h0c0,0.4-0.1,0.8-0.1,1.2c-0.1,0.4-0.1,0.8-0.2,1.2l-0.6,3.2h-1.1L417.8,123.7z"/>
		<path fill="#FFFFFF" d="M424.6,127.9c0-0.6,0.1-1.1,0.3-1.7c0.2-0.5,0.4-1,0.8-1.4s0.7-0.7,1.2-1c0.5-0.2,1-0.4,1.6-0.4
			c0.4,0,0.8,0.1,1.1,0.3c0.3,0.2,0.6,0.5,0.7,0.8l-0.8,0.6c-0.1-0.2-0.3-0.4-0.5-0.5c-0.2-0.1-0.4-0.2-0.7-0.2
			c-0.4,0-0.7,0.1-1,0.3c-0.3,0.2-0.6,0.4-0.8,0.8c-0.2,0.3-0.4,0.7-0.5,1.1c-0.1,0.4-0.2,0.8-0.2,1.2c0,0.3,0,0.6,0.1,0.8
			c0.1,0.2,0.2,0.5,0.3,0.6c0.1,0.2,0.3,0.3,0.5,0.4c0.2,0.1,0.5,0.1,0.8,0.1c0.2,0,0.4,0,0.6-0.1c0.2-0.1,0.3-0.1,0.4-0.2l0.3-1.7
			h-1.3l0.2-0.9h2.3l-0.6,3.2c-0.3,0.2-0.6,0.4-0.9,0.5c-0.4,0.1-0.8,0.2-1.2,0.2c-0.9,0-1.5-0.3-2-0.8
			C424.8,129.5,424.6,128.8,424.6,127.9z"/>
		<path fill="#FFFFFF" d="M362.2,136.6h1.1l1.4,4.1l0.4,1.5h0c0-0.4,0.1-0.8,0.1-1.2c0-0.4,0.1-0.8,0.2-1.2l0.6-3.2h1.1l-1.4,7.1
			h-1.1l-1.4-4.1L363,138h0c0,0.4-0.1,0.8-0.1,1.2c-0.1,0.4-0.1,0.8-0.2,1.2l-0.6,3.2h-1.1L362.2,136.6z"/>
		<path fill="#FFFFFF" d="M371.5,143.8c-0.4,0-0.8-0.1-1.1-0.2c-0.3-0.1-0.6-0.3-0.8-0.6s-0.4-0.6-0.5-0.9c-0.1-0.4-0.2-0.8-0.2-1.2
			c0-0.6,0.1-1.1,0.3-1.7c0.2-0.5,0.4-1,0.7-1.4c0.3-0.4,0.7-0.7,1.1-0.9c0.4-0.2,0.9-0.4,1.4-0.4c0.4,0,0.8,0.1,1.1,0.2
			c0.3,0.1,0.6,0.3,0.8,0.6c0.2,0.3,0.4,0.6,0.5,0.9c0.1,0.4,0.2,0.8,0.2,1.2c0,0.6-0.1,1.1-0.3,1.7s-0.4,1-0.7,1.4
			c-0.3,0.4-0.7,0.7-1.1,0.9C372.5,143.7,372,143.8,371.5,143.8z M372.5,137.5c-0.3,0-0.6,0.1-0.9,0.3c-0.3,0.2-0.5,0.4-0.7,0.7
			c-0.2,0.3-0.4,0.6-0.5,1s-0.2,0.8-0.2,1.2c0,0.6,0.1,1.1,0.4,1.5c0.2,0.4,0.6,0.5,1.1,0.5c0.3,0,0.6-0.1,0.9-0.3
			c0.3-0.2,0.5-0.4,0.7-0.7c0.2-0.3,0.4-0.6,0.5-1s0.2-0.8,0.2-1.2c0-0.6-0.1-1.1-0.4-1.5S372.9,137.5,372.5,137.5z"/>
		<path fill="#FFFFFF" d="M377.5,136.6h1.2l-0.2,3.6c0,0.4-0.1,0.8-0.1,1.1c0,0.4-0.1,0.8-0.1,1.1h0c0.2-0.4,0.3-0.8,0.5-1.2
			c0.2-0.4,0.3-0.8,0.5-1.1l1.6-3.6h1l0.1,3.6c0,0.8,0,1.5,0,2.3h0c0.1-0.4,0.3-0.8,0.4-1.2c0.1-0.4,0.3-0.8,0.4-1.1l1.4-3.6h1.1
			l-2.8,7.1h-1.5l0-3.8c0-0.2,0-0.5,0-0.8c0-0.3,0-0.6,0-0.8h0c-0.1,0.3-0.2,0.5-0.3,0.8c-0.1,0.3-0.2,0.6-0.3,0.8l-1.7,3.8h-1.4
			L377.5,136.6z"/>
	</g>
	<g>
		<path fill="#FFFFFF" d="M364.2,78.4c-0.5,0-0.9-0.1-1.3-0.3c-0.4-0.2-0.7-0.4-1-0.7c-0.3-0.3-0.5-0.7-0.7-1.2s-0.2-1-0.2-1.5
			c0-0.6,0.1-1.1,0.2-1.5c0.2-0.4,0.4-0.8,0.7-1.1c0.3-0.3,0.6-0.5,1-0.7c0.4-0.2,0.8-0.2,1.3-0.2s0.9,0.1,1.3,0.2
			c0.4,0.2,0.7,0.4,1,0.7c0.3,0.3,0.5,0.7,0.7,1.1c0.2,0.4,0.2,1,0.2,1.5c0,0.6-0.1,1.1-0.2,1.5s-0.4,0.8-0.7,1.2
			c-0.3,0.3-0.6,0.6-1,0.7C365.1,78.3,364.7,78.4,364.2,78.4z M364.2,77c0.5,0,0.9-0.2,1.1-0.6c0.3-0.4,0.4-1,0.4-1.7
			c0-0.7-0.1-1.3-0.4-1.7c-0.3-0.4-0.7-0.6-1.1-0.6c-0.5,0-0.9,0.2-1.1,0.6c-0.3,0.4-0.4,0.9-0.4,1.7c0,0.7,0.1,1.3,0.4,1.7
			C363.3,76.8,363.7,77,364.2,77z"/>
		<path fill="#FFFFFF" d="M368,72.9h1.6l0.7,2.5c0.1,0.3,0.1,0.5,0.2,0.8c0.1,0.3,0.1,0.6,0.2,0.8h0c0.1-0.3,0.1-0.6,0.2-0.8
			s0.1-0.5,0.2-0.8l0.7-2.5h1.5l-1.7,5.4h-1.8L368,72.9z"/>
		<path fill="#FFFFFF" d="M373.8,75.6c0-0.4,0.1-0.8,0.2-1.2c0.1-0.3,0.3-0.6,0.6-0.9c0.2-0.2,0.5-0.4,0.8-0.6s0.6-0.2,0.9-0.2
			c0.4,0,0.7,0.1,1,0.2c0.3,0.1,0.5,0.3,0.7,0.5c0.2,0.2,0.3,0.5,0.4,0.8c0.1,0.3,0.1,0.7,0.1,1c0,0.1,0,0.3,0,0.4
			c0,0.1,0,0.2,0,0.3h-3.2c0.1,0.4,0.2,0.7,0.5,0.9c0.2,0.2,0.6,0.3,0.9,0.3c0.4,0,0.8-0.1,1.2-0.4l0.5,1c-0.3,0.2-0.6,0.3-0.9,0.4
			s-0.7,0.2-1,0.2c-0.4,0-0.7-0.1-1.1-0.2c-0.3-0.1-0.6-0.3-0.9-0.5c-0.2-0.2-0.4-0.5-0.6-0.9S373.8,76,373.8,75.6z M377.3,75
			c0-0.3-0.1-0.6-0.2-0.8s-0.4-0.3-0.7-0.3c-0.3,0-0.5,0.1-0.7,0.3c-0.2,0.2-0.3,0.4-0.4,0.8H377.3z"/>
		<path fill="#FFFFFF" d="M379.7,72.9h1.3l0.1,0.9h0c0.2-0.4,0.4-0.6,0.7-0.8c0.3-0.2,0.5-0.3,0.8-0.3c0.2,0,0.3,0,0.4,0
			c0.1,0,0.2,0,0.3,0.1l-0.3,1.4c-0.1,0-0.2-0.1-0.3-0.1c-0.1,0-0.2,0-0.3,0c-0.2,0-0.4,0.1-0.6,0.2s-0.4,0.4-0.5,0.8v3.1h-1.6V72.9
			z"/>
		<path fill="#FFFFFF" d="M383.5,72.9h1.6l0.7,2.5c0.1,0.3,0.1,0.5,0.2,0.8c0.1,0.3,0.1,0.6,0.2,0.8h0c0.1-0.3,0.1-0.6,0.2-0.8
			s0.1-0.5,0.2-0.8l0.7-2.5h1.5l-1.7,5.4h-1.8L383.5,72.9z"/>
		<path fill="#FFFFFF" d="M389,77.4c0-0.3,0.1-0.5,0.3-0.7c0.2-0.2,0.4-0.3,0.7-0.3c0.3,0,0.5,0.1,0.7,0.3c0.2,0.2,0.3,0.4,0.3,0.7
			c0,0.3-0.1,0.5-0.3,0.7c-0.2,0.2-0.4,0.3-0.7,0.3c-0.3,0-0.5-0.1-0.7-0.3S389,77.7,389,77.4z"/>
		<path fill="#FFFFFF" d="M393.1,72.1c-0.3,0-0.5-0.1-0.7-0.2c-0.2-0.2-0.3-0.4-0.3-0.6c0-0.2,0.1-0.4,0.3-0.6
			c0.2-0.2,0.4-0.2,0.7-0.2c0.3,0,0.5,0.1,0.7,0.2s0.3,0.3,0.3,0.6c0,0.2-0.1,0.4-0.3,0.6C393.6,72.1,393.3,72.1,393.1,72.1z
			 M392.3,72.9h1.6v5.4h-1.6V72.9z"/>
		<path fill="#FFFFFF" d="M395,75.6c0-0.4,0.1-0.8,0.2-1.2s0.3-0.6,0.6-0.9s0.5-0.4,0.8-0.5c0.3-0.1,0.6-0.2,1-0.2
			c0.3,0,0.7,0.1,1,0.2c0.3,0.1,0.6,0.3,0.8,0.5c0.2,0.2,0.4,0.5,0.6,0.9s0.2,0.7,0.2,1.2s-0.1,0.8-0.2,1.2
			c-0.1,0.3-0.3,0.6-0.6,0.9c-0.2,0.2-0.5,0.4-0.8,0.5c-0.3,0.1-0.6,0.2-1,0.2c-0.3,0-0.7-0.1-1-0.2c-0.3-0.1-0.6-0.3-0.8-0.5
			s-0.4-0.5-0.6-0.9C395,76.4,395,76,395,75.6z M396.6,75.6c0,0.5,0.1,0.8,0.2,1.1c0.2,0.3,0.4,0.4,0.7,0.4c0.3,0,0.6-0.1,0.7-0.4
			c0.2-0.3,0.2-0.6,0.2-1.1c0-0.5-0.1-0.8-0.2-1.1c-0.2-0.3-0.4-0.4-0.7-0.4c-0.3,0-0.6,0.1-0.7,0.4
			C396.7,74.8,396.6,75.1,396.6,75.6z"/>
		<path fill="#FFFFFF" d="M404.3,72.1c-0.3,0-0.5-0.1-0.7-0.2c-0.2-0.2-0.3-0.4-0.3-0.6c0-0.2,0.1-0.4,0.3-0.6
			c0.2-0.2,0.4-0.2,0.7-0.2c0.3,0,0.5,0.1,0.7,0.2s0.3,0.3,0.3,0.6c0,0.2-0.1,0.4-0.3,0.6C404.8,72.1,404.6,72.1,404.3,72.1z
			 M403.5,72.9h1.6v5.4h-1.6V72.9z"/>
		<path fill="#FFFFFF" d="M406.7,76.7c0.2,0.2,0.5,0.3,0.7,0.4c0.2,0.1,0.4,0.1,0.7,0.1c0.2,0,0.4,0,0.5-0.1s0.2-0.2,0.2-0.3
			c0-0.1,0-0.2-0.1-0.2s-0.1-0.1-0.2-0.2c-0.1-0.1-0.2-0.1-0.4-0.2c-0.1,0-0.3-0.1-0.4-0.2c-0.2-0.1-0.3-0.1-0.5-0.2
			s-0.3-0.2-0.5-0.3c-0.1-0.1-0.2-0.3-0.3-0.4c-0.1-0.2-0.1-0.4-0.1-0.6c0-0.2,0-0.5,0.1-0.7c0.1-0.2,0.2-0.4,0.4-0.5
			s0.4-0.3,0.6-0.3c0.3-0.1,0.5-0.1,0.8-0.1c0.4,0,0.8,0.1,1.1,0.2s0.6,0.3,0.8,0.5l-0.7,0.9c-0.2-0.1-0.4-0.3-0.6-0.3
			s-0.4-0.1-0.6-0.1c-0.4,0-0.6,0.1-0.6,0.4c0,0.1,0,0.2,0.1,0.2c0.1,0.1,0.1,0.1,0.2,0.2s0.2,0.1,0.3,0.1c0.1,0,0.3,0.1,0.4,0.1
			c0.2,0.1,0.3,0.1,0.5,0.2c0.2,0.1,0.3,0.2,0.5,0.3c0.1,0.1,0.3,0.3,0.3,0.4c0.1,0.2,0.1,0.4,0.1,0.6c0,0.2,0,0.5-0.1,0.7
			s-0.2,0.4-0.4,0.5c-0.2,0.2-0.4,0.3-0.7,0.4c-0.3,0.1-0.6,0.1-0.9,0.1c-0.4,0-0.7-0.1-1.1-0.2c-0.4-0.1-0.7-0.3-1-0.5L406.7,76.7z
			"/>
		<path fill="#FFFFFF" d="M360.9,88.5c0-0.4,0.1-0.8,0.2-1.2c0.2-0.3,0.4-0.6,0.6-0.9c0.3-0.2,0.6-0.4,0.9-0.5
			c0.3-0.1,0.7-0.2,1.1-0.2c0.3,0,0.6,0.1,0.9,0.2c0.3,0.1,0.5,0.3,0.7,0.4l-0.7,1c-0.3-0.2-0.5-0.3-0.7-0.3c-0.4,0-0.7,0.1-0.9,0.4
			c-0.2,0.3-0.3,0.6-0.3,1.1c0,0.5,0.1,0.8,0.3,1.1c0.2,0.3,0.5,0.4,0.9,0.4c0.2,0,0.4,0,0.5-0.1s0.3-0.2,0.4-0.3l0.6,1
			c-0.3,0.2-0.5,0.4-0.9,0.5s-0.6,0.2-0.9,0.2c-0.4,0-0.7-0.1-1-0.2c-0.3-0.1-0.6-0.3-0.8-0.5s-0.4-0.5-0.6-0.9
			C360.9,89.4,360.9,89,360.9,88.5z"/>
		<path fill="#FFFFFF" d="M366.2,85.9h1.6V89c0,0.4,0.1,0.7,0.2,0.8c0.1,0.1,0.3,0.2,0.5,0.2c0.2,0,0.4,0,0.5-0.1
			c0.1-0.1,0.3-0.2,0.4-0.5v-3.5h1.6v5.4h-1.3l-0.1-0.7h0c-0.2,0.3-0.5,0.5-0.7,0.6c-0.3,0.2-0.6,0.2-0.9,0.2c-0.6,0-1-0.2-1.3-0.6
			c-0.3-0.4-0.4-0.9-0.4-1.6V85.9z"/>
		<path fill="#FFFFFF" d="M372.4,85.9h1.3l0.1,0.9h0c0.2-0.4,0.4-0.6,0.7-0.8c0.3-0.2,0.5-0.3,0.8-0.3c0.2,0,0.3,0,0.4,0
			c0.1,0,0.2,0,0.3,0.1l-0.3,1.4c-0.1,0-0.2-0.1-0.3-0.1c-0.1,0-0.2,0-0.3,0c-0.2,0-0.4,0.1-0.6,0.2s-0.4,0.4-0.5,0.8v3.1h-1.6V85.9
			z"/>
		<path fill="#FFFFFF" d="M376.6,85.9h1.3l0.1,0.9h0c0.2-0.4,0.4-0.6,0.7-0.8c0.3-0.2,0.5-0.3,0.8-0.3c0.2,0,0.3,0,0.4,0
			c0.1,0,0.2,0,0.3,0.1l-0.3,1.4c-0.1,0-0.2-0.1-0.3-0.1c-0.1,0-0.2,0-0.3,0c-0.2,0-0.4,0.1-0.6,0.2s-0.4,0.4-0.5,0.8v3.1h-1.6V85.9
			z"/>
		<path fill="#FFFFFF" d="M380.5,88.5c0-0.4,0.1-0.8,0.2-1.2c0.1-0.3,0.3-0.6,0.6-0.9c0.2-0.2,0.5-0.4,0.8-0.6s0.6-0.2,0.9-0.2
			c0.4,0,0.7,0.1,1,0.2c0.3,0.1,0.5,0.3,0.7,0.5c0.2,0.2,0.3,0.5,0.4,0.8c0.1,0.3,0.1,0.7,0.1,1c0,0.1,0,0.3,0,0.4
			c0,0.1,0,0.2,0,0.3h-3.2c0.1,0.4,0.2,0.7,0.5,0.9c0.2,0.2,0.6,0.3,0.9,0.3c0.4,0,0.8-0.1,1.2-0.4l0.5,1c-0.3,0.2-0.6,0.3-0.9,0.4
			s-0.7,0.2-1,0.2c-0.4,0-0.7-0.1-1.1-0.2c-0.3-0.1-0.6-0.3-0.9-0.5c-0.2-0.2-0.4-0.5-0.6-0.9S380.5,89,380.5,88.5z M384,88
			c0-0.3-0.1-0.6-0.2-0.8s-0.4-0.3-0.7-0.3c-0.3,0-0.5,0.1-0.7,0.3c-0.2,0.2-0.3,0.4-0.4,0.8H384z"/>
		<path fill="#FFFFFF" d="M386.4,85.9h1.3l0.1,0.7h0c0.2-0.2,0.5-0.4,0.8-0.6c0.3-0.2,0.6-0.2,1-0.2c0.6,0,1,0.2,1.3,0.6
			c0.3,0.4,0.4,0.9,0.4,1.6v3.3h-1.6v-3.1c0-0.4-0.1-0.7-0.2-0.8c-0.1-0.1-0.3-0.2-0.5-0.2c-0.2,0-0.4,0-0.5,0.1
			c-0.1,0.1-0.3,0.2-0.5,0.4v3.6h-1.6V85.9z"/>
		<path fill="#FFFFFF" d="M392.8,87.1h-0.7v-1.2l0.8-0.1l0.2-1.4h1.3v1.4h1.3v1.2h-1.3v2.1c0,0.3,0.1,0.5,0.2,0.7
			c0.1,0.1,0.3,0.2,0.5,0.2c0.1,0,0.2,0,0.3,0c0.1,0,0.2,0,0.2-0.1l0.2,1.2c-0.1,0-0.3,0.1-0.5,0.1c-0.2,0-0.4,0.1-0.7,0.1
			c-0.3,0-0.6-0.1-0.8-0.2c-0.2-0.1-0.4-0.2-0.6-0.4c-0.1-0.2-0.3-0.4-0.3-0.7s-0.1-0.5-0.1-0.8V87.1z"/>
		<path fill="#FFFFFF" d="M396.7,83.7h1.6v6c0,0.2,0,0.3,0.1,0.3c0.1,0.1,0.1,0.1,0.2,0.1c0,0,0.1,0,0.1,0c0,0,0.1,0,0.1,0l0.2,1.2
			c-0.1,0-0.2,0.1-0.3,0.1c-0.1,0-0.3,0-0.5,0c-0.3,0-0.5,0-0.7-0.1c-0.2-0.1-0.3-0.2-0.4-0.4c-0.1-0.2-0.2-0.3-0.2-0.6
			c-0.1-0.2-0.1-0.5-0.1-0.7V83.7z"/>
		<path fill="#FFFFFF" d="M400.1,92c0.1,0,0.1,0,0.2,0c0.3,0,0.5-0.1,0.6-0.2c0.1-0.1,0.3-0.3,0.3-0.5l0.1-0.3l-2.1-5.2h1.6l0.8,2.3
			c0.1,0.2,0.2,0.5,0.2,0.7c0.1,0.3,0.1,0.5,0.2,0.8h0c0.1-0.3,0.1-0.5,0.2-0.8c0.1-0.3,0.1-0.5,0.2-0.8l0.6-2.3h1.5l-1.9,5.4
			c-0.1,0.3-0.3,0.6-0.4,0.9s-0.3,0.5-0.5,0.6c-0.2,0.2-0.4,0.3-0.6,0.4s-0.5,0.1-0.8,0.1c-0.2,0-0.3,0-0.4,0c-0.1,0-0.2,0-0.3-0.1
			l0.3-1.2C400,92,400,92,400.1,92z"/>
		<path fill="#FFFFFF" d="M407.4,88.5c0-0.4,0.1-0.8,0.2-1.2s0.3-0.6,0.5-0.9c0.2-0.2,0.4-0.4,0.7-0.6c0.3-0.1,0.5-0.2,0.8-0.2
			c0.3,0,0.5,0.1,0.7,0.2c0.2,0.1,0.4,0.2,0.6,0.4l-0.1-0.8v-1.8h1.6v7.6h-1.3l-0.1-0.5h0c-0.2,0.2-0.4,0.3-0.7,0.5
			c-0.3,0.1-0.5,0.2-0.8,0.2c-0.3,0-0.6-0.1-0.9-0.2c-0.3-0.1-0.5-0.3-0.7-0.6c-0.2-0.2-0.3-0.5-0.4-0.9
			C407.4,89.4,407.4,89,407.4,88.5z M409,88.5c0,0.5,0.1,0.9,0.3,1.2s0.4,0.4,0.7,0.4c0.2,0,0.3,0,0.5-0.1s0.3-0.2,0.4-0.4v-2.2
			c-0.1-0.1-0.3-0.2-0.4-0.3c-0.2-0.1-0.3-0.1-0.4-0.1c-0.3,0-0.5,0.1-0.7,0.4C409.1,87.6,409,88,409,88.5z"/>
		<path fill="#FFFFFF" d="M413.5,88.5c0-0.4,0.1-0.8,0.2-1.2s0.3-0.6,0.6-0.9s0.5-0.4,0.8-0.5c0.3-0.1,0.6-0.2,1-0.2
			c0.3,0,0.7,0.1,1,0.2c0.3,0.1,0.6,0.3,0.8,0.5c0.2,0.2,0.4,0.5,0.6,0.9s0.2,0.7,0.2,1.2s-0.1,0.8-0.2,1.2
			c-0.1,0.3-0.3,0.6-0.6,0.9c-0.2,0.2-0.5,0.4-0.8,0.5c-0.3,0.1-0.6,0.2-1,0.2c-0.3,0-0.7-0.1-1-0.2c-0.3-0.1-0.6-0.3-0.8-0.5
			s-0.4-0.5-0.6-0.9C413.6,89.4,413.5,89,413.5,88.5z M415.2,88.5c0,0.5,0.1,0.8,0.2,1.1c0.2,0.3,0.4,0.4,0.7,0.4
			c0.3,0,0.6-0.1,0.7-0.4c0.2-0.3,0.2-0.6,0.2-1.1c0-0.5-0.1-0.8-0.2-1.1c-0.2-0.3-0.4-0.4-0.7-0.4c-0.3,0-0.6,0.1-0.7,0.4
			C415.2,87.7,415.2,88.1,415.2,88.5z"/>
		<path fill="#FFFFFF" d="M419.3,85.9h1.6l0.5,2.5c0,0.3,0.1,0.5,0.1,0.8s0.1,0.5,0.1,0.8h0c0-0.3,0.1-0.5,0.1-0.8
			c0-0.3,0.1-0.5,0.2-0.8l0.6-2.5h1.4l0.6,2.5c0.1,0.3,0.1,0.5,0.2,0.8s0.1,0.5,0.2,0.8h0c0-0.3,0.1-0.5,0.1-0.8
			c0-0.3,0.1-0.5,0.1-0.8l0.5-2.5h1.5l-1.3,5.4H424l-0.5-2.1c-0.1-0.3-0.1-0.5-0.2-0.8c0-0.3-0.1-0.5-0.1-0.8h0
			c-0.1,0.3-0.1,0.6-0.1,0.8c0,0.3-0.1,0.5-0.1,0.8l-0.5,2.1h-1.8L419.3,85.9z"/>
		<path fill="#FFFFFF" d="M428.1,85.9h1.3l0.1,0.7h0c0.2-0.2,0.5-0.4,0.8-0.6c0.3-0.2,0.6-0.2,1-0.2c0.6,0,1,0.2,1.3,0.6
			c0.3,0.4,0.4,0.9,0.4,1.6v3.3h-1.6v-3.1c0-0.4-0.1-0.7-0.2-0.8c-0.1-0.1-0.3-0.2-0.5-0.2c-0.2,0-0.4,0-0.5,0.1
			c-0.1,0.1-0.3,0.2-0.5,0.4v3.6h-1.6V85.9z"/>
		<path fill="#FFFFFF" d="M364.2,97.8c-0.2-0.1-0.4-0.1-0.6-0.1c-0.2,0-0.3,0.1-0.5,0.2s-0.2,0.3-0.2,0.6v0.3h1v1.2h-1v4.1h-1.6
			v-4.1h-0.7v-1.2l0.7-0.1v-0.3c0-0.3,0-0.5,0.1-0.8s0.2-0.5,0.3-0.7s0.4-0.3,0.6-0.4c0.3-0.1,0.6-0.2,0.9-0.2c0.2,0,0.4,0,0.6,0.1
			c0.2,0,0.3,0.1,0.5,0.1L364.2,97.8z"/>
		<path fill="#FFFFFF" d="M364.4,101.5c0-0.4,0.1-0.8,0.2-1.2s0.3-0.6,0.6-0.9s0.5-0.4,0.8-0.5c0.3-0.1,0.6-0.2,1-0.2
			c0.3,0,0.7,0.1,1,0.2c0.3,0.1,0.6,0.3,0.8,0.5c0.2,0.2,0.4,0.5,0.6,0.9s0.2,0.7,0.2,1.2s-0.1,0.8-0.2,1.2
			c-0.1,0.3-0.3,0.6-0.6,0.9c-0.2,0.2-0.5,0.4-0.8,0.5c-0.3,0.1-0.6,0.2-1,0.2c-0.3,0-0.7-0.1-1-0.2c-0.3-0.1-0.6-0.3-0.8-0.5
			s-0.4-0.5-0.6-0.9C364.5,102.3,364.4,101.9,364.4,101.5z M366.1,101.5c0,0.5,0.1,0.8,0.2,1.1c0.2,0.3,0.4,0.4,0.7,0.4
			c0.3,0,0.6-0.1,0.7-0.4c0.2-0.3,0.2-0.6,0.2-1.1c0-0.5-0.1-0.8-0.2-1.1c-0.2-0.3-0.4-0.4-0.7-0.4c-0.3,0-0.6,0.1-0.7,0.4
			C366.2,100.6,366.1,101,366.1,101.5z"/>
		<path fill="#FFFFFF" d="M370.7,98.8h1.3l0.1,0.9h0c0.2-0.4,0.4-0.6,0.7-0.8c0.3-0.2,0.5-0.3,0.8-0.3c0.2,0,0.3,0,0.4,0
			c0.1,0,0.2,0,0.3,0.1l-0.3,1.4c-0.1,0-0.2-0.1-0.3-0.1c-0.1,0-0.2,0-0.3,0c-0.2,0-0.4,0.1-0.6,0.2s-0.4,0.4-0.5,0.8v3.1h-1.6V98.8
			z"/>
		<path fill="#FFFFFF" d="M377.3,98.8h1.3l0.1,0.7h0c0.2-0.2,0.5-0.4,0.7-0.6c0.3-0.2,0.6-0.2,0.9-0.2c0.4,0,0.7,0.1,0.9,0.2
			s0.4,0.4,0.6,0.7c0.2-0.2,0.5-0.5,0.7-0.6c0.3-0.2,0.6-0.3,0.9-0.3c0.6,0,1,0.2,1.3,0.6c0.3,0.4,0.4,0.9,0.4,1.6v3.3h-1.6V101
			c0-0.4-0.1-0.7-0.2-0.8c-0.1-0.1-0.3-0.2-0.5-0.2c-0.3,0-0.6,0.2-0.9,0.5v3.6h-1.6V101c0-0.4-0.1-0.7-0.2-0.8
			c-0.1-0.1-0.3-0.2-0.5-0.2c-0.3,0-0.6,0.2-0.9,0.5v3.6h-1.6V98.8z"/>
		<path fill="#FFFFFF" d="M386.3,102.7c0-0.6,0.2-1,0.7-1.3c0.5-0.3,1.2-0.5,2.3-0.6c0-0.2-0.1-0.4-0.2-0.6
			c-0.1-0.1-0.3-0.2-0.6-0.2c-0.2,0-0.5,0-0.7,0.1c-0.2,0.1-0.5,0.2-0.7,0.4l-0.6-1c0.3-0.2,0.7-0.4,1.1-0.5s0.8-0.2,1.2-0.2
			c0.7,0,1.2,0.2,1.6,0.6s0.5,1,0.5,1.8v3.1h-1.3l-0.1-0.6h0c-0.2,0.2-0.5,0.4-0.7,0.5c-0.3,0.1-0.5,0.2-0.8,0.2
			c-0.2,0-0.5,0-0.7-0.1c-0.2-0.1-0.4-0.2-0.5-0.3s-0.2-0.3-0.3-0.5C386.4,103.1,386.3,102.9,386.3,102.7z M387.8,102.6
			c0,0.2,0.1,0.3,0.2,0.4c0.1,0.1,0.3,0.1,0.4,0.1c0.2,0,0.3,0,0.5-0.1s0.3-0.2,0.4-0.3v-0.9c-0.6,0.1-1,0.2-1.2,0.3
			C388,102.2,387.8,102.3,387.8,102.6z"/>
		<path fill="#FFFFFF" d="M393.1,98c-0.3,0-0.5-0.1-0.7-0.2c-0.2-0.2-0.3-0.4-0.3-0.6c0-0.2,0.1-0.4,0.3-0.6
			c0.2-0.2,0.4-0.2,0.7-0.2c0.3,0,0.5,0.1,0.7,0.2s0.3,0.3,0.3,0.6c0,0.2-0.1,0.4-0.3,0.6C393.6,97.9,393.3,98,393.1,98z
			 M392.3,98.8h1.6v5.4h-1.6V98.8z"/>
		<path fill="#FFFFFF" d="M395.3,98.8h1.3l0.1,0.7h0c0.2-0.2,0.5-0.4,0.8-0.6c0.3-0.2,0.6-0.2,1-0.2c0.6,0,1,0.2,1.3,0.6
			c0.3,0.4,0.4,0.9,0.4,1.6v3.3h-1.6V101c0-0.4-0.1-0.7-0.2-0.8c-0.1-0.1-0.3-0.2-0.5-0.2c-0.2,0-0.4,0-0.5,0.1
			c-0.1,0.1-0.3,0.2-0.5,0.4v3.6h-1.6V98.8z"/>
		<path fill="#FFFFFF" d="M401.7,100.1h-0.7v-1.2l0.8-0.1l0.2-1.4h1.3v1.4h1.3v1.2h-1.3v2.1c0,0.3,0.1,0.5,0.2,0.7
			c0.1,0.1,0.3,0.2,0.5,0.2c0.1,0,0.2,0,0.3,0c0.1,0,0.2,0,0.2-0.1l0.2,1.2c-0.1,0-0.3,0.1-0.5,0.1c-0.2,0-0.4,0.1-0.7,0.1
			c-0.3,0-0.6-0.1-0.8-0.2c-0.2-0.1-0.4-0.2-0.6-0.4c-0.1-0.2-0.3-0.4-0.3-0.7s-0.1-0.5-0.1-0.8V100.1z"/>
		<path fill="#FFFFFF" d="M405.1,101.5c0-0.4,0.1-0.8,0.2-1.2c0.1-0.3,0.3-0.6,0.6-0.9c0.2-0.2,0.5-0.4,0.8-0.6s0.6-0.2,0.9-0.2
			c0.4,0,0.7,0.1,1,0.2c0.3,0.1,0.5,0.3,0.7,0.5c0.2,0.2,0.3,0.5,0.4,0.8c0.1,0.3,0.1,0.7,0.1,1c0,0.1,0,0.3,0,0.4
			c0,0.1,0,0.2,0,0.3h-3.2c0.1,0.4,0.2,0.7,0.5,0.9c0.2,0.2,0.6,0.3,0.9,0.3c0.4,0,0.8-0.1,1.2-0.4l0.5,1c-0.3,0.2-0.6,0.3-0.9,0.4
			s-0.7,0.2-1,0.2c-0.4,0-0.7-0.1-1.1-0.2c-0.3-0.1-0.6-0.3-0.9-0.5c-0.2-0.2-0.4-0.5-0.6-0.9S405.1,101.9,405.1,101.5z
			 M408.6,100.9c0-0.3-0.1-0.6-0.2-0.8s-0.4-0.3-0.7-0.3c-0.3,0-0.5,0.1-0.7,0.3c-0.2,0.2-0.3,0.4-0.4,0.8H408.6z"/>
		<path fill="#FFFFFF" d="M411,98.8h1.3l0.1,0.7h0c0.2-0.2,0.5-0.4,0.8-0.6c0.3-0.2,0.6-0.2,1-0.2c0.6,0,1,0.2,1.3,0.6
			c0.3,0.4,0.4,0.9,0.4,1.6v3.3h-1.6V101c0-0.4-0.1-0.7-0.2-0.8c-0.1-0.1-0.3-0.2-0.5-0.2c-0.2,0-0.4,0-0.5,0.1
			c-0.1,0.1-0.3,0.2-0.5,0.4v3.6H411V98.8z"/>
		<path fill="#FFFFFF" d="M417,102.7c0-0.6,0.2-1,0.7-1.3c0.5-0.3,1.2-0.5,2.3-0.6c0-0.2-0.1-0.4-0.2-0.6c-0.1-0.1-0.3-0.2-0.6-0.2
			c-0.2,0-0.5,0-0.7,0.1c-0.2,0.1-0.5,0.2-0.7,0.4l-0.6-1c0.3-0.2,0.7-0.4,1.1-0.5s0.8-0.2,1.2-0.2c0.7,0,1.2,0.2,1.6,0.6
			s0.5,1,0.5,1.8v3.1h-1.3l-0.1-0.6h0c-0.2,0.2-0.5,0.4-0.7,0.5c-0.3,0.1-0.5,0.2-0.8,0.2c-0.2,0-0.5,0-0.7-0.1
			c-0.2-0.1-0.4-0.2-0.5-0.3s-0.2-0.3-0.3-0.5C417.1,103.1,417,102.9,417,102.7z M418.5,102.6c0,0.2,0.1,0.3,0.2,0.4
			c0.1,0.1,0.3,0.1,0.4,0.1c0.2,0,0.3,0,0.5-0.1s0.3-0.2,0.4-0.3v-0.9c-0.6,0.1-1,0.2-1.2,0.3C418.6,102.2,418.5,102.3,418.5,102.6z
			"/>
		<path fill="#FFFFFF" d="M423,98.8h1.3l0.1,0.7h0c0.2-0.2,0.5-0.4,0.8-0.6c0.3-0.2,0.6-0.2,1-0.2c0.6,0,1,0.2,1.3,0.6
			c0.3,0.4,0.4,0.9,0.4,1.6v3.3h-1.6V101c0-0.4-0.1-0.7-0.2-0.8c-0.1-0.1-0.3-0.2-0.5-0.2c-0.2,0-0.4,0-0.5,0.1
			c-0.1,0.1-0.3,0.2-0.5,0.4v3.6H423V98.8z"/>
		<path fill="#FFFFFF" d="M428.8,101.5c0-0.4,0.1-0.8,0.2-1.2c0.2-0.3,0.4-0.6,0.6-0.9c0.3-0.2,0.6-0.4,0.9-0.5
			c0.3-0.1,0.7-0.2,1.1-0.2c0.3,0,0.6,0.1,0.9,0.2c0.3,0.1,0.5,0.3,0.7,0.4l-0.7,1c-0.3-0.2-0.5-0.3-0.7-0.3c-0.4,0-0.7,0.1-0.9,0.4
			c-0.2,0.3-0.3,0.6-0.3,1.1c0,0.5,0.1,0.8,0.3,1.1c0.2,0.3,0.5,0.4,0.9,0.4c0.2,0,0.4,0,0.5-0.1s0.3-0.2,0.4-0.3l0.6,1
			c-0.3,0.2-0.5,0.4-0.9,0.5s-0.6,0.2-0.9,0.2c-0.4,0-0.7-0.1-1-0.2c-0.3-0.1-0.6-0.3-0.8-0.5s-0.4-0.5-0.6-0.9
			C428.9,102.3,428.8,101.9,428.8,101.5z"/>
		<path fill="#FFFFFF" d="M433.6,101.5c0-0.4,0.1-0.8,0.2-1.2c0.1-0.3,0.3-0.6,0.6-0.9c0.2-0.2,0.5-0.4,0.8-0.6s0.6-0.2,0.9-0.2
			c0.4,0,0.7,0.1,1,0.2c0.3,0.1,0.5,0.3,0.7,0.5c0.2,0.2,0.3,0.5,0.4,0.8c0.1,0.3,0.1,0.7,0.1,1c0,0.1,0,0.3,0,0.4
			c0,0.1,0,0.2,0,0.3h-3.2c0.1,0.4,0.2,0.7,0.5,0.9c0.2,0.2,0.6,0.3,0.9,0.3c0.4,0,0.8-0.1,1.2-0.4l0.5,1c-0.3,0.2-0.6,0.3-0.9,0.4
			s-0.7,0.2-1,0.2c-0.4,0-0.7-0.1-1.1-0.2c-0.3-0.1-0.6-0.3-0.9-0.5c-0.2-0.2-0.4-0.5-0.6-0.9S433.6,101.9,433.6,101.5z M437,100.9
			c0-0.3-0.1-0.6-0.2-0.8s-0.4-0.3-0.7-0.3c-0.3,0-0.5,0.1-0.7,0.3c-0.2,0.2-0.3,0.4-0.4,0.8H437z"/>
	</g>
</g>
<rect x="691.8" y="35.4" fill="#FFFFFF" width="48.6" height="31.7"/>
<g>
	<g>
		<g>
			<path fill="#9CDCF7" d="M716.2,57.6L716.2,57.6l-4-4l3.3-3.3l4,4L731,42.8l3.3,3.3l-14.8,14.8L716.2,57.6z M731.2,61.3
				c-1.8,0-3.2-1.4-3.2-3.2c0-1.8,1.4-3.2,3.2-3.2c1.8,0,3.2,1.4,3.2,3.2C734.4,59.9,733,61.3,731.2,61.3"/>
		</g>
		<g>
			<path fill="#9CDCF7" d="M702.8,46.8h-4.7v-3.9h14.1v3.9h-4.7v13.8h-4.7V46.8z"/>
		</g>
	</g>
</g>
<rect x="333.5" y="239.5" fill="#F05E4D" width="429" height="19.6"/>
<g>
	<defs>
		<rect id="SVGID_1_" x="333.5" y="238.5" width="429" height="19.6"/>
	</defs>
	<clipPath id="SVGID_2_">
		<use xlink:href="#SVGID_1_"  overflow="visible"/>
	</clipPath>
	<g clip-path="url(#SVGID_2_)">
		<path fill="#FFFFFF" d="M344.7,245.4h1.3l-0.2,4c0,0.4-0.1,0.8-0.1,1.3c0,0.4-0.1,0.8-0.1,1.3h0c0.2-0.4,0.4-0.9,0.5-1.3
			s0.4-0.8,0.5-1.3l1.8-4h1.1l0.1,4c0,0.8,0,1.7,0,2.5h0c0.2-0.4,0.3-0.9,0.5-1.3s0.3-0.8,0.5-1.3l1.5-4h1.2l-3.1,7.8h-1.6l0-4.3
			c0-0.3,0-0.6,0-0.9s0-0.6,0-0.9h0c-0.1,0.3-0.2,0.6-0.4,0.9c-0.1,0.3-0.3,0.6-0.4,0.9l-1.8,4.3h-1.6L344.7,245.4z"/>
		<path fill="#FFFFFF" d="M354.6,245.4h4.5l-0.2,1.1h-3.2l-0.4,2.1h2.7l-0.2,1.1H355l-0.5,2.5h3.3l-0.2,1.1H353L354.6,245.4z"/>
		<path fill="#FFFFFF" d="M365.3,251h-2.6l-1.1,2.2h-1.4l4.2-7.8h1.5l0.8,7.8h-1.3L365.3,251z M365.2,250.1l-0.1-1.2
			c0-0.4-0.1-0.8-0.1-1.2c0-0.4-0.1-0.8-0.1-1.2h0c-0.2,0.4-0.4,0.8-0.6,1.2c-0.2,0.4-0.4,0.8-0.6,1.2l-0.6,1.2H365.2z"/>
		<path fill="#FFFFFF" d="M371.4,245.4c0.4,0,0.7,0,1,0.1c0.3,0.1,0.6,0.2,0.8,0.3s0.4,0.4,0.5,0.6c0.1,0.2,0.2,0.5,0.2,0.9
			c0,0.4-0.1,0.7-0.2,1c-0.1,0.3-0.3,0.6-0.5,0.8c-0.2,0.2-0.4,0.4-0.7,0.6c-0.3,0.2-0.5,0.3-0.9,0.3l1.3,3.3h-1.4l-1.1-3.1h-1.2
			l-0.6,3.1h-1.3l1.6-7.8H371.4z M370.7,249.1c0.7,0,1.2-0.1,1.5-0.4c0.3-0.3,0.5-0.7,0.5-1.2c0-0.4-0.1-0.7-0.4-0.8
			c-0.3-0.2-0.6-0.2-1.1-0.2h-1l-0.5,2.7H370.7z"/>
		<path fill="#FFFFFF" d="M375.9,245.4h4.5l-0.2,1.1H377l-0.4,2.1h2.7l-0.2,1.1h-2.7l-0.5,2.5h3.3l-0.2,1.1h-4.6L375.9,245.4z"/>
		<path fill="#FFFFFF" d="M384.2,245.4h2.3c0.8,0,1.4,0.1,1.8,0.4s0.7,0.7,0.7,1.3c0,0.2,0,0.5-0.1,0.7c-0.1,0.2-0.2,0.4-0.4,0.6
			c-0.2,0.2-0.3,0.3-0.5,0.4c-0.2,0.1-0.4,0.2-0.7,0.3l0,0c0.4,0.1,0.8,0.3,1,0.5s0.4,0.6,0.4,1c0,0.4-0.1,0.8-0.3,1.2
			s-0.4,0.6-0.7,0.8s-0.7,0.4-1.1,0.5c-0.4,0.1-0.8,0.1-1.3,0.1h-2.7L384.2,245.4z M385.3,252.2c0.6,0,1.2-0.1,1.5-0.4
			c0.4-0.2,0.6-0.6,0.6-1.1c0-0.4-0.1-0.6-0.4-0.9s-0.6-0.3-1.1-0.3h-1.2l-0.5,2.6H385.3z M385.8,248.7c0.6,0,1.1-0.1,1.4-0.4
			c0.3-0.2,0.5-0.6,0.5-1c0-0.3-0.1-0.5-0.4-0.7c-0.2-0.2-0.6-0.3-1.1-0.3h-0.9l-0.5,2.3H385.8z"/>
		<path fill="#FFFFFF" d="M391.1,245.4h1.3l-0.9,4.4c-0.1,0.3-0.1,0.6-0.1,0.9c0,0.5,0.1,0.9,0.3,1.2c0.2,0.3,0.6,0.4,1.1,0.4
			c0.4,0,0.8-0.2,1.1-0.5s0.5-0.9,0.7-1.7l0.9-4.7h1.3l-0.9,4.7c-0.2,1.2-0.6,2-1.1,2.5c-0.5,0.5-1.2,0.8-1.9,0.8
			c-0.9,0-1.5-0.2-2-0.6c-0.4-0.4-0.7-1.1-0.7-2c0-0.2,0-0.4,0-0.6c0-0.2,0.1-0.4,0.1-0.6L391.1,245.4z"/>
		<path fill="#FFFFFF" d="M397.6,251.3c0.2,0.3,0.5,0.6,0.8,0.8c0.3,0.2,0.7,0.3,1.1,0.3c0.4,0,0.7-0.1,1-0.3
			c0.3-0.2,0.4-0.5,0.4-0.9c0-0.2-0.1-0.5-0.3-0.6c-0.2-0.2-0.4-0.3-0.7-0.5l-0.8-0.5c-0.3-0.2-0.6-0.5-0.9-0.8s-0.3-0.7-0.3-1.1
			c0-0.3,0.1-0.6,0.2-0.9c0.1-0.3,0.3-0.5,0.6-0.7c0.2-0.2,0.5-0.4,0.8-0.5c0.3-0.1,0.7-0.2,1-0.2c0.5,0,0.9,0.1,1.3,0.3
			s0.7,0.5,1,0.8l-0.8,0.8c-0.2-0.2-0.4-0.4-0.7-0.6c-0.3-0.2-0.5-0.2-0.9-0.2c-0.4,0-0.7,0.1-0.9,0.3s-0.3,0.5-0.3,0.7
			c0,0.3,0.1,0.5,0.3,0.6s0.4,0.3,0.7,0.5l0.8,0.5c0.4,0.2,0.7,0.5,0.9,0.8c0.2,0.3,0.3,0.6,0.3,1.1c0,0.4-0.1,0.7-0.2,1
			c-0.1,0.3-0.3,0.6-0.6,0.8c-0.3,0.2-0.6,0.4-0.9,0.5c-0.4,0.1-0.7,0.2-1.2,0.2c-0.5,0-1-0.1-1.5-0.3c-0.5-0.2-0.9-0.6-1.2-1.1
			L397.6,251.3z"/>
		<path fill="#FFFFFF" d="M404.9,250.3l-1.3-4.9h1.3l0.4,2.1c0.1,0.3,0.1,0.6,0.2,0.9c0,0.3,0.1,0.6,0.2,0.9h0
			c0.2-0.3,0.3-0.6,0.5-0.9c0.2-0.3,0.3-0.6,0.5-0.9l1.3-2.1h1.4l-3.3,4.9l-0.6,3h-1.3L404.9,250.3z"/>
		<path fill="#FFFFFF" d="M412.5,245.4h1.3l-0.9,4.4c-0.1,0.3-0.1,0.6-0.1,0.9c0,0.5,0.1,0.9,0.3,1.2c0.2,0.3,0.6,0.4,1.1,0.4
			c0.4,0,0.8-0.2,1.1-0.5s0.5-0.9,0.7-1.7l0.9-4.7h1.3l-0.9,4.7c-0.2,1.2-0.6,2-1.1,2.5c-0.5,0.5-1.2,0.8-1.9,0.8
			c-0.9,0-1.5-0.2-2-0.6c-0.4-0.4-0.7-1.1-0.7-2c0-0.2,0-0.4,0-0.6c0-0.2,0.1-0.4,0.1-0.6L412.5,245.4z"/>
		<path fill="#FFFFFF" d="M420,245.4h2.4c0.4,0,0.7,0,1,0.1c0.3,0.1,0.6,0.2,0.8,0.4s0.4,0.4,0.5,0.6s0.2,0.6,0.2,0.9
			c0,0.5-0.1,1-0.3,1.3c-0.2,0.4-0.4,0.7-0.7,0.9c-0.3,0.2-0.7,0.4-1.1,0.5c-0.4,0.1-0.9,0.2-1.4,0.2h-1.1l-0.6,2.9h-1.3L420,245.4z
			 M421.5,249.3c0.7,0,1.2-0.1,1.6-0.4c0.4-0.3,0.5-0.7,0.5-1.3c0-0.4-0.1-0.7-0.4-0.9c-0.3-0.2-0.6-0.3-1.1-0.3h-1l-0.6,2.8H421.5z
			"/>
		<path fill="#FFFFFF" d="M425.4,250.2c0-0.6,0.1-1.3,0.3-1.9c0.2-0.6,0.5-1.1,0.9-1.6c0.4-0.4,0.8-0.8,1.3-1.1
			c0.5-0.3,1.1-0.4,1.7-0.4c0.5,0,0.9,0.1,1.2,0.3c0.3,0.2,0.6,0.5,0.8,0.9l-0.9,0.7c-0.2-0.2-0.3-0.4-0.5-0.6
			c-0.2-0.1-0.4-0.2-0.7-0.2c-0.4,0-0.8,0.1-1.2,0.3s-0.7,0.5-0.9,0.8c-0.2,0.3-0.4,0.7-0.6,1.2c-0.1,0.4-0.2,0.9-0.2,1.3
			c0,0.3,0,0.6,0.1,0.9c0.1,0.3,0.2,0.5,0.3,0.7s0.3,0.4,0.6,0.5c0.2,0.1,0.5,0.2,0.9,0.2c0.2,0,0.4,0,0.6-0.1
			c0.2-0.1,0.3-0.2,0.5-0.3l0.4-1.8h-1.5l0.2-1.1h2.6l-0.7,3.6c-0.3,0.2-0.6,0.4-1,0.6s-0.8,0.2-1.3,0.2c-1,0-1.7-0.3-2.2-0.9
			S425.4,251.2,425.4,250.2z"/>
		<path fill="#FFFFFF" d="M436.1,245.4c0.4,0,0.7,0,1,0.1c0.3,0.1,0.6,0.2,0.8,0.3s0.4,0.4,0.5,0.6c0.1,0.2,0.2,0.5,0.2,0.9
			c0,0.4-0.1,0.7-0.2,1c-0.1,0.3-0.3,0.6-0.5,0.8c-0.2,0.2-0.4,0.4-0.7,0.6c-0.3,0.2-0.5,0.3-0.9,0.3l1.3,3.3h-1.4l-1.1-3.1h-1.2
			l-0.6,3.1h-1.3l1.6-7.8H436.1z M435.3,249.1c0.7,0,1.2-0.1,1.5-0.4c0.3-0.3,0.5-0.7,0.5-1.2c0-0.4-0.1-0.7-0.4-0.8
			c-0.3-0.2-0.6-0.2-1.1-0.2h-1l-0.5,2.7H435.3z"/>
		<path fill="#FFFFFF" d="M442.8,251h-2.6l-1.1,2.2h-1.4l4.2-7.8h1.5l0.8,7.8H443L442.8,251z M442.8,250.1l-0.1-1.2
			c0-0.4-0.1-0.8-0.1-1.2c0-0.4-0.1-0.8-0.1-1.2h0c-0.2,0.4-0.4,0.8-0.6,1.2c-0.2,0.4-0.4,0.8-0.6,1.2l-0.6,1.2H442.8z"/>
		<path fill="#FFFFFF" d="M446.6,245.4h1.6c1.1,0,1.9,0.3,2.5,0.8c0.6,0.5,0.9,1.3,0.9,2.3c0,0.7-0.1,1.4-0.3,2
			c-0.2,0.6-0.5,1.1-0.9,1.5c-0.4,0.4-0.8,0.7-1.3,0.9s-1.1,0.3-1.8,0.3h-2.3L446.6,245.4z M447.3,252.2c0.4,0,0.8-0.1,1.2-0.2
			c0.4-0.2,0.7-0.4,0.9-0.7c0.3-0.3,0.5-0.7,0.6-1.1c0.1-0.5,0.2-1,0.2-1.5c0-0.7-0.2-1.2-0.6-1.6c-0.4-0.4-0.9-0.5-1.6-0.5h-0.5
			l-1.1,5.8H447.3z"/>
		<path fill="#FFFFFF" d="M453.8,245.4h1.3l-1.6,7.8h-1.3L453.8,245.4z"/>
		<path fill="#FFFFFF" d="M456.9,245.4h1.3l1.5,4.5l0.5,1.7h0c0-0.4,0.1-0.8,0.1-1.3c0-0.5,0.1-0.9,0.2-1.4l0.7-3.6h1.2l-1.6,7.8
			h-1.3l-1.5-4.5l-0.5-1.7h0c0,0.4-0.1,0.9-0.2,1.3s-0.1,0.9-0.2,1.3l-0.7,3.6h-1.2L456.9,245.4z"/>
		<path fill="#FFFFFF" d="M463.1,250.2c0-0.6,0.1-1.3,0.3-1.9c0.2-0.6,0.5-1.1,0.9-1.6c0.4-0.4,0.8-0.8,1.3-1.1
			c0.5-0.3,1.1-0.4,1.7-0.4c0.5,0,0.9,0.1,1.2,0.3c0.3,0.2,0.6,0.5,0.8,0.9l-0.9,0.7c-0.2-0.2-0.3-0.4-0.5-0.6
			c-0.2-0.1-0.4-0.2-0.7-0.2c-0.4,0-0.8,0.1-1.2,0.3s-0.7,0.5-0.9,0.8c-0.2,0.3-0.4,0.7-0.6,1.2c-0.1,0.4-0.2,0.9-0.2,1.3
			c0,0.3,0,0.6,0.1,0.9c0.1,0.3,0.2,0.5,0.3,0.7s0.3,0.4,0.6,0.5c0.2,0.1,0.5,0.2,0.9,0.2c0.2,0,0.4,0,0.6-0.1
			c0.2-0.1,0.3-0.2,0.5-0.3l0.4-1.8h-1.5l0.2-1.1h2.6l-0.7,3.6c-0.3,0.2-0.6,0.4-1,0.6s-0.8,0.2-1.3,0.2c-1,0-1.7-0.3-2.2-0.9
			S463.1,251.2,463.1,250.2z"/>
		<path fill="#FFFFFF" d="M475.3,253.4c-0.4,0-0.8-0.1-1.2-0.2s-0.6-0.4-0.9-0.7s-0.4-0.6-0.6-1c-0.1-0.4-0.2-0.9-0.2-1.4
			c0-0.6,0.1-1.3,0.3-1.8s0.5-1.1,0.8-1.5s0.8-0.8,1.2-1.1c0.5-0.3,1-0.4,1.5-0.4c0.4,0,0.8,0.1,1.2,0.2c0.4,0.2,0.6,0.4,0.9,0.7
			c0.2,0.3,0.4,0.6,0.6,1c0.1,0.4,0.2,0.9,0.2,1.4c0,0.6-0.1,1.3-0.3,1.8c-0.2,0.6-0.5,1.1-0.8,1.5c-0.4,0.4-0.8,0.8-1.2,1.1
			S475.8,253.4,475.3,253.4z M476.3,246.4c-0.4,0-0.7,0.1-1,0.3c-0.3,0.2-0.6,0.5-0.8,0.8c-0.2,0.3-0.4,0.7-0.5,1.2
			c-0.1,0.4-0.2,0.9-0.2,1.3c0,0.7,0.1,1.3,0.4,1.7c0.3,0.4,0.7,0.6,1.2,0.6c0.3,0,0.7-0.1,1-0.3c0.3-0.2,0.6-0.5,0.8-0.8
			s0.4-0.7,0.5-1.2c0.1-0.4,0.2-0.9,0.2-1.3c0-0.7-0.1-1.3-0.4-1.7C477.2,246.6,476.8,246.4,476.3,246.4z"/>
		<path fill="#FFFFFF" d="M481.3,245.4h1.3l-0.9,4.4c-0.1,0.3-0.1,0.6-0.1,0.9c0,0.5,0.1,0.9,0.3,1.2c0.2,0.3,0.6,0.4,1.1,0.4
			c0.4,0,0.8-0.2,1.1-0.5s0.5-0.9,0.7-1.7l0.9-4.7h1.3l-0.9,4.7c-0.2,1.2-0.6,2-1.1,2.5c-0.5,0.5-1.2,0.8-1.9,0.8
			c-0.9,0-1.5-0.2-2-0.6c-0.4-0.4-0.7-1.1-0.7-2c0-0.2,0-0.4,0-0.6c0-0.2,0.1-0.4,0.1-0.6L481.3,245.4z"/>
		<path fill="#FFFFFF" d="M491.1,245.4c0.4,0,0.7,0,1,0.1c0.3,0.1,0.6,0.2,0.8,0.3s0.4,0.4,0.5,0.6c0.1,0.2,0.2,0.5,0.2,0.9
			c0,0.4-0.1,0.7-0.2,1c-0.1,0.3-0.3,0.6-0.5,0.8c-0.2,0.2-0.4,0.4-0.7,0.6c-0.3,0.2-0.5,0.3-0.9,0.3l1.3,3.3h-1.4l-1.1-3.1h-1.2
			l-0.6,3.1h-1.3l1.6-7.8H491.1z M490.3,249.1c0.7,0,1.2-0.1,1.5-0.4c0.3-0.3,0.5-0.7,0.5-1.2c0-0.4-0.1-0.7-0.4-0.8
			c-0.3-0.2-0.6-0.2-1.1-0.2h-1l-0.5,2.7H490.3z"/>
		<path fill="#FFFFFF" d="M496.9,251.3c0.2,0.3,0.5,0.6,0.8,0.8c0.3,0.2,0.7,0.3,1.1,0.3c0.4,0,0.7-0.1,1-0.3
			c0.3-0.2,0.4-0.5,0.4-0.9c0-0.2-0.1-0.5-0.3-0.6c-0.2-0.2-0.4-0.3-0.7-0.5l-0.8-0.5c-0.3-0.2-0.6-0.5-0.9-0.8s-0.3-0.7-0.3-1.1
			c0-0.3,0.1-0.6,0.2-0.9c0.1-0.3,0.3-0.5,0.6-0.7c0.2-0.2,0.5-0.4,0.8-0.5c0.3-0.1,0.7-0.2,1-0.2c0.5,0,0.9,0.1,1.3,0.3
			s0.7,0.5,1,0.8l-0.8,0.8c-0.2-0.2-0.4-0.4-0.7-0.6c-0.3-0.2-0.5-0.2-0.9-0.2c-0.4,0-0.7,0.1-0.9,0.3s-0.3,0.5-0.3,0.7
			c0,0.3,0.1,0.5,0.3,0.6s0.4,0.3,0.7,0.5l0.8,0.5c0.4,0.2,0.7,0.5,0.9,0.8c0.2,0.3,0.3,0.6,0.3,1.1c0,0.4-0.1,0.7-0.2,1
			c-0.1,0.3-0.3,0.6-0.6,0.8c-0.3,0.2-0.6,0.4-0.9,0.5c-0.4,0.1-0.7,0.2-1.2,0.2c-0.5,0-1-0.1-1.5-0.3c-0.5-0.2-0.9-0.6-1.2-1.1
			L496.9,251.3z"/>
		<path fill="#FFFFFF" d="M503.9,245.4h4.5l-0.2,1.1h-3.2l-0.4,2.1h2.7l-0.2,1.1h-2.7l-0.5,2.5h3.3l-0.2,1.1h-4.6L503.9,245.4z"/>
		<path fill="#FFFFFF" d="M512.2,245.4c0.4,0,0.7,0,1,0.1c0.3,0.1,0.6,0.2,0.8,0.3s0.4,0.4,0.5,0.6c0.1,0.2,0.2,0.5,0.2,0.9
			c0,0.4-0.1,0.7-0.2,1c-0.1,0.3-0.3,0.6-0.5,0.8c-0.2,0.2-0.4,0.4-0.7,0.6c-0.3,0.2-0.5,0.3-0.9,0.3l1.3,3.3h-1.4l-1.1-3.1h-1.2
			l-0.6,3.1h-1.3l1.6-7.8H512.2z M511.5,249.1c0.7,0,1.2-0.1,1.5-0.4c0.3-0.3,0.5-0.7,0.5-1.2c0-0.4-0.1-0.7-0.4-0.8
			c-0.3-0.2-0.6-0.2-1.1-0.2h-1l-0.5,2.7H511.5z"/>
		<path fill="#FFFFFF" d="M515.6,245.4h1.3l0.3,4.1c0,0.4,0,0.8,0.1,1.3s0,0.9,0.1,1.3h0c0.2-0.4,0.4-0.8,0.6-1.3
			c0.2-0.4,0.4-0.9,0.6-1.3l2-4.1h1.4l-4.1,7.8h-1.6L515.6,245.4z"/>
		<path fill="#FFFFFF" d="M522.8,245.4h4.5l-0.2,1.1h-3.2l-0.4,2.1h2.7l-0.2,1.1h-2.7l-0.5,2.5h3.3l-0.2,1.1h-4.6L522.8,245.4z"/>
		<path fill="#FFFFFF" d="M531.2,245.4c0.4,0,0.7,0,1,0.1c0.3,0.1,0.6,0.2,0.8,0.3s0.4,0.4,0.5,0.6c0.1,0.2,0.2,0.5,0.2,0.9
			c0,0.4-0.1,0.7-0.2,1c-0.1,0.3-0.3,0.6-0.5,0.8c-0.2,0.2-0.4,0.4-0.7,0.6c-0.3,0.2-0.5,0.3-0.9,0.3l1.3,3.3h-1.4l-1.1-3.1h-1.2
			l-0.6,3.1h-1.3l1.6-7.8H531.2z M530.4,249.1c0.7,0,1.2-0.1,1.5-0.4c0.3-0.3,0.5-0.7,0.5-1.2c0-0.4-0.1-0.7-0.4-0.8
			c-0.3-0.2-0.6-0.2-1.1-0.2h-1l-0.5,2.7H530.4z"/>
		<path fill="#FFFFFF" d="M534.6,251.3c0.2,0.3,0.5,0.6,0.8,0.8c0.3,0.2,0.7,0.3,1.1,0.3c0.4,0,0.7-0.1,1-0.3
			c0.3-0.2,0.4-0.5,0.4-0.9c0-0.2-0.1-0.5-0.3-0.6c-0.2-0.2-0.4-0.3-0.7-0.5l-0.8-0.5c-0.3-0.2-0.6-0.5-0.9-0.8s-0.3-0.7-0.3-1.1
			c0-0.3,0.1-0.6,0.2-0.9c0.1-0.3,0.3-0.5,0.6-0.7c0.2-0.2,0.5-0.4,0.8-0.5c0.3-0.1,0.7-0.2,1-0.2c0.5,0,0.9,0.1,1.3,0.3
			s0.7,0.5,1,0.8l-0.8,0.8c-0.2-0.2-0.4-0.4-0.7-0.6c-0.3-0.2-0.5-0.2-0.9-0.2c-0.4,0-0.7,0.1-0.9,0.3s-0.3,0.5-0.3,0.7
			c0,0.3,0.1,0.5,0.3,0.6s0.4,0.3,0.7,0.5l0.8,0.5c0.4,0.2,0.7,0.5,0.9,0.8c0.2,0.3,0.3,0.6,0.3,1.1c0,0.4-0.1,0.7-0.2,1
			c-0.1,0.3-0.3,0.6-0.6,0.8c-0.3,0.2-0.6,0.4-0.9,0.5c-0.4,0.1-0.7,0.2-1.2,0.2c-0.5,0-1-0.1-1.5-0.3c-0.5-0.2-0.9-0.6-1.2-1.1
			L534.6,251.3z"/>
		<path fill="#FFFFFF" d="M545.1,246.5h-2.2l0.2-1.1h5.6l-0.2,1.1h-2.2l-1.3,6.7h-1.3L545.1,246.5z"/>
		<path fill="#FFFFFF" d="M551.3,253.4c-0.4,0-0.8-0.1-1.2-0.2c-0.4-0.2-0.6-0.4-0.9-0.7s-0.4-0.6-0.6-1c-0.1-0.4-0.2-0.9-0.2-1.4
			c0-0.6,0.1-1.3,0.3-1.8c0.2-0.6,0.5-1.1,0.8-1.5c0.4-0.4,0.8-0.8,1.2-1.1c0.5-0.3,1-0.4,1.5-0.4c0.4,0,0.8,0.1,1.2,0.2
			c0.4,0.2,0.6,0.4,0.9,0.7c0.2,0.3,0.4,0.6,0.6,1c0.1,0.4,0.2,0.9,0.2,1.4c0,0.6-0.1,1.3-0.3,1.8c-0.2,0.6-0.5,1.1-0.8,1.5
			c-0.4,0.4-0.8,0.8-1.2,1.1S551.8,253.4,551.3,253.4z M552.3,246.4c-0.4,0-0.7,0.1-1,0.3c-0.3,0.2-0.6,0.5-0.8,0.8
			c-0.2,0.3-0.4,0.7-0.5,1.2c-0.1,0.4-0.2,0.9-0.2,1.3c0,0.7,0.1,1.3,0.4,1.7s0.7,0.6,1.2,0.6c0.3,0,0.7-0.1,1-0.3
			c0.3-0.2,0.6-0.5,0.8-0.8c0.2-0.3,0.4-0.7,0.5-1.2c0.1-0.4,0.2-0.9,0.2-1.3c0-0.7-0.1-1.3-0.4-1.7
			C553.2,246.6,552.8,246.4,552.3,246.4z"/>
		<path fill="#FFFFFF" d="M559.5,245.4h1.4l0.6,3.9l0.2,1.5h0l0.8-1.5l2.2-3.9h1.4l-1.6,7.8h-1.2l0.8-3.8c0-0.2,0.1-0.4,0.1-0.6
			s0.1-0.4,0.2-0.6s0.1-0.4,0.2-0.6s0.1-0.4,0.2-0.6h0l-1,1.8l-2.1,3.7h-0.6l-0.6-3.7l-0.3-1.8h0c0,0.4-0.1,0.8-0.1,1.2
			s-0.1,0.9-0.2,1.2l-0.8,3.8H558L559.5,245.4z"/>
		<path fill="#FFFFFF" d="M570.5,251H568l-1.1,2.2h-1.4l4.2-7.8h1.5l0.8,7.8h-1.3L570.5,251z M570.5,250.1l-0.1-1.2
			c0-0.4-0.1-0.8-0.1-1.2c0-0.4-0.1-0.8-0.1-1.2h0c-0.2,0.4-0.4,0.8-0.6,1.2c-0.2,0.4-0.4,0.8-0.6,1.2l-0.6,1.2H570.5z"/>
		<path fill="#FFFFFF" d="M574.3,245.4h1.3l-0.7,3.6h0l3.4-3.6h1.4l-2.9,3.1l1.8,4.7h-1.3l-1.4-3.9l-1.4,1.4l-0.5,2.5h-1.3
			L574.3,245.4z"/>
		<path fill="#FFFFFF" d="M581.2,245.4h4.5l-0.2,1.1h-3.2l-0.4,2.1h2.7l-0.2,1.1h-2.7l-0.5,2.5h3.3l-0.2,1.1h-4.6L581.2,245.4z"/>
		<path fill="#FFFFFF" d="M589.8,250.3l-1.3-4.9h1.3l0.4,2.1c0.1,0.3,0.1,0.6,0.2,0.9c0,0.3,0.1,0.6,0.2,0.9h0
			c0.2-0.3,0.3-0.6,0.5-0.9c0.2-0.3,0.3-0.6,0.5-0.9l1.3-2.1h1.4l-3.3,4.9l-0.6,3h-1.3L589.8,250.3z"/>
		<path fill="#FFFFFF" d="M596.6,253.4c-0.4,0-0.8-0.1-1.2-0.2s-0.6-0.4-0.9-0.7s-0.4-0.6-0.6-1c-0.1-0.4-0.2-0.9-0.2-1.4
			c0-0.6,0.1-1.3,0.3-1.8s0.5-1.1,0.8-1.5s0.8-0.8,1.2-1.1c0.5-0.3,1-0.4,1.5-0.4c0.4,0,0.8,0.1,1.2,0.2c0.4,0.2,0.7,0.4,0.9,0.7
			c0.2,0.3,0.4,0.6,0.6,1c0.1,0.4,0.2,0.9,0.2,1.4c0,0.6-0.1,1.3-0.3,1.8c-0.2,0.6-0.5,1.1-0.8,1.5c-0.4,0.4-0.8,0.8-1.2,1.1
			C597.6,253.3,597.1,253.4,596.6,253.4z M597.6,246.4c-0.4,0-0.7,0.1-1,0.3c-0.3,0.2-0.6,0.5-0.8,0.8s-0.4,0.7-0.5,1.2
			c-0.1,0.4-0.2,0.9-0.2,1.3c0,0.7,0.1,1.3,0.4,1.7c0.3,0.4,0.7,0.6,1.2,0.6c0.3,0,0.7-0.1,1-0.3s0.6-0.5,0.8-0.8s0.4-0.7,0.5-1.2
			c0.1-0.4,0.2-0.9,0.2-1.3c0-0.7-0.1-1.3-0.4-1.7C598.5,246.6,598.1,246.4,597.6,246.4z"/>
		<path fill="#FFFFFF" d="M602.6,245.4h1.3l-0.9,4.4c-0.1,0.3-0.1,0.6-0.1,0.9c0,0.5,0.1,0.9,0.3,1.2c0.2,0.3,0.6,0.4,1.1,0.4
			c0.4,0,0.8-0.2,1.1-0.5s0.5-0.9,0.7-1.7l0.9-4.7h1.3l-0.9,4.7c-0.2,1.2-0.6,2-1.1,2.5c-0.5,0.5-1.2,0.8-1.9,0.8
			c-0.9,0-1.5-0.2-2-0.6c-0.4-0.4-0.7-1.1-0.7-2c0-0.2,0-0.4,0-0.6c0-0.2,0.1-0.4,0.1-0.6L602.6,245.4z"/>
		<path fill="#FFFFFF" d="M612.4,245.4c0.4,0,0.7,0,1,0.1c0.3,0.1,0.6,0.2,0.8,0.3c0.2,0.2,0.4,0.4,0.5,0.6s0.2,0.5,0.2,0.9
			c0,0.4-0.1,0.7-0.2,1c-0.1,0.3-0.3,0.6-0.5,0.8c-0.2,0.2-0.4,0.4-0.7,0.6c-0.3,0.2-0.5,0.3-0.9,0.3l1.3,3.3h-1.4l-1.1-3.1h-1.2
			l-0.6,3.1h-1.3l1.6-7.8H612.4z M611.6,249.1c0.7,0,1.2-0.1,1.5-0.4c0.3-0.3,0.5-0.7,0.5-1.2c0-0.4-0.1-0.7-0.4-0.8
			c-0.3-0.2-0.6-0.2-1.1-0.2h-1l-0.5,2.7H611.6z"/>
		<path fill="#FFFFFF" d="M619.1,245.4h4.5l-0.2,1.1h-3.2l-0.4,2.1h2.7l-0.2,1.1h-2.7l-0.5,2.5h3.3l-0.2,1.1h-4.6L619.1,245.4z"/>
		<path fill="#FFFFFF" d="M625.7,249.2l-1.3-3.8h1.4l0.5,1.8c0,0.2,0.1,0.4,0.1,0.6c0,0.2,0.1,0.4,0.2,0.6h0
			c0.1-0.2,0.3-0.4,0.4-0.6s0.3-0.4,0.4-0.6l1.2-1.8h1.4l-2.8,3.9l1.4,4h-1.4l-0.6-2c-0.1-0.2-0.1-0.4-0.2-0.6
			c-0.1-0.2-0.1-0.4-0.2-0.6h0c-0.2,0.2-0.3,0.4-0.4,0.6c-0.1,0.2-0.3,0.4-0.4,0.6l-1.3,1.9h-1.4L625.7,249.2z"/>
		<path fill="#FFFFFF" d="M631.3,245.4h2.4c0.4,0,0.7,0,1,0.1c0.3,0.1,0.6,0.2,0.8,0.4c0.2,0.2,0.4,0.4,0.5,0.6
			c0.1,0.3,0.2,0.6,0.2,0.9c0,0.5-0.1,1-0.3,1.3c-0.2,0.4-0.4,0.7-0.7,0.9c-0.3,0.2-0.7,0.4-1.1,0.5c-0.4,0.1-0.9,0.2-1.4,0.2h-1.1
			l-0.6,2.9h-1.3L631.3,245.4z M632.8,249.3c0.7,0,1.2-0.1,1.6-0.4c0.4-0.3,0.5-0.7,0.5-1.3c0-0.4-0.1-0.7-0.4-0.9
			c-0.3-0.2-0.6-0.3-1.1-0.3h-1l-0.6,2.8H632.8z"/>
		<path fill="#FFFFFF" d="M638,245.4h4.5l-0.2,1.1h-3.2l-0.4,2.1h2.7l-0.2,1.1h-2.7l-0.5,2.5h3.3l-0.2,1.1h-4.6L638,245.4z"/>
		<path fill="#FFFFFF" d="M646.4,245.4c0.4,0,0.7,0,1,0.1c0.3,0.1,0.6,0.2,0.8,0.3c0.2,0.2,0.4,0.4,0.5,0.6c0.1,0.2,0.2,0.5,0.2,0.9
			c0,0.4-0.1,0.7-0.2,1c-0.1,0.3-0.3,0.6-0.5,0.8c-0.2,0.2-0.4,0.4-0.7,0.6c-0.3,0.2-0.5,0.3-0.9,0.3l1.3,3.3h-1.4l-1.1-3.1h-1.2
			l-0.6,3.1h-1.3l1.6-7.8H646.4z M645.6,249.1c0.7,0,1.2-0.1,1.5-0.4c0.3-0.3,0.5-0.7,0.5-1.2c0-0.4-0.1-0.7-0.4-0.8
			c-0.3-0.2-0.6-0.2-1.1-0.2h-1l-0.5,2.7H645.6z"/>
		<path fill="#FFFFFF" d="M650.8,245.4h1.3l-1.6,7.8h-1.3L650.8,245.4z"/>
		<path fill="#FFFFFF" d="M654,245.4h4.5l-0.2,1.1h-3.2l-0.4,2.1h2.7l-0.2,1.1h-2.7l-0.5,2.5h3.3l-0.2,1.1h-4.6L654,245.4z"/>
		<path fill="#FFFFFF" d="M660.1,245.4h1.3l1.5,4.5l0.5,1.7h0c0-0.4,0.1-0.8,0.1-1.3c0-0.5,0.1-0.9,0.2-1.4l0.7-3.6h1.2l-1.6,7.8
			h-1.3l-1.5-4.5l-0.5-1.7h0c0,0.4-0.1,0.9-0.2,1.3s-0.1,0.9-0.2,1.3l-0.7,3.6h-1.2L660.1,245.4z"/>
		<path fill="#FFFFFF" d="M666.3,250.2c0-0.6,0.1-1.3,0.3-1.9c0.2-0.6,0.5-1.1,0.9-1.6c0.4-0.5,0.8-0.8,1.3-1.1
			c0.5-0.3,1.1-0.4,1.7-0.4c0.5,0,0.9,0.1,1.2,0.3c0.3,0.2,0.6,0.5,0.8,0.9l-0.9,0.7c-0.2-0.2-0.3-0.4-0.5-0.6s-0.4-0.2-0.7-0.2
			c-0.4,0-0.8,0.1-1.1,0.3s-0.6,0.5-0.9,0.8c-0.2,0.3-0.4,0.7-0.6,1.2c-0.1,0.4-0.2,0.9-0.2,1.3c0,0.3,0,0.6,0.1,0.9
			c0.1,0.3,0.2,0.5,0.3,0.7c0.1,0.2,0.3,0.3,0.6,0.5c0.2,0.1,0.5,0.2,0.8,0.2c0.3,0,0.5-0.1,0.8-0.2c0.2-0.1,0.5-0.3,0.7-0.5
			l0.6,0.8c-0.3,0.2-0.6,0.4-1,0.6c-0.4,0.2-0.8,0.3-1.3,0.3c-0.4,0-0.8-0.1-1.2-0.2s-0.7-0.4-0.9-0.6c-0.2-0.3-0.4-0.6-0.6-1
			C666.3,251.1,666.3,250.7,666.3,250.2z"/>
		<path fill="#FFFFFF" d="M674.1,245.4h4.5l-0.2,1.1h-3.2l-0.4,2.1h2.7l-0.2,1.1h-2.7l-0.5,2.5h3.3l-0.2,1.1h-4.6L674.1,245.4z"/>
		<path fill="#FFFFFF" d="M682.4,245.4h4.5l-0.2,1.1h-3.2l-0.4,2.1h2.7l-0.2,1.1h-2.7l-0.5,2.5h3.3l-0.2,1.1h-4.6L682.4,245.4z"/>
		<path fill="#FFFFFF" d="M687.5,245.4h1.3l0.3,4.1c0,0.4,0,0.8,0.1,1.3s0,0.9,0.1,1.3h0c0.2-0.4,0.4-0.8,0.6-1.3
			c0.2-0.4,0.4-0.9,0.6-1.3l2-4.1h1.4l-4.1,7.8h-1.6L687.5,245.4z"/>
		<path fill="#FFFFFF" d="M694.6,245.4h4.5l-0.2,1.1h-3.2l-0.4,2.1h2.7l-0.2,1.1h-2.7l-0.5,2.5h3.3l-0.2,1.1h-4.6L694.6,245.4z"/>
		<path fill="#FFFFFF" d="M700.7,245.4h1.3l1.5,4.5l0.5,1.7h0c0-0.4,0.1-0.8,0.1-1.3c0-0.5,0.1-0.9,0.2-1.4l0.7-3.6h1.2l-1.6,7.8
			h-1.3l-1.5-4.5l-0.5-1.7h0c0,0.4-0.1,0.9-0.2,1.3c-0.1,0.5-0.1,0.9-0.2,1.3l-0.7,3.6h-1.2L700.7,245.4z"/>
		<path fill="#FFFFFF" d="M710.4,245.4h2.3c0.8,0,1.4,0.1,1.8,0.4c0.5,0.3,0.7,0.7,0.7,1.3c0,0.2,0,0.5-0.1,0.7
			c-0.1,0.2-0.2,0.4-0.4,0.6s-0.3,0.3-0.5,0.4c-0.2,0.1-0.4,0.2-0.7,0.3l0,0c0.4,0.1,0.8,0.3,1,0.5s0.4,0.6,0.4,1
			c0,0.4-0.1,0.8-0.3,1.2s-0.4,0.6-0.7,0.8c-0.3,0.2-0.7,0.4-1.1,0.5c-0.4,0.1-0.8,0.1-1.3,0.1h-2.7L710.4,245.4z M711.5,252.2
			c0.6,0,1.2-0.1,1.5-0.4c0.4-0.2,0.6-0.6,0.6-1.1c0-0.4-0.1-0.6-0.4-0.9s-0.6-0.3-1.1-0.3h-1.2l-0.5,2.6H711.5z M712,248.7
			c0.6,0,1.1-0.1,1.4-0.4c0.3-0.2,0.4-0.6,0.4-1c0-0.3-0.1-0.5-0.4-0.7s-0.6-0.3-1.1-0.3h-0.9l-0.5,2.3H712z"/>
		<path fill="#FFFFFF" d="M717.4,245.4h4.5l-0.2,1.1h-3.2l-0.4,2.1h2.7l-0.2,1.1h-2.7l-0.5,2.5h3.3l-0.2,1.1h-4.6L717.4,245.4z"/>
		<path fill="#FFFFFF" d="M724.7,246.5h-2.2l0.2-1.1h5.6l-0.2,1.1H726l-1.3,6.7h-1.3L724.7,246.5z"/>
		<path fill="#FFFFFF" d="M730.9,246.5h-2.2l0.2-1.1h5.6l-0.2,1.1h-2.2l-1.3,6.7h-1.3L730.9,246.5z"/>
		<path fill="#FFFFFF" d="M735.7,245.4h4.5l-0.2,1.1h-3.2l-0.4,2.1h2.7l-0.2,1.1h-2.7l-0.5,2.5h3.3l-0.2,1.1h-4.6L735.7,245.4z"/>
		<path fill="#FFFFFF" d="M744.1,245.4c0.4,0,0.7,0,1,0.1c0.3,0.1,0.6,0.2,0.8,0.3s0.4,0.4,0.5,0.6s0.2,0.5,0.2,0.9
			c0,0.4-0.1,0.7-0.2,1c-0.1,0.3-0.3,0.6-0.5,0.8c-0.2,0.2-0.4,0.4-0.7,0.6c-0.3,0.2-0.5,0.3-0.9,0.3l1.3,3.3h-1.4l-1.1-3.1h-1.2
			l-0.6,3.1h-1.3l1.6-7.8H744.1z M743.3,249.1c0.7,0,1.2-0.1,1.5-0.4c0.3-0.3,0.5-0.7,0.5-1.2c0-0.4-0.1-0.7-0.4-0.8
			c-0.3-0.2-0.6-0.2-1.1-0.2h-1l-0.5,2.7H743.3z"/>
		<path fill="#FFFFFF" d="M747.6,253.4c-0.2,0-0.4-0.1-0.5-0.2c-0.1-0.1-0.2-0.3-0.2-0.5c0-0.1,0-0.3,0.1-0.4s0.1-0.2,0.2-0.3
			c0.1-0.1,0.2-0.2,0.3-0.2c0.1-0.1,0.3-0.1,0.4-0.1c0.2,0,0.4,0.1,0.5,0.2c0.1,0.1,0.2,0.3,0.2,0.5c0,0.1,0,0.3-0.1,0.4
			s-0.1,0.2-0.2,0.3c-0.1,0.1-0.2,0.2-0.3,0.2C747.9,253.4,747.7,253.4,747.6,253.4z"/>
	</g>
</g>
<circle fill="#231F20" stroke="#989898" stroke-width="3" stroke-miterlimit="10" cx="548" cy="289.8" r="5"/>
<rect x="816.5" y="-23" fill="none" width="55.5" height="66.5"/>
<text transform="matrix(1 0 0 1 816.5 -12.4304)" font-family="'GLYPHICONSHalflings-Regular'" font-size="12">✏</text>
</svg>
