<?xml version="1.0" encoding="utf-8"?>
<!-- Generator: Adobe Illustrator 19.1.0, SVG Export Plug-In . SVG Version: 6.00 Build 0)  -->
<svg version="1.1" id="Layer_2" xmlns="http://www.w3.org/2000/svg" xmlns:xlink="http://www.w3.org/1999/xlink" x="0px" y="0px"
	 viewBox="0 0 192.1 39" style="enable-background:new 0 0 192.1 39;" xml:space="preserve">
<style type="text/css">
	.st0{fill:#FFFFFF;}
</style>
<g>
	<path class="st0" d="M23.9,5.6C15.5,5.6,10,12,10,19.5s5.5,13.9,13.9,13.9c8.5,0,14-6.4,14-13.9S32.5,5.6,23.9,5.6z M23.9,27.9
		c-4.7,0-7.7-3.9-7.7-8.4c0-4.5,3.1-8.4,7.7-8.4c4.8,0,7.8,3.9,7.8,8.4C31.8,24,28.7,27.9,23.9,27.9z"/>
	<polygon class="st0" points="59,6.3 51.6,23.9 44.4,6.3 37.7,6.3 49.5,32.7 53.7,32.7 65.7,6.3 	"/>
	<path class="st0" d="M90.9,17.5c0-6.8-5.4-11.9-12.3-11.9c-8.3,0-13.1,6-13.1,13.9c0,7.2,4.3,13.9,13.2,13.9c6.8,0,11-4.1,11.9-8.6
		h-6.2c-0.8,1.9-2.1,3.5-5.6,3.5c-5,0-6.9-3.1-6.9-6.9h18.7C90.9,19.7,90.9,18.4,90.9,17.5z M72,16.8c0-3.9,2.9-6,6.5-6
		c3.7,0,6.4,2.3,6.4,6H72z"/>
	<path class="st0" d="M133.4,23.9c-2.5,0-4.5,2-4.5,4.6c0,2.5,2,4.5,4.5,4.5c2.6,0,4.6-2,4.6-4.5C138,26,136,23.9,133.4,23.9z"/>
	<rect x="143" y="6.3" class="st0" width="6.2" height="26.5"/>
	<polygon class="st0" points="108,12.5 108.1,6.3 101,6.3 101,6.3 94.8,6.3 94.8,32.7 101,32.7 101,12.5 	"/>
	<polygon class="st0" points="133.1,6.6 116.7,23 111,17.3 106.4,22 112.1,27.7 112.1,27.7 116.7,32.4 137.8,11.3 	"/>
	<path class="st0" d="M168,5.6c-8.4,0-13.9,6.4-13.9,13.9s5.5,13.9,13.9,13.9c8.5,0,14-6.4,14-13.9S176.6,5.6,168,5.6z M168,27.9
		c-4.7,0-7.7-3.9-7.7-8.4c0-4.5,3.1-8.4,7.7-8.4c4.8,0,7.8,3.9,7.8,8.4C175.9,24,172.8,27.9,168,27.9z"/>
</g>
</svg>
