<?xml version="1.0" encoding="utf-8"?>
<!-- Generator: Adobe Illustrator 17.1.0, SVG Export Plug-In . SVG Version: 6.00 Build 0)  -->
<!DOCTYPE svg PUBLIC "-//W3C//DTD SVG 1.1//EN" "http://www.w3.org/Graphics/SVG/1.1/DTD/svg11.dtd">
<svg version="1.1" id="Layer_1" xmlns="http://www.w3.org/2000/svg" xmlns:xlink="http://www.w3.org/1999/xlink" x="0px" y="0px"
	 width="362.8px" height="85px" viewBox="158.5 165.9 362.8 85" enable-background="new 158.5 165.9 362.8 85" xml:space="preserve"
	>
<g>
	<g>
		<circle id="XMLID_10_" fill="#00A7ED" cx="342.5" cy="208.4" r="42.5"/>
		<g id="XMLID_969_">
			<g id="XMLID_171_">
				<path id="XMLID_193_" fill="#00A7ED" d="M201.8,166.7c-23.6,0-42.8,19.1-42.8,42.8c0,18.9,12.3,34.9,29.3,40.6
					c2.1,0.4,2.9-0.9,2.9-2.1c0-1-0.1-4.4-0.1-7.9c-11.9,2.6-14.4-5-14.4-5c-1.9-5-4.7-6.2-4.7-6.2c-3.9-2.6,0.3-2.6,0.3-2.6
					c4.3,0.3,6.6,4.4,6.6,4.4c3.8,6.5,10,4.7,12.5,3.5c0.4-2.8,1.5-4.7,2.7-5.7c-9.5-1.1-19.5-4.7-19.5-21.1c0-4.7,1.7-8.5,4.4-11.5
					c-0.4-1.1-1.9-5.5,0.4-11.3c0,0,3.6-1.1,11.8,4.4c3.4-0.9,7.1-1.4,10.7-1.4s7.3,0.5,10.7,1.4c8.1-5.5,11.8-4.4,11.8-4.4
					c2.3,5.9,0.9,10.3,0.4,11.3c2.8,3,4.4,6.8,4.4,11.5c0,16.4-10,20.1-19.6,21.1c1.6,1.3,2.9,3.9,2.9,7.9c0,5.7-0.1,10.3-0.1,11.8
					c0,1.1,0.8,2.5,2.9,2.1c17-5.7,29.3-21.7,29.3-40.6C244.6,186,225.3,166.7,201.8,166.7z"/>
				<path id="XMLID_190_" fill="#00A7ED" d="M175.1,228.2c-0.1,0.2-0.4,0.3-0.7,0.1c-0.3-0.1-0.5-0.4-0.4-0.6
					c0.1-0.2,0.4-0.3,0.7-0.1C175.1,227.7,175.1,228,175.1,228.2L175.1,228.2z"/>
				<path id="XMLID_187_" fill="#00A7ED" d="M176.8,230.2c-0.2,0.2-0.6,0.1-0.9-0.2c-0.3-0.3-0.4-0.7-0.1-0.9
					c0.2-0.2,0.6-0.1,0.9,0.2C176.9,229.5,177.1,230,176.8,230.2L176.8,230.2z"/>
				<path id="XMLID_184_" fill="#00A7ED" d="M178.6,232.6c-0.3,0.2-0.7,0-0.9-0.4c-0.3-0.4-0.3-0.9,0-1c0.3-0.2,0.7,0,0.9,0.4
					C178.8,231.9,178.8,232.4,178.6,232.6L178.6,232.6z"/>
				<path id="XMLID_181_" fill="#00A7ED" d="M180.8,235c-0.2,0.3-0.7,0.2-1.1-0.1c-0.4-0.4-0.5-0.9-0.2-1.1c0.2-0.3,0.7-0.2,1.1,0.1
					S181.1,234.7,180.8,235L180.8,235z"/>
				<path id="XMLID_178_" fill="#00A7ED" d="M184.1,236.3c-0.1,0.4-0.6,0.5-1.1,0.4s-0.8-0.6-0.7-0.9c0.1-0.4,0.6-0.5,1.1-0.4
					C183.8,235.6,184.1,236.1,184.1,236.3L184.1,236.3z"/>
				<path id="XMLID_175_" fill="#00A7ED" d="M187.6,236.6c0,0.4-0.4,0.6-0.9,0.6s-0.9-0.3-0.9-0.6s0.4-0.6,0.9-0.6
					C187.1,236,187.6,236.3,187.6,236.6L187.6,236.6z"/>
				<path id="XMLID_172_" fill="#00A7ED" d="M190.8,236.1c0.1,0.4-0.3,0.7-0.8,0.8s-0.9-0.1-1-0.5s0.3-0.7,0.8-0.8
					S190.8,235.7,190.8,236.1L190.8,236.1z"/>
			</g>
		</g>
	</g>
	<g enable-background="new    ">
		<path d="M273.6,194.8v12h11.5v3.1h-11.5V222h-3.2v-12.1h-11.5v-3.1h11.5v-12H273.6z"/>
	</g>
	<g id="XMLID_1016_">
		<path id="XMLID_1023_" fill="#FFFFFF" d="M325.1,221.1L325.1,221.1l-8.9-8.9l7.4-7.4l8.9,8.9l25.7-25.7l7.4,7.4l-33.1,33.1
			L325.1,221.1z M358.7,229.5c-3.9,0-7.2-3.2-7.2-7.2s3.2-7.2,7.2-7.2s7.2,3.2,7.2,7.2C366,226.3,362.8,229.5,358.7,229.5"/>
	</g>
	<path id="XMLID_963_" fill="#EF5C4C" d="M478.3,181.5c2.5-3.5,5.3-6.2,8.5-8.1c3.2-1.8,6.3-2.8,9.4-2.9c3.1-0.1,6.2,0.4,9.1,1.6
		c3,1.1,5.7,2.8,7.9,5c2.3,2.1,4.1,4.7,5.5,7.8c1.4,3,2.1,6.2,2.1,9.5c0,2.9-0.9,6-2.6,9.1c-1.7,3.1-4.2,6.3-7.3,9.6
		c-3.1,3.3-6.4,6.6-9.8,9.9c-3.4,3.3-7.3,7.2-11.6,11.8c-4.3,4.6-8.1,9.1-11.3,13.5c-3.2-4.4-6.9-8.9-11.3-13.5
		c-4.3-4.6-8.1-8.5-11.6-11.8c-3.4-3.3-6.7-6.6-9.8-9.9c-3.1-3.3-5.5-6.5-7.3-9.6c-1.7-3.1-2.6-6.2-2.6-9.1c0-3.3,0.7-6.4,2.2-9.5
		c1.4-3,3.3-5.7,5.7-7.8c2.3-2.1,5-3.8,8.1-5c3-1.1,6.2-1.7,9.2-1.6c3,0.1,6.2,1.1,9.3,3C473.3,175.3,476,178,478.3,181.5z"/>
	<g enable-background="new    ">
		<path d="M398,204v-3.1h26.3v3.1H398z M398,214v-3.1h26.3v3.1H398z"/>
	</g>
</g>
</svg>
