<?xml version="1.0" encoding="utf-8"?>
<!-- Generator: Adobe Illustrator 17.1.0, SVG Export Plug-In . SVG Version: 6.00 Build 0)  -->
<!DOCTYPE svg PUBLIC "-//W3C//DTD SVG 1.1//EN" "http://www.w3.org/Graphics/SVG/1.1/DTD/svg11.dtd">
<svg version="1.1" id="Layer_1" xmlns="http://www.w3.org/2000/svg" xmlns:xlink="http://www.w3.org/1999/xlink" x="0px" y="0px"
	 width="362.8px" height="85px" viewBox="0 0 362.8 85" enable-background="new 0 0 362.8 85" xml:space="preserve">
<g>
	<g>
		<g>
			<circle id="XMLID_10_" fill="#00A7ED" cx="184.1" cy="42.5" r="42.5"/>
		</g>
		<g enable-background="new    ">
			<path d="M115.2,28.9v12h11.5V44h-11.5v12.1H112V44h-11.5v-3.1H112v-12L115.2,28.9L115.2,28.9z"/>
		</g>
		<g id="XMLID_1016_">
			<path id="XMLID_1023_" fill="#FFFFFF" d="M166.7,55.2L166.7,55.2l-8.9-8.9l7.4-7.4l8.9,8.9l25.7-25.7l7.4,7.4l-33.1,33.1
				L166.7,55.2z M200.3,63.6c-3.9,0-7.2-3.2-7.2-7.2s3.2-7.2,7.2-7.2s7.2,3.2,7.2,7.2C207.6,60.4,204.4,63.6,200.3,63.6"/>
		</g>
		<path id="XMLID_963_" fill="#EF5C4C" d="M319.9,15.6c2.5-3.5,5.3-6.2,8.5-8.1c3.2-1.8,6.3-2.8,9.4-2.9c3.1-0.1,6.2,0.4,9.1,1.6
			c3,1.1,5.7,2.8,7.9,5c2.3,2.1,4.1,4.7,5.5,7.8c1.4,3,2.1,6.2,2.1,9.5c0,2.9-0.9,6-2.6,9.1c-1.7,3.1-4.2,6.3-7.3,9.6
			c-3.1,3.3-6.4,6.6-9.8,9.9c-3.4,3.3-7.3,7.2-11.6,11.8c-4.3,4.6-8.1,9.1-11.3,13.5c-3.2-4.4-6.9-8.9-11.3-13.5
			c-4.3-4.6-8.1-8.5-11.6-11.8c-3.4-3.3-6.7-6.6-9.8-9.9c-3.1-3.3-5.5-6.5-7.3-9.6c-1.7-3.1-2.6-6.2-2.6-9.1c0-3.3,0.7-6.4,2.2-9.5
			c1.4-3,3.3-5.7,5.7-7.8c2.3-2.1,5-3.8,8.1-5c3-1.1,6.2-1.7,9.2-1.6c3,0.1,6.2,1.1,9.3,3C314.9,9.4,317.6,12.1,319.9,15.6z"/>
		<g enable-background="new    ">
			<path d="M239.6,38.1V35h26.3v3.1H239.6z M239.6,48.1V45h26.3v3.1H239.6z"/>
		</g>
	</g>
	<g>
		<path fill-rule="evenodd" clip-rule="evenodd" fill="#221E1B" d="M43.4,0.9C19.7,0.9,0.4,20.1,0.4,43.8c0,19,12.3,35.1,29.4,40.7
			c2.1,0.4,2.9-0.9,2.9-2.1c0-1,0-4.4-0.1-8c-11.9,2.6-14.5-5.1-14.5-5.1c-2-5-4.8-6.3-4.8-6.3c-3.9-2.7,0.3-2.6,0.3-2.6
			c4.3,0.3,6.6,4.4,6.6,4.4c3.8,6.6,10,4.7,12.5,3.6c0.4-2.8,1.5-4.7,2.7-5.7C26,61.7,16,58,16,41.6c0-4.7,1.7-8.5,4.4-11.5
			c-0.4-1.1-1.9-5.4,0.4-11.4c0,0,3.6-1.2,11.8,4.4c3.4-1,7.1-1.4,10.7-1.4c3.6,0,7.3,0.5,10.8,1.4c8.2-5.6,11.8-4.4,11.8-4.4
			c2.3,5.9,0.9,10.3,0.4,11.4c2.8,3,4.4,6.8,4.4,11.5c0,16.5-10,20.1-19.6,21.2c1.5,1.3,2.9,3.9,2.9,8c0,5.7,0,10.4,0,11.8
			c0,1.1,0.8,2.5,2.9,2.1C74,78.9,86.3,62.8,86.3,43.8C86.3,20.1,67.1,0.9,43.4,0.9z"/>
		<path fill="#221E1B" d="M16.7,62.5c-0.1,0.2-0.4,0.3-0.7,0.1c-0.3-0.1-0.5-0.4-0.4-0.6c0.1-0.2,0.4-0.3,0.7-0.1
			C16.6,62,16.8,62.3,16.7,62.5L16.7,62.5z M16.2,62.1"/>
		<path fill="#221E1B" d="M18.4,64.4c-0.2,0.2-0.6,0.1-0.9-0.2c-0.3-0.3-0.3-0.7-0.1-0.9c0.2-0.2,0.6-0.1,0.9,0.2
			C18.6,63.9,18.6,64.3,18.4,64.4L18.4,64.4z M18,64"/>
		<path fill="#221E1B" d="M20.1,66.9c-0.3,0.2-0.7,0-1-0.4c-0.3-0.4-0.3-0.8,0-1c0.3-0.2,0.7,0,1,0.4C20.4,66.3,20.4,66.7,20.1,66.9
			L20.1,66.9z M20.1,66.9"/>
		<path fill="#221E1B" d="M22.4,69.3c-0.2,0.3-0.7,0.2-1.1-0.2c-0.4-0.3-0.5-0.8-0.2-1.1c0.2-0.3,0.7-0.2,1.1,0.2
			C22.6,68.6,22.7,69.1,22.4,69.3L22.4,69.3z M22.4,69.3"/>
		<path fill="#221E1B" d="M25.6,70.7c-0.1,0.3-0.6,0.5-1.1,0.3c-0.5-0.1-0.8-0.5-0.7-0.9c0.1-0.3,0.6-0.5,1.1-0.3
			C25.4,70,25.7,70.4,25.6,70.7L25.6,70.7z M25.6,70.7"/>
		<path fill="#221E1B" d="M29.2,71c0,0.4-0.4,0.6-0.9,0.7c-0.5,0-0.9-0.3-0.9-0.6c0-0.4,0.4-0.6,0.9-0.7
			C28.7,70.3,29.2,70.6,29.2,71L29.2,71z M29.2,71"/>
		<path fill="#221E1B" d="M32.4,70.4c0.1,0.3-0.3,0.7-0.8,0.8c-0.5,0.1-1-0.1-1-0.5c-0.1-0.4,0.3-0.7,0.8-0.8
			C31.9,69.8,32.4,70,32.4,70.4L32.4,70.4z M32.4,70.4"/>
	</g>
</g>
</svg>
