<?xml version="1.0" encoding="utf-8"?>
<!-- Generator: Adobe Illustrator 19.1.0, SVG Export Plug-In . SVG Version: 6.00 Build 0)  -->
<svg version="1.1" id="Layer_1" xmlns="http://www.w3.org/2000/svg" xmlns:xlink="http://www.w3.org/1999/xlink" x="0px" y="0px"
	 viewBox="0 0 595.3 841.9" style="enable-background:new 0 0 595.3 841.9;" xml:space="preserve">
<style type="text/css">
	.st0{fill:#2CA4DD;}
	.st1{fill:#E5E5E5;}
	.st2{fill:#39B54A;}
	.st3{fill:none;stroke:#FFFFFF;stroke-width:3;stroke-linecap:square;stroke-miterlimit:10;}
</style>
<g id="XMLID_969_">
	<g id="XMLID_171_">
		<path id="XMLID_193_" class="st0" d="M160.6,379.6c-23.6,0-42.8,19.1-42.8,42.8c0,18.9,12.3,34.9,29.3,40.6
			c2.1,0.4,2.9-0.9,2.9-2.1c0-1-0.1-4.4-0.1-7.9c-11.9,2.6-14.4-5-14.4-5c-1.9-5-4.7-6.2-4.7-6.2c-3.9-2.6,0.3-2.6,0.3-2.6
			c4.3,0.3,6.6,4.4,6.6,4.4c3.8,6.5,10,4.7,12.5,3.5c0.4-2.8,1.5-4.7,2.7-5.7c-9.5-1.1-19.5-4.7-19.5-21.1c0-4.7,1.7-8.5,4.4-11.5
			c-0.4-1.1-1.9-5.5,0.4-11.3c0,0,3.6-1.1,11.8,4.4c3.4-0.9,7.1-1.4,10.7-1.4s7.3,0.5,10.7,1.4c8.1-5.5,11.8-4.4,11.8-4.4
			c2.3,5.9,0.9,10.3,0.4,11.3c2.8,3,4.4,6.8,4.4,11.5c0,16.4-10,20.1-19.6,21.1c1.6,1.3,2.9,3.9,2.9,7.9c0,5.7-0.1,10.3-0.1,11.8
			c0,1.1,0.8,2.5,2.9,2.1c17-5.7,29.3-21.7,29.3-40.6C203.4,398.9,184.1,379.6,160.6,379.6z"/>
		<path id="XMLID_190_" class="st0" d="M133.9,441.1c-0.1,0.2-0.4,0.3-0.7,0.1c-0.3-0.1-0.5-0.4-0.4-0.6s0.4-0.3,0.7-0.1
			C133.9,440.6,133.9,440.9,133.9,441.1L133.9,441.1z"/>
		<path id="XMLID_187_" class="st0" d="M135.6,443.1c-0.2,0.2-0.6,0.1-0.9-0.2c-0.3-0.3-0.4-0.7-0.1-0.9c0.2-0.2,0.6-0.1,0.9,0.2
			C135.7,442.4,135.9,442.9,135.6,443.1L135.6,443.1z"/>
		<path id="XMLID_184_" class="st0" d="M137.4,445.5c-0.3,0.2-0.7,0-0.9-0.4c-0.3-0.4-0.3-0.9,0-1c0.3-0.2,0.7,0,0.9,0.4
			C137.6,444.8,137.6,445.3,137.4,445.5L137.4,445.5z"/>
		<path id="XMLID_181_" class="st0" d="M139.6,447.9c-0.2,0.3-0.7,0.2-1.1-0.1c-0.4-0.4-0.5-0.9-0.2-1.1c0.2-0.3,0.7-0.2,1.1,0.1
			S139.9,447.6,139.6,447.9L139.6,447.9z"/>
		<path id="XMLID_178_" class="st0" d="M142.9,449.2c-0.1,0.4-0.6,0.5-1.1,0.4c-0.5-0.1-0.8-0.6-0.7-0.9c0.1-0.4,0.6-0.5,1.1-0.4
			C142.6,448.5,142.9,449,142.9,449.2L142.9,449.2z"/>
		<path id="XMLID_175_" class="st0" d="M146.4,449.5c0,0.4-0.4,0.6-0.9,0.6s-0.9-0.3-0.9-0.6s0.4-0.6,0.9-0.6
			C145.9,448.9,146.4,449.2,146.4,449.5L146.4,449.5z"/>
		<path id="XMLID_172_" class="st0" d="M149.6,449c0.1,0.4-0.3,0.7-0.8,0.8c-0.5,0.1-0.9-0.1-1-0.5c-0.1-0.4,0.3-0.7,0.8-0.8
			S149.6,448.6,149.6,449L149.6,449z"/>
	</g>
</g>
<path class="st1" d="M232.4,407.7v12h11.5v3.1h-11.5v12.1h-3.2v-12.1h-11.5v-3.1h11.5v-12H232.4L232.4,407.7z"/>
<path class="st0" d="M301.3,378.8c-23.5,0-42.5,19-42.5,42.5s19,42.5,42.5,42.5c23.5,0,42.5-19,42.5-42.5S324.8,378.8,301.3,378.8z
	 M291.3,441.4l-7.4-7.4l-8.9-8.9l7.4-7.4l8.9,8.9l25.7-25.7l7.4,7.4L291.3,441.4z M317.5,442.4c-3.9,0-7.2-3.2-7.2-7.2
	s3.2-7.2,7.2-7.2s7.2,3.2,7.2,7.2C324.8,439.2,321.6,442.4,317.5,442.4z"/>
<path class="st1" d="M356.8,416.9v-3.1h26.3v3.1H356.8z M356.8,426.9v-3.1h26.3v3.1H356.8z"/>
<polygon class="st2" points="457.7,401.7 437.4,426.7 425.1,428.1 420.8,441.7 407.9,442.2 397.2,456 397.2,461.9 398.9,461.9 
	410.4,447.1 424.5,446.6 428.9,432.7 440,431.4 461.2,405.2 465.5,409.5 471.1,391.8 453.5,397.5 "/>
<line class="st3" x1="397.2" y1="461.9" x2="397.2" y2="382.3"/>
<line class="st3" x1="397.2" y1="461.9" x2="476.8" y2="461.9"/>
</svg>
