<?xml version="1.0" encoding="utf-8"?>
<!-- Generator: Adobe Illustrator 19.1.0, SVG Export Plug-In . SVG Version: 6.00 Build 0)  -->
<svg version="1.1" id="Layer_1" xmlns="http://www.w3.org/2000/svg" xmlns:xlink="http://www.w3.org/1999/xlink" x="0px" y="0px"
	 viewBox="-144.9 372.1 420.6 98.6" style="enable-background:new -144.9 372.1 420.6 98.6;" xml:space="preserve">
<style type="text/css">
	.st0{fill:#00A7ED;}
	.st1{fill:#E5E5E5;}
</style>
<g>
	<g id="XMLID_969_">
		<g id="XMLID_171_">
			<path id="XMLID_193_" class="st0" d="M-71.3,379.7c-23.6,0-42.8,19.1-42.8,42.8c0,18.9,12.3,34.9,29.3,40.6
				c2.1,0.4,2.9-0.9,2.9-2.1c0-1-0.1-4.4-0.1-7.9c-11.9,2.6-14.4-5-14.4-5c-1.9-5-4.7-6.2-4.7-6.2c-3.9-2.6,0.3-2.6,0.3-2.6
				c4.3,0.3,6.6,4.4,6.6,4.4c3.8,6.5,10,4.7,12.5,3.5c0.4-2.8,1.5-4.7,2.7-5.7c-9.5-1.1-19.5-4.7-19.5-21.1c0-4.7,1.7-8.5,4.4-11.5
				c-0.4-1.1-1.9-5.5,0.4-11.3c0,0,3.6-1.1,11.8,4.4c3.4-0.9,7.1-1.4,10.7-1.4s7.3,0.5,10.7,1.4c8.1-5.5,11.8-4.4,11.8-4.4
				c2.3,5.9,0.9,10.3,0.4,11.3c2.8,3,4.4,6.8,4.4,11.5c0,16.4-10,20.1-19.6,21.1c1.6,1.3,2.9,3.9,2.9,7.9c0,5.7-0.1,10.3-0.1,11.8
				c0,1.1,0.8,2.5,2.9,2.1c17-5.7,29.3-21.7,29.3-40.6C-28.5,399-47.8,379.7-71.3,379.7z"/>
			<path id="XMLID_190_" class="st0" d="M-98,441.2c-0.1,0.2-0.4,0.3-0.7,0.1c-0.3-0.1-0.5-0.4-0.4-0.6s0.4-0.3,0.7-0.1
				C-98,440.7-98,441-98,441.2L-98,441.2z"/>
			<path id="XMLID_187_" class="st0" d="M-96.3,443.2c-0.2,0.2-0.6,0.1-0.9-0.2c-0.3-0.3-0.4-0.7-0.1-0.9c0.2-0.2,0.6-0.1,0.9,0.2
				C-96.2,442.5-96,443-96.3,443.2L-96.3,443.2z"/>
			<path id="XMLID_184_" class="st0" d="M-94.5,445.6c-0.3,0.2-0.7,0-0.9-0.4c-0.3-0.4-0.3-0.9,0-1c0.3-0.2,0.7,0,0.9,0.4
				C-94.3,444.9-94.3,445.4-94.5,445.6L-94.5,445.6z"/>
			<path id="XMLID_181_" class="st0" d="M-92.3,448c-0.2,0.3-0.7,0.2-1.1-0.1c-0.4-0.4-0.5-0.9-0.2-1.1c0.2-0.3,0.7-0.2,1.1,0.1
				C-92.1,447.2-92,447.7-92.3,448L-92.3,448z"/>
			<path id="XMLID_178_" class="st0" d="M-89,449.3c-0.1,0.4-0.6,0.5-1.1,0.4s-0.8-0.6-0.7-0.9c0.1-0.4,0.6-0.5,1.1-0.4
				C-89.3,448.6-89,449.1-89,449.3L-89,449.3z"/>
			<path id="XMLID_175_" class="st0" d="M-85.5,449.6c0,0.4-0.4,0.6-0.9,0.6s-0.9-0.3-0.9-0.6c0-0.3,0.4-0.6,0.9-0.6
				C-86,449-85.5,449.3-85.5,449.6L-85.5,449.6z"/>
			<path id="XMLID_172_" class="st0" d="M-82.3,449.1c0.1,0.4-0.3,0.7-0.8,0.8s-0.9-0.1-1-0.5s0.3-0.7,0.8-0.8
				S-82.3,448.7-82.3,449.1L-82.3,449.1z"/>
		</g>
	</g>
	<path class="st1" d="M0.5,407.8v12H12v3.1H0.5V435h-3.2v-12.1h-11.5v-3.1h11.5v-12L0.5,407.8L0.5,407.8z"/>
	<path class="st0" d="M69.4,378.9c-23.5,0-42.5,19-42.5,42.5s19,42.5,42.5,42.5s42.5-19,42.5-42.5S92.9,378.9,69.4,378.9z
		 M59.4,441.5l-7.4-7.4l-8.9-8.9l7.4-7.4l8.9,8.9L85.1,401l7.4,7.4L59.4,441.5z M85.6,442.5c-3.9,0-7.2-3.2-7.2-7.2s3.2-7.2,7.2-7.2
		s7.2,3.2,7.2,7.2C92.9,439.3,89.7,442.5,85.6,442.5z"/>
	<path class="st1" d="M124.9,417v-3.1h26.3v3.1H124.9z M124.9,427v-3.1h26.3v3.1H124.9z"/>
	<rect x="165.3" y="382.4" class="st1" width="79.7" height="79.7"/>
	<polygon class="st0" points="225.7,401.8 205.5,426.8 193.2,428.2 188.9,441.8 176,442.3 165.3,456.1 165.3,462.1 167,462.1 
		178.5,447.2 192.5,446.7 197,432.8 208.1,431.5 229.3,405.3 233.5,409.6 239.2,391.9 221.6,397.6 	"/>
</g>
</svg>
