<?xml version="1.0" encoding="utf-8"?>
<!-- Generator: Adobe Illustrator 19.1.0, SVG Export Plug-In . SVG Version: 6.00 Build 0)  -->
<svg version="1.1" id="Layer_1" xmlns="http://www.w3.org/2000/svg" xmlns:xlink="http://www.w3.org/1999/xlink" x="0px" y="0px"
	 viewBox="-113 373.9 368 94" style="enable-background:new -113 373.9 368 94;" xml:space="preserve">
<style type="text/css">
	.st0{fill:#2CA4DD;}
	.st1{fill:#E5E5E5;}
	.st2{fill:#39B54A;}
	.st3{fill:none;stroke:#FFFFFF;stroke-width:3;stroke-linecap:square;stroke-miterlimit:10;}
</style>
<g>
	<g id="XMLID_969_">
		<g id="XMLID_171_">
			<path id="XMLID_193_" class="st0" d="M-65.7,379.2c-23.6,0-42.8,19.1-42.8,42.8c0,18.9,12.3,34.9,29.3,40.6
				c2.1,0.4,2.9-0.9,2.9-2.1c0-1-0.1-4.4-0.1-7.9c-11.9,2.6-14.4-5-14.4-5c-1.9-5-4.7-6.2-4.7-6.2c-3.9-2.6,0.3-2.6,0.3-2.6
				c4.3,0.3,6.6,4.4,6.6,4.4c3.8,6.5,10,4.7,12.5,3.5c0.4-2.8,1.5-4.7,2.7-5.7c-9.5-1.1-19.5-4.7-19.5-21.1c0-4.7,1.7-8.5,4.4-11.5
				c-0.4-1.1-1.9-5.5,0.4-11.3c0,0,3.6-1.1,11.8,4.4c3.4-0.9,7.1-1.4,10.7-1.4s7.3,0.5,10.7,1.4c8.1-5.5,11.8-4.4,11.8-4.4
				c2.3,5.9,0.9,10.3,0.4,11.3c2.8,3,4.4,6.8,4.4,11.5c0,16.4-10,20.1-19.6,21.1c1.6,1.3,2.9,3.9,2.9,7.9c0,5.7-0.1,10.3-0.1,11.8
				c0,1.1,0.8,2.5,2.9,2.1c17-5.7,29.3-21.7,29.3-40.6C-22.9,398.5-42.2,379.2-65.7,379.2z"/>
			<path id="XMLID_190_" class="st0" d="M-92.4,440.7c-0.1,0.2-0.4,0.3-0.7,0.1c-0.3-0.1-0.5-0.4-0.4-0.6s0.4-0.3,0.7-0.1
				C-92.4,440.2-92.4,440.5-92.4,440.7L-92.4,440.7z"/>
			<path id="XMLID_187_" class="st0" d="M-90.7,442.7c-0.2,0.2-0.6,0.1-0.9-0.2c-0.3-0.3-0.4-0.7-0.1-0.9c0.2-0.2,0.6-0.1,0.9,0.2
				C-90.6,442-90.4,442.5-90.7,442.7L-90.7,442.7z"/>
			<path id="XMLID_184_" class="st0" d="M-88.9,445.1c-0.3,0.2-0.7,0-0.9-0.4c-0.3-0.4-0.3-0.9,0-1c0.3-0.2,0.7,0,0.9,0.4
				C-88.7,444.4-88.7,444.9-88.9,445.1L-88.9,445.1z"/>
			<path id="XMLID_181_" class="st0" d="M-86.7,447.5c-0.2,0.3-0.7,0.2-1.1-0.1c-0.4-0.4-0.5-0.9-0.2-1.1c0.2-0.3,0.7-0.2,1.1,0.1
				S-86.4,447.2-86.7,447.5L-86.7,447.5z"/>
			<path id="XMLID_178_" class="st0" d="M-83.4,448.8c-0.1,0.4-0.6,0.5-1.1,0.4s-0.8-0.6-0.7-0.9c0.1-0.4,0.6-0.5,1.1-0.4
				C-83.7,448.1-83.4,448.6-83.4,448.8L-83.4,448.8z"/>
			<path id="XMLID_175_" class="st0" d="M-79.9,449.1c0,0.4-0.4,0.6-0.9,0.6s-0.9-0.3-0.9-0.6s0.4-0.6,0.9-0.6
				C-80.4,448.5-79.9,448.8-79.9,449.1L-79.9,449.1z"/>
			<path id="XMLID_172_" class="st0" d="M-76.7,448.6c0.1,0.4-0.3,0.7-0.8,0.8c-0.5,0.1-0.9-0.1-1-0.5s0.3-0.7,0.8-0.8
				S-76.7,448.2-76.7,448.6L-76.7,448.6z"/>
		</g>
	</g>
	<path class="st1" d="M6.1,407.3v12h11.5v3.1H6.1v12.1H2.9v-12.1H-8.6v-3.1H2.9v-12H6.1L6.1,407.3z"/>
	<path class="st0" d="M75,378.4c-23.5,0-42.5,19-42.5,42.5s19,42.5,42.5,42.5s42.5-19,42.5-42.5S98.5,378.4,75,378.4z M65,441
		l-7.4-7.4l-8.9-8.9l7.4-7.4l8.9,8.9l25.7-25.7l7.4,7.4L65,441z M91.2,442c-3.9,0-7.2-3.2-7.2-7.2s3.2-7.2,7.2-7.2s7.2,3.2,7.2,7.2
		C98.5,438.8,95.3,442,91.2,442z"/>
	<path class="st1" d="M130.5,416.5v-3.1h26.3v3.1H130.5z M130.5,426.5v-3.1h26.3v3.1H130.5z"/>
	<polygon class="st2" points="231.4,401.3 211.1,426.3 198.8,427.7 194.5,441.3 181.6,441.8 170.9,455.6 170.9,461.5 172.6,461.5 
		184.1,446.7 198.2,446.2 202.6,432.3 213.7,431 234.9,404.8 239.2,409.1 244.8,391.4 227.2,397.1 	"/>
	<line class="st3" x1="170.9" y1="461.5" x2="170.9" y2="381.9"/>
	<line class="st3" x1="170.9" y1="461.5" x2="250.5" y2="461.5"/>
</g>
</svg>
